<svg id="Шар_11_копія" data-name="Шар 11 копія" xmlns="http://www.w3.org/2000/svg" viewBox="0 0 613.11 796.42"><defs><style>.cls-1{fill:#b4c85a;}.cls-2{fill:#fff;}.cls-3{fill:#d2e07e;}</style></defs><title>design</title><path d="M680.59,440.91a210.35,210.35,0,0,0,21-91.89c0-116.68-94.93-211.6-211.61-211.6q-10.51,0-20.84,1c-30.1-19.58-58.76-30.53-78.91-25.88-18.41,4.24-29.92,18.21-33.3,40.42a106,106,0,0,0,.26,31.32A211.51,211.51,0,0,0,301,253.83h3.35a208.76,208.76,0,0,1,55.46-67.78,206,206,0,0,1,108.55-44.54c2.66,1.75,5.34,3.56,8.06,5.47,32.82,23,66.27,55.06,91.77,87.94,14.32,18.47,30.33,42.2,45.83,68.22a42.69,42.69,0,0,0-30.67,49h3.06a39.78,39.78,0,1,1,39,32l-.88,0v-5.82a21.57,21.57,0,0,0-21.5-21.5H385.5V271.17H325.9a42.75,42.75,0,0,0-23.84-12.84c.24-.5.5-1,.75-1.5h-3.33c-.18.37-.37.73-.54,1.09-1.37-.13-2.75-.21-4.15-.21a42.65,42.65,0,0,0-31.1,13.46H99.83V651.64H121.5v32.69a21.57,21.57,0,0,0,21.5,21.5H348.75v3.3H283.07v4.16a21.52,21.52,0,0,0,21.5,21.5h44.18v27.15a7.89,7.89,0,0,1-3.37.67c-3.31,0-4.85-1.41-6.81-3.2-2.17-2-4.62-4.24-9.45-4.24s-7.28,2.25-9.45,4.24c-1.95,1.79-3.5,3.2-6.8,3.2s-4.85-1.41-6.81-3.2c-2.17-2-4.62-4.24-9.45-4.24s-7.28,2.25-9.44,4.24c-2,1.79-3.51,3.2-6.81,3.2a7.66,7.66,0,0,1-4.21-1.1l-3.61,2.21a11.61,11.61,0,0,0,7.82,2.8c4.82,0,7.28-2.24,9.45-4.23,2-1.79,3.5-3.2,6.8-3.2s4.85,1.41,6.81,3.2c2.17,2,4.62,4.23,9.45,4.23s7.28-2.24,9.45-4.23c1.95-1.79,3.5-3.2,6.8-3.2s4.85,1.41,6.81,3.2c2.17,2,4.62,4.23,9.45,4.23a12.6,12.6,0,0,0,3.37-.43v12.79a7.74,7.74,0,0,1-3.37.68c-3.31,0-4.85-1.41-6.81-3.21-2.17-2-4.62-4.23-9.45-4.23s-7.28,2.25-9.45,4.23c-1.95,1.8-3.5,3.21-6.8,3.21s-4.85-1.41-6.81-3.21c-2.17-2-4.62-4.23-9.45-4.23s-7.28,2.25-9.44,4.23c-2,1.8-3.51,3.21-6.81,3.21s-4.85-1.41-6.8-3.21c-2.17-2-4.63-4.23-9.45-4.23a13.65,13.65,0,0,0-2.49.22l-9,10.24a16.33,16.33,0,0,0,4.72-3.34c2-1.79,3.51-3.21,6.81-3.21s4.85,1.42,6.8,3.21c2.17,2,4.63,4.23,9.45,4.23s7.28-2.25,9.45-4.23c2-1.79,3.5-3.21,6.8-3.21s4.85,1.42,6.81,3.21c2.17,2,4.62,4.23,9.45,4.23s7.28-2.25,9.45-4.23c1.95-1.79,3.5-3.21,6.8-3.21s4.85,1.42,6.81,3.21c2.17,2,4.62,4.23,9.45,4.23a12.18,12.18,0,0,0,3.37-.44v5.1l-7.38,7.38a16,16,0,0,1-2.8-2.21c-2.17-2-4.62-4.23-9.45-4.23s-7.28,2.25-9.45,4.23c-1.95,1.79-3.5,3.21-6.8,3.21s-4.85-1.42-6.81-3.21c-2.17-2-4.62-4.23-9.45-4.23s-7.28,2.25-9.44,4.23c-2,1.79-3.51,3.21-6.81,3.21s-4.85-1.42-6.8-3.21c-2.17-2-4.63-4.23-9.45-4.23s-7.28,2.25-9.45,4.23c-1.95,1.79-3.5,3.21-6.8,3.21a8,8,0,0,1-3.18-.58l-1.54,3.6a12,12,0,0,0,4.72.89c4.82,0,7.28-2.25,9.44-4.23,2-1.8,3.51-3.21,6.81-3.21s4.85,1.41,6.8,3.21c2.17,2,4.63,4.23,9.45,4.23s7.28-2.25,9.45-4.23c2-1.8,3.5-3.21,6.8-3.21s4.85,1.41,6.81,3.21c2.17,2,4.62,4.23,9.45,4.23s7.28-2.25,9.45-4.23c1.95-1.8,3.5-3.21,6.8-3.21s4.85,1.41,6.81,3.21a26.13,26.13,0,0,0,2.6,2.16l-7.76,7.76-4.18,4.18-8.15,8.15,2.12,2.12L331,810.12l3.09-3.09,7.26-7.26a12.23,12.23,0,0,0,4,.65,12.57,12.57,0,0,0,3.37-.44v29.74a7.74,7.74,0,0,1-3.37.68c-3.31,0-4.85-1.41-6.81-3.21-2.17-2-4.62-4.23-9.45-4.23s-7.28,2.25-9.45,4.23c-1.95,1.8-3.5,3.21-6.8,3.21s-4.85-1.41-6.81-3.21c-2.17-2-4.62-4.23-9.45-4.23s-7.28,2.25-9.44,4.23c-2,1.8-3.51,3.21-6.81,3.21s-4.85-1.41-6.8-3.21c-2.17-2-4.63-4.23-9.45-4.23s-7.28,2.25-9.45,4.23c-1.95,1.8-3.5,3.21-6.8,3.21s-4.85-1.41-6.81-3.21a20.31,20.31,0,0,0-3.32-2.62l-.07,4.83.75.68c2.17,2,4.62,4.23,9.45,4.23s7.28-2.25,9.44-4.23c2-1.79,3.51-3.21,6.81-3.21s4.85,1.42,6.8,3.21c2.17,2,4.63,4.23,9.45,4.23s7.28-2.25,9.45-4.23c2-1.79,3.5-3.21,6.8-3.21s4.85,1.42,6.81,3.21c2.17,2,4.62,4.23,9.45,4.23s7.28-2.25,9.45-4.23c1.95-1.79,3.5-3.21,6.8-3.21s4.85,1.42,6.81,3.21c2.17,2,4.62,4.23,9.45,4.23a12.6,12.6,0,0,0,3.37-.43v11.7a7.88,7.88,0,0,1-3.37.68c-3.31,0-4.85-1.42-6.81-3.21-2.17-2-4.62-4.23-9.45-4.23s-7.28,2.25-9.45,4.23c-1.95,1.79-3.5,3.21-6.8,3.21s-4.85-1.42-6.81-3.21c-2.17-2-4.62-4.23-9.45-4.23s-7.28,2.25-9.44,4.23c-2,1.79-3.51,3.21-6.81,3.21s-4.85-1.42-6.8-3.21c-2.17-2-4.63-4.23-9.45-4.23s-7.28,2.25-9.45,4.23c-1.95,1.79-3.5,3.21-6.8,3.21s-4.85-1.42-6.81-3.21a26.91,26.91,0,0,0-2.31-1.95l1.38,6.34a11.57,11.57,0,0,0,7.74,2.73c4.82,0,7.28-2.25,9.44-4.23,2-1.79,3.51-3.21,6.81-3.21s4.85,1.42,6.8,3.21c2.17,2,4.63,4.23,9.45,4.23s7.28-2.25,9.45-4.23c2-1.79,3.5-3.21,6.8-3.21s4.85,1.42,6.81,3.21c2.17,2,4.62,4.23,9.45,4.23s7.28-2.25,9.45-4.23c1.95-1.79,3.5-3.21,6.8-3.21s4.85,1.42,6.81,3.21c2.17,2,4.62,4.23,9.45,4.23a12.18,12.18,0,0,0,3.37-.44v12.8a7.88,7.88,0,0,1-3.37.68c-3.31,0-4.85-1.42-6.81-3.21-2.17-2-4.62-4.23-9.45-4.23s-7.28,2.25-9.45,4.23c-1.95,1.79-3.5,3.21-6.8,3.21s-4.85-1.42-6.81-3.21c-2.17-2-4.62-4.23-9.45-4.23s-7.28,2.25-9.44,4.23c-2,1.79-3.51,3.21-6.81,3.21s-4.85-1.42-6.8-3.21c-2.17-2-4.63-4.23-9.45-4.23s-7.28,2.25-9.45,4.23c-1.95,1.79-3.5,3.21-6.8,3.21A9.09,9.09,0,0,1,246,863l2.25,4.07c4.54-.13,6.91-2.3,9-4.22s3.51-3.21,6.81-3.21,4.85,1.41,6.8,3.21c2.17,2,4.63,4.23,9.45,4.23s7.28-2.25,9.45-4.23c2-1.8,3.5-3.21,6.8-3.21s4.85,1.41,6.81,3.21c2.17,2,4.62,4.23,9.45,4.23s7.28-2.25,9.45-4.23c1.95-1.8,3.5-3.21,6.8-3.21s4.85,1.41,6.81,3.21c2.17,2,4.62,4.23,9.45,4.23a12.57,12.57,0,0,0,3.37-.44v12.8a7.89,7.89,0,0,1-3.37.67c-3.31,0-4.85-1.41-6.81-3.2-2.17-2-4.62-4.24-9.45-4.24s-7.28,2.25-9.45,4.24c-1.95,1.79-3.5,3.2-6.8,3.2s-4.85-1.41-6.81-3.2c-2.17-2-4.62-4.24-9.45-4.24s-7.28,2.25-9.44,4.24c-2,1.79-3.51,3.2-6.81,3.2s-4.85-1.41-6.8-3.2c-2.17-2-4.63-4.24-9.45-4.24-4.6,0-7.05,2-9.15,4l2.55,3c1.86-1.7,3.42-3,6.6-3s4.85,1.41,6.8,3.2c2.17,2,4.63,4.23,9.45,4.23s7.28-2.24,9.45-4.23c2-1.79,3.5-3.2,6.8-3.2s4.85,1.41,6.81,3.2c2.17,2,4.62,4.23,9.45,4.23s7.28-2.24,9.45-4.23c1.95-1.79,3.5-3.2,6.8-3.2s4.85,1.41,6.81,3.2c2.17,2,4.62,4.23,9.45,4.23a12.6,12.6,0,0,0,3.37-.43v2.76a21.37,21.37,0,0,0,1.92,8.83,7.77,7.77,0,0,1-5.29,1.88c-3.31,0-4.85-1.41-6.81-3.21-2.17-2-4.62-4.23-9.45-4.23s-7.28,2.25-9.45,4.23c-1.95,1.8-3.5,3.21-6.8,3.21s-4.85-1.41-6.81-3.21c-2.17-2-4.62-4.23-9.45-4.23s-7.28,2.25-9.44,4.23c-1.89,1.74-3.4,3.12-6.48,3.21l5.55,2.45a20.11,20.11,0,0,0,3.57-2.77c2-1.79,3.5-3.21,6.8-3.21s4.85,1.42,6.81,3.21c2.17,2,4.62,4.23,9.45,4.23s7.28-2.25,9.45-4.23c1.95-1.79,3.5-3.21,6.8-3.21s4.85,1.42,6.81,3.21c2.17,2,4.62,4.23,9.45,4.23a11.46,11.46,0,0,0,7.24-2.35,21.46,21.46,0,0,0,17.63,9.23H471.5a21.52,21.52,0,0,0,21.13-17.58l.15-1a21.57,21.57,0,0,0,.22-2.92V832.83h13.32v-3h-133v-25h133v-3H493V758.11l26.29,25.75,2.1-2.14L493,753.91V705.83h73l-3.66,6.84,1.21.73c.06,0,6,3.76,10.44,12.6,3.6,7.2,2.59,16,2.11,19-2.4.48-5.6,2-5.6,5.68,0,3.43,2.72,5.26,4.86,6v15.5h45.71v-15.5c2.13-.74,4.86-2.57,4.86-6,0-3.64-3.2-5.2-5.61-5.68-.48-2.94-1.49-11.77,2.11-19,4.4-8.79,10.39-12.56,10.45-12.6l1.2-.73-11-20.62a21.28,21.28,0,0,0,1.46-7.72V624.78A62.85,62.85,0,0,1,658,668.14h-8.5v22.68h22.68V668.14H661.06a65.84,65.84,0,0,0-36.56-46.69V619h28a9.07,9.07,0,1,0-.2-3H624.5V547.5a115.31,115.31,0,0,0,21.69,2.42c10.14,0,19.23-2.08,26.28-7.69,11.56-9.17,16.91-26.92,16.36-54.26C688.56,474.19,685.57,458.19,680.59,440.91ZM359.93,182.12c-1.55-11.35-5.61-58.23,31-66.66,17.39-4,43.16,4.3,73.42,23.48A208.73,208.73,0,0,0,359.93,182.12ZM348.75,795.83a7.88,7.88,0,0,1-3.37.68c-.26,0-.49,0-.73,0l4.1-4.1Zm0-64H304.57a18.52,18.52,0,0,1-18.5-18.5v-1.16h62.68ZM385.5,377.17V359.83H603a18.51,18.51,0,0,1,16.21,9.61,18.31,18.31,0,0,1,2.29,8.89V616H608.05v-9.84h-5.3V380H385.5ZM594.83,652,583,674.17l-2,3.79h-37v-9.82h-8.51a62.8,62.8,0,0,1,50-48.86v9.54h14.38v19.72l-1.54-2.87ZM606.09,713a7.88,7.88,0,1,1-7.88-7.87A7.89,7.89,0,0,1,606.09,713Zm-65.16-41.9v16.68H524.25V671.14Zm47.44-45.32V609.14h16.68v16.68Zm14.38,3h5.3v-9.54a61.36,61.36,0,0,1,11.78,3.41c.56.22,1.12.44,1.67.68v61a18,18,0,0,1-.45,4l-2.4-4.48-15.9-29.7Zm17.08-9.34-1.34-.5h3v1.16C621,619.91,620.39,619.69,619.83,619.48ZM385.5,454.83H393v46h-7.5ZM334.83,290H369.5v3H334.83Zm-40-29.29a39.62,39.62,0,0,1,26.85,10.46h-53.7A39.64,39.64,0,0,1,294.79,260.71Zm87.71,48.62V327H364.75v-7.71h-1V327H346V309.33h-1V327H330v-7.71h-1V327H314V309.33h-1V327H298v-7.71h-1V327H282V309.33h-1V327H266v-7.71h-1V327H250V309.33h-1V327H234v-7.71h-1V327H218V309.33h-1V327H202v-7.71h-1V327H186V309.33h-1V327H170v-7.71h-1V327H154V309.33h-1V327H138v-7.71h-1V327H122V309.33H382.5Zm-279.67,0h2.87l-2.87,2.76Zm0,4.15,4.32-4.15h5.47l-9.79,9.4Zm0,6.63,11.24-10.78h4.68l-15.92,15.28ZM121,631h-7.83v1H121v16.64H102.83V616H121Zm0-32h-7.83v1H121v15H102.83V584H121Zm0-32h-7.83v1H121v15H102.83V552H121Zm0-32h-7.83v1H121v15H102.83V520H121Zm0-32h-7.83v1H121v15H102.83V488H121Zm0-32h-7.83v1H121v15H102.83V456H121Zm0-32h-7.83v1H121v15H102.83V424H121Zm0-32h-7.83v1H121v15H102.83V392H121Zm0-32h-7.83v1H121v15H102.83V360H121Zm0-32h-7.83v1H121v15H102.83V328H121Zm0-16h-3.1l3.1-3.72Zm0-5.28L116.6,327h-6.86L121,316.19Zm0-12.39v5.48L108.3,327h-5.47v-1l17.36-16.66Zm-7.83-8.83V281.17H132.5V300.5ZM348.75,699.17v3.66H143a18.56,18.56,0,0,1-18.5-18.5V651.64h17.25V681h207Zm0-44V678H312s-35,0-71.14,0H144.75V651.64H349.06A21.38,21.38,0,0,0,348.75,655.14Zm1-6.5H122V328H382.5V633.64H370.25A21.54,21.54,0,0,0,349.76,648.64ZM490,886.39a18.52,18.52,0,0,1-18.5,18.5H370.25a18.52,18.52,0,0,1-18.5-18.5V864.64H490Zm0-84.56H370.33v31H490v28.81H351.75V789.37l47.4-47.4,56.08,33.32,1.54-2.58-36.4-21.63L451,717l39,38.21ZM490,751l-39.15-38.35-33.11,36.9L398.68,738.2l-46.93,46.93V672.64H490Zm0-81.33H351.75V655.8c0-10.56,8.3-19.16,18.5-19.16H471.5c10.2,0,18.5,8.6,18.5,19.16Zm-18.5-36h-86V503.83H396v-52H385.5V383H594.83v-1.3h4.92V606.14H585.37V616h-46a9.13,9.13,0,1,0-.2,3h35.74a65.88,65.88,0,0,0-42.57,49.16H521.25V678H493V655.14A21.53,21.53,0,0,0,471.5,633.64Zm64.94-16.72a6.1,6.1,0,1,1-6.1-6.1A6.1,6.1,0,0,1,536.44,616.92ZM493,702.83V681h28.25v9.86h22.68V681h35.39l-9.75,18.21-2,3.66Zm125.07,66.34H578.36V757.29h39.71Zm4.86-18.5c0,2.67-3.48,3.35-3.62,3.37l-1.24.22v0H578.35v0l-1.23-.22c-.15,0-3.62-.71-3.62-3.38s3.81-2.83,4-2.84l1.13-.07v0h39.23v0l1.12.07S622.93,748.11,622.93,750.67Zm7.21-39a37.43,37.43,0,0,0-10.39,13c-3.77,7.54-3.06,16.35-2.5,20.13H579.17c.56-3.78,1.27-12.59-2.5-20.13a37.32,37.32,0,0,0-10.39-13l30.43-56.78v47.4a10.88,10.88,0,1,0,3,0v-47.4Zm39-40.52v16.68H652.5V671.14Zm-7.84-60.32a6.1,6.1,0,1,1-6.09,6.1A6.11,6.11,0,0,1,661.34,610.82Zm6.83-266.44a42.77,42.77,0,0,0-51.16-42c-15.71-26.46-32-50.6-46.49-69.33-26.9-34.68-62.85-68.78-97.35-92q8.35-.66,16.83-.66c115,0,208.61,93.58,208.61,208.6a207.35,207.35,0,0,1-19.3,87.55c-5.91-19.49-14.24-40.47-24-61.65A42.67,42.67,0,0,0,668.17,344.38ZM624.5,387.15l.88,0A42.59,42.59,0,0,0,653,377c10.07,21.92,18.57,43.59,24.39,63.55a209.73,209.73,0,0,1-52.9,67.77Zm46.11,152.73c-11.08,8.8-28,8.14-46.11,4.57v-32.2a213.1,213.1,0,0,0,54.12-67.4c4.36,15.81,7,30.46,7.21,43.18C686.36,514.37,681.38,531.33,670.61,539.88Z" transform="translate(-88.5 -111.48)"/><rect x="516.75" y="175.34" width="3" height="147.83" transform="translate(-129.32 272.51) rotate(-39.23)"/><circle cx="178.13" cy="74.15" r="8.38"/><path d="M268.66,253a4.68,4.68,0,0,0-2.64.81h5.28A4.68,4.68,0,0,0,268.66,253Z" transform="translate(-88.5 -111.48)"/><path d="M268.66,262.4a4.69,4.69,0,0,0,4.69-4.69,5.15,5.15,0,0,0-.09-.88h-9.2a5.15,5.15,0,0,0-.09.88A4.69,4.69,0,0,0,268.66,262.4Z" transform="translate(-88.5 -111.48)"/><circle cx="339.75" cy="201.61" r="4.75"/><circle cx="244.75" cy="61.02" r="4.75"/><path d="M534.5,347.42a4.75,4.75,0,0,0-4.75,4.75h9.5A4.75,4.75,0,0,0,534.5,347.42Z" transform="translate(-88.5 -111.48)"/><path class="cls-1" d="M329.12,806c-4.82,0-7.28,2.24-9.45,4.23-1.95,1.79-3.5,3.2-6.8,3.2s-4.85-1.41-6.81-3.2c-2.17-2-4.62-4.23-9.45-4.23s-7.28,2.24-9.44,4.23c-2,1.79-3.51,3.2-6.81,3.2s-4.85-1.41-6.8-3.2c-2.17-2-4.63-4.23-9.45-4.23s-7.28,2.24-9.45,4.23c-1.95,1.79-3.5,3.2-6.8,3.2s-4.85-1.41-6.81-3.2c-.35-.32-.71-.65-1.08-1l-1,4.39a12.15,12.15,0,0,0,8.86,3.69c4.82,0,7.28-2.24,9.44-4.23,2-1.79,3.51-3.2,6.81-3.2s4.85,1.41,6.8,3.2c2.17,2,4.63,4.23,9.45,4.23s7.28-2.24,9.45-4.23c2-1.79,3.5-3.2,6.8-3.2s4.85,1.41,6.81,3.2c2.17,2,4.62,4.23,9.45,4.23s7.28-2.24,9.45-4.23a11.2,11.2,0,0,1,4.27-2.84l4.18-4.18A14.41,14.41,0,0,0,329.12,806Z" transform="translate(-88.5 -111.48)"/><path class="cls-1" d="M345.38,813.45c-3.31,0-4.85-1.41-6.81-3.2a17.11,17.11,0,0,0-4.48-3.22L331,810.12c2.09.44,3.39,1.6,4.93,3,2.17,2,4.62,4.23,9.45,4.23a12.6,12.6,0,0,0,3.37-.43v-4.15A7.89,7.89,0,0,1,345.38,813.45Z" transform="translate(-88.5 -111.48)"/><rect class="cls-1" x="404.5" y="562.69" width="28.25" height="3.79"/><polygon class="cls-1" points="455.43 566.48 492.42 566.48 494.45 562.69 455.43 562.69 455.43 566.48"/><polygon class="cls-1" points="511.25 494.67 511.25 271.48 511.25 270.19 506.33 270.19 506.33 271.48 506.33 494.67 511.25 494.67"/><polygon class="cls-1" points="511.25 517.35 506.33 517.35 506.33 540.5 509.71 534.19 511.25 537.06 511.25 517.35"/><polygon class="cls-1" points="56.25 562.69 56.25 566.48 73.57 566.48 76.5 566.48 152.39 566.48 223.53 566.48 260.25 566.48 260.25 562.69 76.5 562.69 56.25 562.69"/><path class="cls-1" d="M529.75,352.17H385.5v4.66H603a21.35,21.35,0,0,1,11.6,3.43,22.47,22.47,0,0,0-17.27-8.09H529.75Z" transform="translate(-88.5 -111.48)"/><path class="cls-1" d="M121.5,651.64h-9.33v25A22.53,22.53,0,0,0,126,697.42a21.35,21.35,0,0,1-4.48-13.09Z" transform="translate(-88.5 -111.48)"/><path class="cls-1" d="M141.75,674.17h-4.58V651.64H124.5v32.69A18.46,18.46,0,0,0,131.73,699a21.88,21.88,0,0,0,2.94.2H348.75V681h-207Z" transform="translate(-88.5 -111.48)"/><polygon class="cls-1" points="490.82 569.48 455.43 569.48 455.43 579.35 432.75 579.35 432.75 569.48 404.5 569.48 404.5 587.69 481.07 587.69 490.82 569.48"/><path class="cls-1" d="M618.49,619l1.34.5V619Z" transform="translate(-88.5 -111.48)"/><path class="cls-1" d="M619.83,676.67v-54a61.36,61.36,0,0,0-11.78-3.41v9.54h-5.3v25.32l15.9,29.7A22.36,22.36,0,0,0,619.83,676.67Z" transform="translate(-88.5 -111.48)"/><path class="cls-1" d="M594.83,380h7.92V606.14h5.3V616h11.78V374.67a22.55,22.55,0,0,0-.62-5.23A18.51,18.51,0,0,0,603,359.83H385.5v17.34H594.83Z" transform="translate(-88.5 -111.48)"/><path d="M444.42,647.14H397.75a6.5,6.5,0,1,0,0,13h46.67a6.5,6.5,0,0,0,0-13Zm0,10H397.75a3.5,3.5,0,1,1,0-7h46.67a3.5,3.5,0,0,1,0,7Z" transform="translate(-88.5 -111.48)"/><path d="M421.66,898.05a13.5,13.5,0,1,0-13.5-13.5A13.52,13.52,0,0,0,421.66,898.05Zm0-24a10.5,10.5,0,1,1-10.5,10.5A10.51,10.51,0,0,1,421.66,874.05Z" transform="translate(-88.5 -111.48)"/><path d="M399.33,720.4a16.83,16.83,0,1,0-16.83-16.83A16.85,16.85,0,0,0,399.33,720.4Zm0-30.66a13.83,13.83,0,1,1-13.83,13.83A13.85,13.85,0,0,1,399.33,689.74Z" transform="translate(-88.5 -111.48)"/><path class="cls-1" d="M520.34,824.67a7.34,7.34,0,1,1,7.31-7.84h6.69v-15h-28v31h28v-15h-6.69A7.34,7.34,0,0,1,520.34,824.67Z" transform="translate(-88.5 -111.48)"/><path class="cls-1" d="M520.34,812a5.34,5.34,0,1,0,5.29,5.84H523.7a3.42,3.42,0,1,1,0-1h1.93A5.33,5.33,0,0,0,520.34,812Z" transform="translate(-88.5 -111.48)"/><path class="cls-1" d="M542,841.5H520.67v36h36v-36H542Zm6.93,28.22a41,41,0,0,1,0,5.55H529.73c-.07-2.13-.33-3.86-.23-5.29,0,0-.25-3.17,3.38-5.81,0,0,1.5,2.48,6.12,2.48s6.63-2.48,6.63-2.48A6,6,0,0,1,548.93,869.72Zm-2.43-13.05a7.5,7.5,0,1,1-7.5-7.5A7.5,7.5,0,0,1,546.5,856.67Z" transform="translate(-88.5 -111.48)"/><path class="cls-2" d="M520.34,810a7.34,7.34,0,1,0,7.31,7.84h-2a5.34,5.34,0,1,1,0-1h2A7.33,7.33,0,0,0,520.34,810Z" transform="translate(-88.5 -111.48)"/><path class="cls-2" d="M520.34,813.91a3.42,3.42,0,1,0,3.36,3.92h-3.36v-1h3.36A3.4,3.4,0,0,0,520.34,813.91Z" transform="translate(-88.5 -111.48)"/><polygon points="454.5 705.35 445.84 705.35 439.15 705.35 437.13 705.35 435.2 705.35 431.84 705.35 431.84 706.35 435.2 706.35 437.13 706.35 439.15 706.35 445.84 706.35 453.5 706.35 453.5 730.02 454.5 730.02 454.5 705.35"/><circle class="cls-2" cx="450.5" cy="745.19" r="7.5"/><path class="cls-2" d="M539,866.65c-4.62,0-6.12-2.48-6.12-2.48-3.63,2.64-3.38,5.81-3.38,5.81-.1,1.43.16,3.16.23,5.29h19.15a41,41,0,0,0,0-5.55,6,6,0,0,0-3.3-5.55S543.63,866.65,539,866.65Z" transform="translate(-88.5 -111.48)"/><polygon class="cls-1" points="3 515.02 3 145.36 175.56 145.36 184.76 145.36 210.98 145.36 214.31 145.36 272.67 145.36 272.67 159.69 275.67 159.69 275.67 142.36 215.81 142.36 212.46 142.36 182.8 142.36 177.52 142.36 0 142.36 0 518.02 11.33 518.02 11.33 515.02 3 515.02"/><rect class="cls-2" x="24.67" y="169.69" width="19.33" height="19.33"/><rect class="cls-2" x="246.33" y="178.52" width="34.67" height="3"/><path d="M519.83,451.83h-52v52h52Zm-3,49h-46v-46h46Z" transform="translate(-88.5 -111.48)"/><rect x="441.25" y="389.36" width="47.25" height="3"/><rect x="441.25" y="378.11" width="47.25" height="3"/><rect x="441.25" y="359.15" width="30.25" height="3"/><rect x="317.42" y="389.36" width="47.25" height="3"/><rect x="317.42" y="378.11" width="47.25" height="3"/><rect x="317.42" y="359.15" width="30.25" height="3"/><rect x="297.38" y="417.48" width="134.33" height="3"/><rect x="297.38" y="452.82" width="191.5" height="3"/><rect x="297.38" y="471.48" width="191.5" height="3"/><rect class="cls-1" x="435.75" y="559.67" width="16.68" height="16.68"/><rect class="cls-1" x="564" y="559.67" width="16.68" height="16.68"/><rect class="cls-1" x="499.87" y="497.67" width="16.68" height="16.68"/><path class="cls-1" d="M524.25,616.92a6.1,6.1,0,1,0,6.09-6.1A6.09,6.09,0,0,0,524.25,616.92Z" transform="translate(-88.5 -111.48)"/><path class="cls-1" d="M661.34,623a6.1,6.1,0,1,0-6.09-6.09A6.1,6.1,0,0,0,661.34,623Z" transform="translate(-88.5 -111.48)"/><path class="cls-3" d="M276.75,448a72,72,0,0,1,20.67,3c.05-1,.08-2,.08-3a72,72,0,1,0-92.67,69A72,72,0,0,1,276.75,448Z" transform="translate(-88.5 -111.48)"/><path class="cls-3" d="M297.42,451A72,72,0,0,1,204.83,517c-.05,1-.08,2-.08,3a72,72,0,1,0,92.67-69Z" transform="translate(-88.5 -111.48)"/><path class="cls-1" d="M297.42,451A72,72,0,0,0,204.83,517,72,72,0,0,0,297.42,451Z" transform="translate(-88.5 -111.48)"/></svg>