<svg xmlns="http://www.w3.org/2000/svg" viewBox="0 0 613.11 796.42"><title>design</title><g id="Шар_2" data-name="Шар 2"><g id="Шар_11_копія" data-name="Шар 11 копія"><path d="M256.88,789.53c-4.83,0-7.28-2.24-9.45-4.23-2-1.79-3.5-3.2-6.81-3.2s-4.85,1.41-6.8,3.2c-2.17,2-4.63,4.23-9.45,4.23s-7.28-2.24-9.45-4.23c-2-1.79-3.5-3.2-6.81-3.2s-4.84,1.41-6.8,3.2a19.22,19.22,0,0,1-3.57,2.77l-5.55-2.45c3.08-.09,4.59-1.47,6.48-3.2,2.16-2,4.62-4.23,9.44-4.23s7.28,2.24,9.45,4.23c2,1.79,3.5,3.2,6.81,3.2s4.85-1.41,6.8-3.2c2.17-2,4.63-4.23,9.45-4.23s7.28,2.24,9.45,4.23c2,1.79,3.5,3.2,6.81,3.2a7.77,7.77,0,0,0,5.29-1.88,21.33,21.33,0,0,1-1.92-8.82v-2.77a12.57,12.57,0,0,1-3.37.44c-4.83,0-7.28-2.25-9.45-4.23-2-1.8-3.5-3.21-6.81-3.21s-4.85,1.41-6.8,3.21c-2.17,2-4.63,4.23-9.45,4.23s-7.28-2.25-9.45-4.23c-2-1.8-3.5-3.21-6.81-3.21s-4.84,1.41-6.8,3.21c-2.17,2-4.63,4.23-9.45,4.23s-7.28-2.25-9.45-4.23c-1.95-1.8-3.5-3.21-6.8-3.21s-4.74,1.31-6.6,3l-2.55-3c2.1-1.91,4.55-4,9.15-4,4.82,0,7.28,2.25,9.45,4.23,1.95,1.79,3.5,3.21,6.8,3.21s4.85-1.42,6.81-3.21c2.16-2,4.62-4.23,9.44-4.23s7.28,2.25,9.45,4.23c2,1.79,3.5,3.21,6.81,3.21s4.85-1.42,6.8-3.21c2.17-2,4.63-4.23,9.45-4.23s7.28,2.25,9.45,4.23c2,1.79,3.5,3.21,6.81,3.21a7.88,7.88,0,0,0,3.37-.68V755.2a12.18,12.18,0,0,1-3.37.44c-4.83,0-7.28-2.25-9.45-4.23-2-1.79-3.5-3.21-6.81-3.21s-4.85,1.42-6.8,3.21c-2.17,2-4.63,4.23-9.45,4.23s-7.28-2.25-9.45-4.23c-2-1.79-3.5-3.21-6.81-3.21s-4.84,1.42-6.8,3.21c-2.17,2-4.63,4.23-9.45,4.23s-7.28-2.25-9.45-4.23c-1.95-1.79-3.5-3.21-6.8-3.21s-4.85,1.42-6.81,3.21-4.47,4.1-9,4.22l-2.25-4.07a9.09,9.09,0,0,0,1.82.17c3.3,0,4.85-1.42,6.8-3.21,2.17-2,4.63-4.23,9.45-4.23s7.28,2.25,9.45,4.23c1.95,1.8,3.5,3.21,6.8,3.21s4.85-1.42,6.81-3.21c2.16-2,4.62-4.23,9.44-4.23s7.28,2.25,9.45,4.23c2,1.79,3.5,3.21,6.81,3.21s4.85-1.42,6.8-3.21c2.17-2,4.63-4.23,9.45-4.23s7.28,2.25,9.45,4.23c2,1.79,3.5,3.21,6.81,3.21a7.74,7.74,0,0,0,3.37-.68V738.26a12.6,12.6,0,0,1-3.37.43c-4.83,0-7.28-2.24-9.45-4.23-2-1.79-3.5-3.2-6.81-3.2s-4.85,1.41-6.8,3.2c-2.17,2-4.63,4.23-9.45,4.23s-7.28-2.24-9.45-4.23c-2-1.79-3.5-3.2-6.81-3.2s-4.84,1.41-6.8,3.2c-2.17,2-4.63,4.23-9.45,4.23s-7.28-2.24-9.45-4.23c-1.95-1.79-3.5-3.2-6.8-3.2s-4.85,1.41-6.81,3.2c-2.16,2-4.62,4.23-9.44,4.23a11.57,11.57,0,0,1-7.74-2.73l-1.38-6.34a25.28,25.28,0,0,1,2.31,2c2,1.79,3.5,3.2,6.81,3.2s4.85-1.41,6.8-3.2c2.17-2,4.63-4.24,9.45-4.24s7.28,2.25,9.45,4.24c1.95,1.79,3.5,3.2,6.8,3.2s4.85-1.41,6.81-3.2c2.16-2,4.62-4.24,9.44-4.24s7.28,2.25,9.45,4.24c2,1.79,3.5,3.2,6.81,3.2s4.85-1.41,6.8-3.2c2.17-2,4.63-4.24,9.45-4.24s7.28,2.25,9.45,4.24c2,1.79,3.5,3.2,6.81,3.2a7.89,7.89,0,0,0,3.37-.67V722.4a12.57,12.57,0,0,1-3.37.44c-4.83,0-7.28-2.25-9.45-4.24-2-1.79-3.5-3.2-6.81-3.2s-4.85,1.41-6.8,3.2c-2.17,2-4.63,4.24-9.45,4.24s-7.28-2.25-9.45-4.24c-2-1.79-3.5-3.2-6.81-3.2s-4.84,1.41-6.8,3.2c-2.17,2-4.63,4.24-9.45,4.24s-7.28-2.25-9.45-4.24c-1.95-1.79-3.5-3.2-6.8-3.2s-4.85,1.41-6.81,3.2c-2.16,2-4.62,4.24-9.44,4.24s-7.28-2.25-9.45-4.24l-.75-.68.07-4.83a20.35,20.35,0,0,1,3.32,2.63c2,1.79,3.5,3.2,6.81,3.2s4.85-1.41,6.8-3.2c2.17-2,4.63-4.23,9.45-4.23s7.28,2.24,9.45,4.23c1.95,1.79,3.5,3.2,6.8,3.2s4.85-1.41,6.81-3.2c2.16-2,4.62-4.23,9.44-4.23s7.28,2.24,9.45,4.23c2,1.79,3.5,3.2,6.81,3.2s4.85-1.41,6.8-3.2c2.17-2,4.63-4.23,9.45-4.23s7.28,2.24,9.45,4.23c2,1.79,3.5,3.2,6.81,3.2a7.89,7.89,0,0,0,3.37-.67v-12.8a12.57,12.57,0,0,1-3.37.44c-4.83,0-7.28-2.25-9.45-4.23-1.54-1.41-2.84-2.58-4.93-3l-10.44,10.44L229.94,707l8.15-8.15a11.11,11.11,0,0,0-4.27,2.85c-2.17,2-4.63,4.23-9.45,4.23s-7.28-2.25-9.45-4.23c-2-1.8-3.5-3.21-6.81-3.21s-4.84,1.41-6.8,3.21c-2.17,2-4.63,4.23-9.45,4.23s-7.28-2.25-9.45-4.23c-1.95-1.8-3.5-3.21-6.8-3.21s-4.85,1.41-6.81,3.21c-2.16,2-4.62,4.23-9.44,4.23a12.15,12.15,0,0,1-8.86-3.7l1-4.39c.37.32.73.65,1.08,1,2,1.79,3.5,3.21,6.81,3.21s4.85-1.42,6.8-3.21c2.17-2,4.63-4.23,9.45-4.23s7.28,2.25,9.45,4.23c1.95,1.79,3.5,3.21,6.8,3.21s4.85-1.42,6.81-3.21c2.16-2,4.62-4.23,9.44-4.23s7.28,2.25,9.45,4.23c2,1.79,3.5,3.21,6.81,3.21s4.85-1.42,6.8-3.21c2.17-2,4.63-4.23,9.45-4.23a12.4,12.4,0,0,1,1.65.1l7.76-7.77a23.65,23.65,0,0,1-2.6-2.16c-2-1.79-3.5-3.21-6.81-3.21s-4.85,1.42-6.8,3.21c-2.17,2-4.63,4.23-9.45,4.23s-7.28-2.25-9.45-4.23c-2-1.79-3.5-3.21-6.81-3.21s-4.84,1.42-6.8,3.21c-2.17,2-4.63,4.23-9.45,4.23s-7.28-2.25-9.45-4.23c-1.95-1.79-3.5-3.21-6.8-3.21s-4.85,1.42-6.81,3.21c-2.16,2-4.62,4.23-9.44,4.23a12,12,0,0,1-4.72-.89l1.54-3.59a8.22,8.22,0,0,0,3.18.57c3.3,0,4.85-1.41,6.8-3.21,2.17-2,4.63-4.23,9.45-4.23s7.28,2.25,9.45,4.23c1.95,1.8,3.5,3.21,6.8,3.21s4.85-1.41,6.81-3.21c2.16-2,4.62-4.23,9.44-4.23s7.28,2.25,9.45,4.23c2,1.8,3.5,3.21,6.81,3.21s4.85-1.41,6.8-3.21c2.17-2,4.63-4.23,9.45-4.23s7.28,2.25,9.45,4.23a16.51,16.51,0,0,0,2.8,2.22l7.38-7.39v-5.09a12.6,12.6,0,0,1-3.37.43c-4.83,0-7.28-2.24-9.45-4.23-2-1.79-3.5-3.2-6.81-3.2s-4.85,1.41-6.8,3.2c-2.17,2-4.63,4.23-9.45,4.23s-7.28-2.24-9.45-4.23c-2-1.79-3.5-3.2-6.81-3.2s-4.84,1.41-6.8,3.2c-2.17,2-4.63,4.23-9.45,4.23s-7.28-2.24-9.45-4.23c-1.95-1.79-3.5-3.2-6.8-3.2s-4.85,1.41-6.81,3.2a16.33,16.33,0,0,1-4.72,3.34l9-10.23a12.78,12.78,0,0,1,2.49-.23c4.82,0,7.28,2.25,9.45,4.24,1.95,1.79,3.5,3.2,6.8,3.2s4.85-1.41,6.81-3.2c2.16-2,4.62-4.24,9.44-4.24s7.28,2.25,9.45,4.24c2,1.79,3.5,3.2,6.81,3.2s4.85-1.41,6.8-3.2c2.17-2,4.63-4.24,9.45-4.24s7.28,2.25,9.45,4.24c2,1.79,3.5,3.2,6.81,3.2a7.89,7.89,0,0,0,3.37-.67v-12.8a12.57,12.57,0,0,1-3.37.44c-4.83,0-7.28-2.25-9.45-4.23-2-1.8-3.5-3.21-6.81-3.21s-4.85,1.41-6.8,3.21c-2.17,2-4.63,4.23-9.45,4.23s-7.28-2.25-9.45-4.23c-2-1.8-3.5-3.21-6.81-3.21s-4.84,1.41-6.8,3.21c-2.17,2-4.63,4.23-9.45,4.23a11.66,11.66,0,0,1-7.82-2.8l3.61-2.22a7.66,7.66,0,0,0,4.21,1.11c3.3,0,4.85-1.42,6.81-3.21,2.16-2,4.62-4.23,9.44-4.23s7.28,2.25,9.45,4.23c2,1.79,3.5,3.21,6.81,3.21s4.85-1.42,6.8-3.21c2.17-2,4.63-4.23,9.45-4.23s7.28,2.25,9.45,4.23c2,1.79,3.5,3.21,6.81,3.21a7.88,7.88,0,0,0,3.37-.68V645a94.56,94.56,0,0,0-31.34-5.28c-45.44,0-80.41,31.55-80.41,76.17S185.5,795,230.94,795a84.87,84.87,0,0,0,33.84-6.94c-.23-.3-.45-.59-.66-.9A11.46,11.46,0,0,1,256.88,789.53Z" style="fill:#ececec"/><polygon points="284.83 693.36 284.83 718.36 417.82 718.36 417.84 718.36 417.84 693.36 417.82 693.36 284.83 693.36" style="fill:#ececec"/><polygon points="18.76 216.52 14.33 216.52 14.33 247.52 32.5 247.52 32.5 232.52 24.67 232.52 24.67 231.52 32.5 231.52 32.5 216.52 28.57 216.52 18.76 216.52" style="fill:#ececec"/><polygon points="14.33 279.52 32.5 279.52 32.5 264.52 24.67 264.52 24.67 263.52 32.5 263.52 32.5 248.52 14.33 248.52 14.33 279.52" style="fill:#ececec"/><polygon points="14.33 343.52 32.5 343.52 32.5 328.52 24.67 328.52 24.67 327.52 32.5 327.52 32.5 312.52 14.33 312.52 14.33 343.52" style="fill:#ececec"/><polygon points="14.33 375.52 32.5 375.52 32.5 360.52 24.67 360.52 24.67 359.52 32.5 359.52 32.5 344.52 14.33 344.52 14.33 375.52" style="fill:#ececec"/><polygon points="14.33 439.52 32.5 439.52 32.5 424.52 24.67 424.52 24.67 423.52 32.5 423.52 32.5 408.52 14.33 408.52 14.33 439.52" style="fill:#ececec"/><polygon points="14.33 311.52 32.5 311.52 32.5 296.52 24.67 296.52 24.67 295.52 32.5 295.52 32.5 280.52 14.33 280.52 14.33 311.52" style="fill:#ececec"/><polygon points="32.5 215.52 32.5 211.81 29.4 215.52 32.5 215.52" style="fill:#ececec"/><polygon points="14.33 407.52 32.5 407.52 32.5 392.52 24.67 392.52 24.67 391.52 32.5 391.52 32.5 376.52 14.33 376.52 14.33 407.52" style="fill:#ececec"/><path d="M275.67,159.69H297v81H441.25a4.75,4.75,0,0,1,9.5,0h44.06a42.69,42.69,0,0,1,30.67-49c-15.5-26-31.51-49.75-45.83-68.22-25.5-32.87-58.95-64.93-91.77-87.94q-4.08-2.85-8.06-5.46A206,206,0,0,0,271.27,74.57a208.79,208.79,0,0,0-55.46,67.79h59.86ZM384.16,79.57l93.5,114.5-2.32,1.9-93.5-114.5ZM339.75,196.86a4.75,4.75,0,1,1-4.75,4.75A4.75,4.75,0,0,1,339.75,196.86Z" style="fill:#ececec"/><path d="M260.25,587.69H46.17a21.88,21.88,0,0,1-2.94-.2,18.34,18.34,0,0,0,11.27,3.87H260.25Z" style="fill:#ececec"/><path d="M223.53,566.48H152.39C188.56,566.5,223.54,566.51,223.53,566.48Z" style="fill:#ececec"/><path d="M76.5,562.69H260.25v-19a21.19,21.19,0,0,1,.31-3.5H56.25v22.52Z" style="fill:#ececec"/><polygon points="14.33 214.52 14.33 215.52 19.8 215.52 32.5 203.33 32.5 197.86 32.5 197.86 31.69 197.86 14.33 214.52" style="fill:#ececec"/><polygon points="28.1 215.52 32.5 210.24 32.5 204.72 21.24 215.52 28.1 215.52" style="fill:#ececec"/><path d="M256.88,702a7.88,7.88,0,0,0,3.37-.68V688.51a12.6,12.6,0,0,1-3.37.43,12,12,0,0,1-4-.65l-7.26,7.27a16.86,16.86,0,0,1,4.48,3.21C252,700.56,253.57,702,256.88,702Z" style="fill:#ececec"/><rect x="48.67" y="540.17" width="4.58" height="22.52" style="fill:#ececec"/><polygon points="14.33 537.17 32.5 537.17 32.5 520.52 24.67 520.52 24.67 519.52 32.5 519.52 32.5 504.52 14.33 504.52 14.33 537.17" style="fill:#ececec"/><polygon points="14.33 471.52 32.5 471.52 32.5 456.52 24.67 456.52 24.67 455.52 32.5 455.52 32.5 440.52 14.33 440.52 14.33 471.52" style="fill:#ececec"/><path d="M496.87,517.35V507.8a62.83,62.83,0,0,0-49.95,48.87h8.51v6h39l11.88-22.19V517.35Z" style="fill:#ececec"/><rect x="297" y="265.69" width="209.33" height="2.79" style="fill:#ececec"/><circle cx="509.71" cy="601.57" r="7.87" style="fill:#ececec"/><path d="M530.15,572.37l2.4,4.48a18.14,18.14,0,0,0,.45-4v-61l-1.67-.68v54A22.47,22.47,0,0,1,530.15,572.37Z" style="fill:#ececec"/><path d="M260.25,600.65H197.57v1.17a18.52,18.52,0,0,0,18.5,18.5h44.18Z" style="fill:#ececec"/><path d="M302.42,4c-36.6,8.43-32.54,55.3-31,66.65A208.71,208.71,0,0,1,375.84,27.47C345.58,8.29,319.81,0,302.42,4Z" style="fill:#ececec"/><path d="M256.88,685a7.74,7.74,0,0,0,3.37-.68v-3.46l-4.1,4.1C256.39,685,256.62,685,256.88,685Z" style="fill:#ececec"/><path d="M531.33,504.51H533V266.86a18.32,18.32,0,0,0-2.29-8.9,22.55,22.55,0,0,1,.62,5.23Z" style="fill:#ececec"/><polygon points="25.57 197.86 14.33 208.64 14.33 213.13 30.25 197.86 25.57 197.86" style="fill:#ececec"/><path d="M526.1,248.78a21.5,21.5,0,0,1,9.9,18.08v5.81l.88,0a39.9,39.9,0,1,0-39-32h11A22.47,22.47,0,0,1,526.1,248.78Z" style="fill:#ececec"/><polygon points="18.65 197.86 14.33 202 14.33 207.25 24.12 197.86 18.65 197.86" style="fill:#ececec"/><polygon points="14.33 503.52 32.5 503.52 32.5 488.52 24.67 488.52 24.67 487.52 32.5 487.52 32.5 472.52 14.33 472.52 14.33 503.52" style="fill:#ececec"/><path d="M206.29,149.23a39.64,39.64,0,0,0-26.85,10.46h53.7A39.62,39.62,0,0,0,206.29,149.23Z" style="fill:#ececec"/><path d="M533,507.51h-1.67v.5l1.67.65Z" style="fill:#ececec"/><polygon points="14.33 197.86 14.33 200.61 17.2 197.86 14.33 197.86" style="fill:#ececec"/><polygon points="33.5 197.86 33.5 203.76 33.5 215.52 48.5 215.52 48.5 207.81 49.5 207.81 49.5 215.52 64.5 215.52 64.5 197.86 65.5 197.86 65.5 215.52 80.5 215.52 80.5 207.81 81.5 207.81 81.5 215.52 96.5 215.52 96.5 197.86 97.5 197.86 97.5 215.52 112.5 215.52 112.5 207.81 113.5 207.81 113.5 215.52 128.5 215.52 128.5 197.86 129.5 197.86 129.5 215.52 144.5 215.52 144.5 207.81 145.5 207.81 145.5 215.52 160.5 215.52 160.5 197.86 161.5 197.86 161.5 215.52 176.5 215.52 176.5 207.81 177.5 207.81 177.5 215.52 192.5 215.52 192.5 197.86 193.5 197.86 193.5 215.52 208.5 215.52 208.5 207.81 209.5 207.81 209.5 215.52 224.5 215.52 224.5 197.86 225.5 197.86 225.5 215.52 240.5 215.52 240.5 207.81 241.5 207.81 241.5 215.52 256.5 215.52 256.5 197.86 257.5 197.86 257.5 215.52 275.25 215.52 275.25 207.81 276.25 207.81 276.25 215.52 294 215.52 294 197.86 33.5 197.86 33.5 197.86" style="fill:#ececec"/><rect x="297" y="343.36" width="7.5" height="46" style="fill:#ececec"/><path d="M590.12,333.37A213,213,0,0,1,536,400.77V433c18.07,3.57,35,4.23,46.11-4.56,10.77-8.56,15.75-25.52,15.22-51.86C597.08,363.83,594.48,349.18,590.12,333.37Z" style="fill:#ececec"/><path d="M588.9,329.08c-5.82-20-14.32-41.63-24.39-63.55a42.59,42.59,0,0,1-27.63,10.16l-.88,0V396.86A209.66,209.66,0,0,0,588.9,329.08Z" style="fill:#ececec"/><rect x="382.33" y="343.36" width="46" height="46" style="fill:#ececec"/><path d="M214.31,145.36c-.25.5-.51,1-.75,1.49a42.81,42.81,0,0,1,23.84,12.84h35.27V145.36Z" style="fill:#ececec"/><path d="M610.11,237.55c0-115-93.58-208.61-208.61-208.61-5.65,0-11.26.23-16.83.66,34.5,23.23,70.45,57.32,97.35,92,14.53,18.74,30.78,42.87,46.49,69.33a43.51,43.51,0,0,1,8.37-.82,42.76,42.76,0,0,1,29.93,73.33c9.76,21.18,18.09,42.16,24,61.65A207.27,207.27,0,0,0,610.11,237.55Z" style="fill:#ececec"/><polygon points="481.07 587.69 404.5 587.69 404.5 591.36 479.11 591.36 481.07 587.69" style="fill:#ececec"/><path d="M529.33,636.28v0H490.1v0l-1.13.07c-.16,0-4,.31-4,2.84s3.47,3.35,3.62,3.38l1.23.23h39.72v0l1.24-.22c.14,0,3.62-.7,3.62-3.38s-3.94-2.83-4-2.84Z" style="fill:#ececec"/><polygon points="489.86 657.69 506.71 657.69 512.71 657.69 529.57 657.69 529.57 645.82 489.86 645.82 489.86 657.69" style="fill:#ececec"/><path d="M383,525.17H281.75c-10.2,0-18.5,8.59-18.5,19.16v13.84H401.5V544.33C401.5,533.76,393.2,525.17,383,525.17Zm-27.08,23.5H309.25a6.5,6.5,0,0,1,0-13h46.67a6.5,6.5,0,0,1,0,13Z" style="fill:#ececec"/><path d="M511.21,590.81a10.87,10.87,0,1,1-3,0v-47.4l-30.43,56.78a37.11,37.11,0,0,1,10.39,13c3.77,7.53,3.06,16.34,2.5,20.12h38.08c-.56-3.78-1.27-12.59,2.5-20.12a37.23,37.23,0,0,1,10.39-13l-30.43-56.78Z" style="fill:#ececec"/><path d="M404.5,562.69h28.25v-6h11.11a65.85,65.85,0,0,1,42.57-49.16H450.69a9.07,9.07,0,1,1,.2-3h46v-9.84h9.46V271.48H297v68.88h10.5v52H297V522.17h86a21.52,21.52,0,0,1,21.5,21.5Zm36.75-203.54H471.5v3H441.25Zm0,19H488.5v3H441.25Zm0,11.25H488.5v3H441.25Zm-61.92-49h52v52h-52Zm-61.91,18.79h30.25v3H317.42Zm0,19h47.25v3H317.42Zm0,11.25h47.25v3H317.42Zm-20,28.12H431.71v3H297.38Zm0,35.34h191.5v3H297.38Zm0,21.66v-3h191.5v3Z" style="fill:#ececec"/><circle cx="333.16" cy="773.07" r="10.5" style="fill:#ececec"/><path d="M310.83,605.93A13.84,13.84,0,1,0,297,592.09,13.86,13.86,0,0,0,310.83,605.93Z" style="fill:#ececec"/><path d="M184.85,146.23a4.69,4.69,0,0,1-9.38,0,4.93,4.93,0,0,1,.09-.87H3V515h8.33V159.69H175.19a42.69,42.69,0,0,1,31.1-13.46c1.4,0,2.78.08,4.15.21.17-.36.36-.72.54-1.08H184.76A4.93,4.93,0,0,1,184.85,146.23Z" style="fill:#ececec"/><path d="M263.25,753.17v21.75a18.52,18.52,0,0,0,18.5,18.5H383a18.52,18.52,0,0,0,18.5-18.5V753.17Zm69.91,6.4a13.5,13.5,0,1,1-13.5,13.5A13.52,13.52,0,0,1,333.16,759.57Z" style="fill:#ececec"/><polygon points="331.87 639.61 368.27 661.23 366.73 663.81 310.65 630.49 263.25 677.89 263.25 750.17 401.5 750.17 401.5 721.36 281.83 721.36 281.83 690.36 401.5 690.36 401.5 643.7 362.49 605.48 331.87 639.61" style="fill:#ececec"/><path d="M263.25,673.65l46.93-46.93,19.06,11.33,33.11-36.9L401.5,639.5V561.17H263.25Zm47.58-98.39A16.84,16.84,0,1,1,294,592.09,16.85,16.85,0,0,1,310.83,575.26Z" style="fill:#ececec"/><path d="M355.92,538.67H309.25a3.5,3.5,0,0,0,0,7h46.67a3.5,3.5,0,0,0,0-7Z" style="fill:#ececec"/><path d="M281.75,522.17H294V216.52H33.5V537.17H261.26A21.53,21.53,0,0,1,281.75,522.17Zm-93.5-41.67a72,72,0,0,1-72-72c0-1,0-2,.08-3a72,72,0,1,1,92.67-69c0,1,0,2-.08,3a72,72,0,0,1-20.67,141Z" style="fill:#ececec"/><path d="M592.09,329.43a210.31,210.31,0,0,0,21-91.88c0-116.68-94.93-211.61-211.61-211.61q-10.51,0-20.84,1C350.56,7.36,321.9-3.58,301.75,1.06c-18.41,4.24-29.92,18.22-33.3,40.43a105.92,105.92,0,0,0,.26,31.31,211.55,211.55,0,0,0-56.25,69.56h3.35a208.79,208.79,0,0,1,55.46-67.79A206,206,0,0,1,379.82,30q4,2.61,8.06,5.46c32.82,23,66.27,55.07,91.77,87.94,14.32,18.47,30.33,42.2,45.83,68.22a42.69,42.69,0,0,0-30.67,49h3.06a39.78,39.78,0,1,1,39,32l-.88,0v-5.81a21.55,21.55,0,0,0-21.5-21.5H297V159.69H237.4a42.81,42.81,0,0,0-23.84-12.84c.24-.5.5-1,.75-1.49H211c-.18.36-.37.72-.54,1.08-1.37-.13-2.75-.21-4.15-.21a42.69,42.69,0,0,0-31.1,13.46H11.33V540.17H33v32.69a21.57,21.57,0,0,0,21.5,21.5H260.25v3.29H194.57v4.17a21.53,21.53,0,0,0,21.5,21.5h44.18v27.14a7.88,7.88,0,0,1-3.37.68c-3.31,0-4.85-1.42-6.81-3.21-2.17-2-4.62-4.23-9.45-4.23s-7.28,2.25-9.45,4.23c-1.95,1.79-3.5,3.21-6.8,3.21s-4.85-1.42-6.81-3.21c-2.17-2-4.62-4.23-9.45-4.23s-7.28,2.25-9.44,4.23c-2,1.79-3.51,3.21-6.81,3.21a7.66,7.66,0,0,1-4.21-1.11L184,652.25a11.66,11.66,0,0,0,7.82,2.8c4.82,0,7.28-2.25,9.45-4.23,2-1.8,3.5-3.21,6.8-3.21s4.85,1.41,6.81,3.21c2.17,2,4.62,4.23,9.45,4.23s7.28-2.25,9.45-4.23c2-1.8,3.5-3.21,6.8-3.21s4.85,1.41,6.81,3.21c2.17,2,4.62,4.23,9.45,4.23a12.57,12.57,0,0,0,3.37-.44v12.8a7.89,7.89,0,0,1-3.37.67c-3.31,0-4.85-1.41-6.81-3.2-2.17-2-4.62-4.24-9.45-4.24s-7.28,2.25-9.45,4.24c-1.95,1.79-3.5,3.2-6.8,3.2s-4.85-1.41-6.81-3.2c-2.17-2-4.62-4.24-9.45-4.24s-7.28,2.25-9.44,4.24c-2,1.79-3.51,3.2-6.81,3.2s-4.85-1.41-6.8-3.2c-2.17-2-4.63-4.24-9.45-4.24a12.78,12.78,0,0,0-2.49.23l-9,10.23a16.33,16.33,0,0,0,4.72-3.34c2-1.79,3.51-3.2,6.81-3.2s4.85,1.41,6.8,3.2c2.17,2,4.63,4.23,9.45,4.23s7.28-2.24,9.45-4.23c2-1.79,3.5-3.2,6.8-3.2s4.85,1.41,6.81,3.2c2.17,2,4.62,4.23,9.45,4.23s7.28-2.24,9.45-4.23c2-1.79,3.5-3.2,6.8-3.2s4.85,1.41,6.81,3.2c2.17,2,4.62,4.23,9.45,4.23a12.6,12.6,0,0,0,3.37-.43v5.09L252.87,684a16.51,16.51,0,0,1-2.8-2.22c-2.17-2-4.62-4.23-9.45-4.23s-7.28,2.25-9.45,4.23c-1.95,1.8-3.5,3.21-6.8,3.21s-4.85-1.41-6.81-3.21c-2.17-2-4.62-4.23-9.45-4.23s-7.28,2.25-9.44,4.23c-2,1.8-3.51,3.21-6.81,3.21s-4.85-1.41-6.8-3.21c-2.17-2-4.63-4.23-9.45-4.23s-7.28,2.25-9.45,4.23c-1.95,1.8-3.5,3.21-6.8,3.21a8.22,8.22,0,0,1-3.18-.57l-1.54,3.59a12,12,0,0,0,4.72.89c4.82,0,7.28-2.25,9.44-4.23,2-1.79,3.51-3.21,6.81-3.21s4.85,1.42,6.8,3.21c2.17,2,4.63,4.23,9.45,4.23s7.28-2.25,9.45-4.23c2-1.79,3.5-3.21,6.8-3.21s4.85,1.42,6.81,3.21c2.17,2,4.62,4.23,9.45,4.23s7.28-2.25,9.45-4.23c2-1.79,3.5-3.21,6.8-3.21s4.85,1.42,6.81,3.21a23.65,23.65,0,0,0,2.6,2.16l-7.76,7.77-4.18,4.17L229.94,707l2.12,2.12,10.44-10.44,3.09-3.08,7.26-7.27a12,12,0,0,0,4,.65,12.6,12.6,0,0,0,3.37-.43v29.74a7.89,7.89,0,0,1-3.37.67c-3.31,0-4.85-1.41-6.81-3.2-2.17-2-4.62-4.23-9.45-4.23s-7.28,2.24-9.45,4.23c-1.95,1.79-3.5,3.2-6.8,3.2s-4.85-1.41-6.81-3.2c-2.17-2-4.62-4.23-9.45-4.23s-7.28,2.24-9.44,4.23c-2,1.79-3.51,3.2-6.81,3.2s-4.85-1.41-6.8-3.2c-2.17-2-4.63-4.23-9.45-4.23s-7.28,2.24-9.45,4.23c-1.95,1.79-3.5,3.2-6.8,3.2s-4.85-1.41-6.81-3.2a20.35,20.35,0,0,0-3.32-2.63l-.07,4.83.75.68c2.17,2,4.62,4.24,9.45,4.24s7.28-2.25,9.44-4.24c2-1.79,3.51-3.2,6.81-3.2s4.85,1.41,6.8,3.2c2.17,2,4.63,4.24,9.45,4.24s7.28-2.25,9.45-4.24c2-1.79,3.5-3.2,6.8-3.2s4.85,1.41,6.81,3.2c2.17,2,4.62,4.24,9.45,4.24s7.28-2.25,9.45-4.24c2-1.79,3.5-3.2,6.8-3.2s4.85,1.41,6.81,3.2c2.17,2,4.62,4.24,9.45,4.24a12.57,12.57,0,0,0,3.37-.44v11.71a7.89,7.89,0,0,1-3.37.67c-3.31,0-4.85-1.41-6.81-3.2-2.17-2-4.62-4.24-9.45-4.24s-7.28,2.25-9.45,4.24c-1.95,1.79-3.5,3.2-6.8,3.2s-4.85-1.41-6.81-3.2c-2.17-2-4.62-4.24-9.45-4.24s-7.28,2.25-9.44,4.24c-2,1.79-3.51,3.2-6.81,3.2s-4.85-1.41-6.8-3.2c-2.17-2-4.63-4.24-9.45-4.24s-7.28,2.25-9.45,4.24c-1.95,1.79-3.5,3.2-6.8,3.2s-4.85-1.41-6.81-3.2a25.28,25.28,0,0,0-2.31-2l1.38,6.34a11.57,11.57,0,0,0,7.74,2.73c4.82,0,7.28-2.24,9.44-4.23,2-1.79,3.51-3.2,6.81-3.2s4.85,1.41,6.8,3.2c2.17,2,4.63,4.23,9.45,4.23s7.28-2.24,9.45-4.23c2-1.79,3.5-3.2,6.8-3.2s4.85,1.41,6.81,3.2c2.17,2,4.62,4.23,9.45,4.23s7.28-2.24,9.45-4.23c2-1.79,3.5-3.2,6.8-3.2s4.85,1.41,6.81,3.2c2.17,2,4.62,4.23,9.45,4.23a12.6,12.6,0,0,0,3.37-.43v12.79a7.74,7.74,0,0,1-3.37.68c-3.31,0-4.85-1.42-6.81-3.21-2.17-2-4.62-4.23-9.45-4.23s-7.28,2.25-9.45,4.23c-1.95,1.79-3.5,3.21-6.8,3.21s-4.85-1.42-6.81-3.21c-2.17-2-4.62-4.23-9.45-4.23s-7.28,2.25-9.44,4.23c-2,1.79-3.51,3.21-6.81,3.21s-4.85-1.41-6.8-3.21c-2.17-2-4.63-4.23-9.45-4.23s-7.28,2.25-9.45,4.23c-1.95,1.79-3.5,3.21-6.8,3.21a9.09,9.09,0,0,1-1.82-.17l2.25,4.07c4.54-.12,6.91-2.3,9-4.22s3.51-3.21,6.81-3.21,4.85,1.42,6.8,3.21c2.17,2,4.63,4.23,9.45,4.23s7.28-2.25,9.45-4.23c2-1.79,3.5-3.21,6.8-3.21s4.85,1.42,6.81,3.21c2.17,2,4.62,4.23,9.45,4.23s7.28-2.25,9.45-4.23c2-1.79,3.5-3.21,6.8-3.21s4.85,1.42,6.81,3.21c2.17,2,4.62,4.23,9.45,4.23a12.18,12.18,0,0,0,3.37-.44V768a7.88,7.88,0,0,1-3.37.68c-3.31,0-4.85-1.42-6.81-3.21-2.17-2-4.62-4.23-9.45-4.23s-7.28,2.25-9.45,4.23c-1.95,1.79-3.5,3.21-6.8,3.21s-4.85-1.42-6.81-3.21c-2.17-2-4.62-4.23-9.45-4.23s-7.28,2.25-9.44,4.23c-2,1.79-3.51,3.21-6.81,3.21s-4.85-1.42-6.8-3.21c-2.17-2-4.63-4.23-9.45-4.23-4.6,0-7.05,2-9.15,4l2.55,3c1.86-1.7,3.42-3,6.6-3s4.85,1.41,6.8,3.21c2.17,2,4.63,4.23,9.45,4.23s7.28-2.25,9.45-4.23c2-1.8,3.5-3.21,6.8-3.21s4.85,1.41,6.81,3.21c2.17,2,4.62,4.23,9.45,4.23s7.28-2.25,9.45-4.23c2-1.8,3.5-3.21,6.8-3.21s4.85,1.41,6.81,3.21c2.17,2,4.62,4.23,9.45,4.23a12.57,12.57,0,0,0,3.37-.44v2.77a21.33,21.33,0,0,0,1.92,8.82,7.77,7.77,0,0,1-5.29,1.88c-3.31,0-4.85-1.41-6.81-3.2-2.17-2-4.62-4.23-9.45-4.23s-7.28,2.24-9.45,4.23c-1.95,1.79-3.5,3.2-6.8,3.2s-4.85-1.41-6.81-3.2c-2.17-2-4.62-4.23-9.45-4.23s-7.28,2.24-9.44,4.23c-1.89,1.73-3.4,3.11-6.48,3.2l5.55,2.45a19.22,19.22,0,0,0,3.57-2.77c2-1.79,3.5-3.2,6.8-3.2s4.85,1.41,6.81,3.2c2.17,2,4.62,4.23,9.45,4.23s7.28-2.24,9.45-4.23c2-1.79,3.5-3.2,6.8-3.2s4.85,1.41,6.81,3.2c2.17,2,4.62,4.23,9.45,4.23a11.46,11.46,0,0,0,7.24-2.35c.21.31.43.6.66.9a21.47,21.47,0,0,0,17,8.34H383a21.53,21.53,0,0,0,21.13-17.58l.15-1a21.7,21.7,0,0,0,.22-2.92V721.36h13.32v-3h-133v-25h133v-3H404.5V646.64l26.29,25.74,2.1-2.14-28.39-27.8V594.36h73l-3.66,6.83,1.21.74c.06,0,6,3.75,10.44,12.6,3.6,7.19,2.59,16,2.11,19-2.4.48-5.6,2-5.6,5.67,0,3.44,2.72,5.26,4.86,6v15.5h45.71v-15.5c2.13-.74,4.86-2.56,4.86-6,0-3.63-3.2-5.19-5.61-5.67-.48-2.95-1.49-11.78,2.11-19,4.4-8.79,10.39-12.57,10.45-12.6l1.2-.74-11-20.62a21.27,21.27,0,0,0,1.46-7.71V513.3a62.84,62.84,0,0,1,33.5,43.37H561v22.68h22.68V556.67H572.56A65.85,65.85,0,0,0,536,510v-2.46h28a9.07,9.07,0,1,0-.2-3H536V436a116.1,116.1,0,0,0,21.69,2.41c10.14,0,19.23-2.08,26.28-7.68,11.56-9.18,16.91-26.93,16.36-54.27C600.06,362.72,597.07,346.71,592.09,329.43ZM271.43,70.64c-1.55-11.35-5.61-58.22,31-66.65,17.39-4,43.16,4.3,73.42,23.48A208.71,208.71,0,0,0,271.43,70.64ZM260.25,684.35a7.74,7.74,0,0,1-3.37.68c-.26,0-.49,0-.73,0l4.1-4.1ZM297,265.69V248.36H514.5a18.52,18.52,0,0,1,18.5,18.5V504.51H519.55v-9.84h-5.3V268.48H297ZM506.33,540.5l-11.88,22.19-2,3.79h-37v-9.81h-8.51a62.83,62.83,0,0,1,49.95-48.87v9.55h14.38v19.71l-1.54-2.87Zm11.26,61.07a7.88,7.88,0,1,1-7.88-7.88A7.88,7.88,0,0,1,517.59,601.57Zm-65.16-41.9v16.68H435.75V559.67Zm47.44-45.32V497.67h16.68v16.68Zm14.38,3h5.3V507.8a62.09,62.09,0,0,1,11.78,3.41l1.67.68v61a18.14,18.14,0,0,1-.45,4l-2.4-4.48-15.9-29.71ZM531.33,508l-1.34-.5h3v1.15ZM297,343.36h7.5v46H297ZM246.33,178.52H281v3H246.33Zm-40-29.29a39.62,39.62,0,0,1,26.85,10.46h-53.7A39.64,39.64,0,0,1,206.29,149.23ZM294,197.86v17.66H276.25v-7.7h-1v7.7H257.5V197.86h-1v17.66h-15v-7.7h-1v7.7h-15V197.86h-1v17.66h-15v-7.7h-1v7.7h-15V197.86h-1v17.66h-15v-7.7h-1v7.7h-15V197.86h-1v17.66h-15v-7.7h-1v7.7h-15V197.86h-1v17.66h-15v-7.7h-1v7.7h-15V197.86h-1v17.66h-15v-7.7h-1v7.7h-15V197.86h-1v17.66h-15v-7.7h-1v7.7h-15V197.86H294Zm-279.67,0H17.2l-2.87,2.75Zm0,4.14,4.32-4.14h5.47l-9.79,9.39Zm0,6.64,11.24-10.78h4.68L14.33,213.13ZM32.5,519.52H24.67v1H32.5v16.65H14.33V504.52H32.5Zm0-32H24.67v1H32.5v15H14.33v-31H32.5Zm0-32H24.67v1H32.5v15H14.33v-31H32.5Zm0-32H24.67v1H32.5v15H14.33v-31H32.5Zm0-32H24.67v1H32.5v15H14.33v-31H32.5Zm0-32H24.67v1H32.5v15H14.33v-31H32.5Zm0-32H24.67v1H32.5v15H14.33v-31H32.5Zm0-32H24.67v1H32.5v15H14.33v-31H32.5Zm0-32H24.67v1H32.5v15H14.33v-31H32.5Zm0-32H24.67v1H32.5v15H14.33v-31H32.5Zm0-16H29.4l3.1-3.71Zm0-5.28-4.4,5.28H21.24l11.26-10.8Zm0-12.38v5.47L19.8,215.52H14.33v-1l17.36-16.66ZM24.67,189V169.69H44V189Zm8.83,27.5H294V522.17H281.75a21.53,21.53,0,0,0-20.49,15H33.5ZM260.56,540.17a21.19,21.19,0,0,0-.31,3.5v22.81H223.53s-35,0-71.14,0H56.25V540.17ZM54.5,591.36A18.58,18.58,0,0,1,36,572.86V540.17H53.25v29.31h207v21.88Zm161.57,29a18.52,18.52,0,0,1-18.5-18.5v-1.17h62.68v19.67ZM401.5,774.92a18.52,18.52,0,0,1-18.5,18.5H281.75a18.52,18.52,0,0,1-18.5-18.5V753.17H401.5Zm0-84.56H281.83v31H401.5v28.81H263.25V677.89l47.4-47.4,56.08,33.32,1.54-2.58-36.4-21.62,30.62-34.13,39,38.22Zm0-50.86-39.15-38.35-33.11,36.9-19.06-11.33-46.93,46.93V561.17H401.5Zm0-81.33H263.25V544.33c0-10.57,8.3-19.16,18.5-19.16H383c10.2,0,18.5,8.59,18.5,19.16Zm-18.5-36H297V392.36h10.5v-52H297V271.48H506.33v-1.29h4.92V494.67H496.87v9.84h-46a9.13,9.13,0,1,0-.2,3h35.74a65.85,65.85,0,0,0-42.57,49.16H432.75v9.81H404.5V543.67A21.52,21.52,0,0,0,383,522.17Zm64.94-16.73a6.1,6.1,0,1,1-6.1-6.09A6.11,6.11,0,0,1,447.94,505.44ZM404.5,591.36V569.48h28.25v9.87h22.68v-9.87h35.39l-9.75,18.21-2,3.67Zm125.07,66.33H489.86V645.81h39.71Zm4.86-18.5c0,2.68-3.48,3.35-3.62,3.38l-1.24.22v0H489.85l-1.23-.23c-.15,0-3.62-.7-3.62-3.38s3.81-2.83,4-2.84l1.13-.07v0h39.23v0l1.12.07S534.43,636.63,534.43,639.19Zm7.21-39a37.23,37.23,0,0,0-10.39,13c-3.77,7.53-3.06,16.34-2.5,20.12H490.67c.56-3.78,1.27-12.59-2.5-20.12a37.11,37.11,0,0,0-10.39-13l30.43-56.78v47.4a10.88,10.88,0,1,0,3,0v-47.4Zm39-40.52v16.68H564V559.67Zm-7.84-60.32a6.1,6.1,0,1,1-6.09,6.09A6.1,6.1,0,0,1,572.84,499.35Zm6.83-266.45a42.84,42.84,0,0,0-42.79-42.79,43.51,43.51,0,0,0-8.37.82c-15.71-26.46-32-50.59-46.49-69.33-26.9-34.68-62.85-68.77-97.35-92,5.57-.43,11.18-.66,16.83-.66,115,0,208.61,93.58,208.61,208.61a207.27,207.27,0,0,1-19.3,87.54c-5.91-19.49-14.24-40.47-24-61.65A42.65,42.65,0,0,0,579.67,232.9ZM536,275.67l.88,0a42.59,42.59,0,0,0,27.63-10.16c10.07,21.92,18.57,43.59,24.39,63.55A209.66,209.66,0,0,1,536,396.86Zm46.11,152.74c-11.08,8.79-28,8.13-46.11,4.56v-32.2a213,213,0,0,0,54.12-67.4c4.36,15.81,7,30.46,7.21,43.18C597.86,402.89,592.88,419.85,582.11,428.41Z"/><rect x="428.25" y="63.86" width="3" height="147.83" transform="translate(9.74 302.88) rotate(-39.23)"/><circle cx="178.13" cy="74.15" r="8.38"/><path d="M180.16,141.54a4.61,4.61,0,0,0-2.64.82h5.28A4.61,4.61,0,0,0,180.16,141.54Z"/><path d="M180.16,150.92a4.69,4.69,0,0,0,4.69-4.69,4.93,4.93,0,0,0-.09-.87h-9.2a4.93,4.93,0,0,0-.09.87A4.69,4.69,0,0,0,180.16,150.92Z"/><circle cx="339.75" cy="201.61" r="4.75"/><circle cx="244.75" cy="61.02" r="4.75"/><path d="M446,235.94a4.75,4.75,0,0,0-4.75,4.75h9.5A4.75,4.75,0,0,0,446,235.94Z"/><path d="M231.17,698.77c-1.95,1.79-3.5,3.21-6.8,3.21s-4.85-1.42-6.81-3.21c-2.17-2-4.62-4.23-9.45-4.23s-7.28,2.25-9.44,4.23c-2,1.79-3.51,3.21-6.81,3.21s-4.85-1.42-6.8-3.21c-2.17-2-4.63-4.23-9.45-4.23s-7.28,2.25-9.45,4.23c-1.95,1.79-3.5,3.21-6.8,3.21s-4.85-1.42-6.81-3.21c-.35-.32-.71-.65-1.08-1l-1,4.39a12.15,12.15,0,0,0,8.86,3.7c4.82,0,7.28-2.25,9.44-4.23,2-1.8,3.51-3.21,6.81-3.21s4.85,1.41,6.8,3.21c2.17,2,4.63,4.23,9.45,4.23s7.28-2.25,9.45-4.23c2-1.8,3.5-3.21,6.8-3.21s4.85,1.41,6.81,3.21c2.17,2,4.62,4.23,9.45,4.23s7.28-2.25,9.45-4.23a11.11,11.11,0,0,1,4.27-2.85l4.18-4.17a12.4,12.4,0,0,0-1.65-.1C235.8,694.54,233.34,696.79,231.17,698.77Z" style="fill:#b4c85a"/><path d="M256.88,705.89a12.57,12.57,0,0,0,3.37-.44V701.3a7.88,7.88,0,0,1-3.37.68c-3.31,0-4.85-1.42-6.81-3.21a16.86,16.86,0,0,0-4.48-3.21l-3.09,3.08c2.09.44,3.39,1.61,4.93,3C249.6,703.64,252.05,705.89,256.88,705.89Z" style="fill:#b4c85a"/><rect x="404.5" y="562.69" width="28.25" height="3.79" style="fill:#b4c85a"/><polygon points="455.43 566.48 492.42 566.48 494.45 562.69 455.43 562.69 455.43 566.48" style="fill:#b4c85a"/><polygon points="511.25 494.67 511.25 271.48 511.25 270.19 506.33 270.19 506.33 271.48 506.33 494.67 511.25 494.67" style="fill:#b4c85a"/><polygon points="511.25 517.35 506.33 517.35 506.33 540.5 509.71 534.19 511.25 537.06 511.25 517.35" style="fill:#b4c85a"/><polygon points="56.25 562.69 56.25 566.48 73.57 566.48 76.5 566.48 152.39 566.48 223.53 566.48 260.25 566.48 260.25 562.69 76.5 562.69 56.25 562.69" style="fill:#b4c85a"/><path d="M441.25,240.69H297v4.67H514.5a21.34,21.34,0,0,1,11.6,3.42,22.47,22.47,0,0,0-17.27-8.09H441.25Z" style="fill:#b4c85a"/><path d="M33,540.17H23.67v25A22.55,22.55,0,0,0,37.48,586,21.37,21.37,0,0,1,33,572.86Z" style="fill:#b4c85a"/><path d="M260.25,587.69V569.48h-207v-6.79H48.67V540.17H36v32.69a18.44,18.44,0,0,0,7.23,14.63,21.88,21.88,0,0,0,2.94.2Z" style="fill:#b4c85a"/><polygon points="490.82 569.48 455.43 569.48 455.43 579.35 432.75 579.35 432.75 569.48 404.5 569.48 404.5 587.69 481.07 587.69 490.82 569.48" style="fill:#b4c85a"/><path d="M530,507.51l1.34.5v-.5Z" style="fill:#b4c85a"/><path d="M531.33,565.19v-54a62.09,62.09,0,0,0-11.78-3.41v9.55h-5.3v25.31l15.9,29.71A22.47,22.47,0,0,0,531.33,565.19Z" style="fill:#b4c85a"/><path d="M506.33,268.48h7.92V494.67h5.3v9.84h11.78V263.19a22.55,22.55,0,0,0-.62-5.23,18.5,18.5,0,0,0-16.21-9.6H297v17.33H506.33Z" style="fill:#b4c85a"/><path d="M355.92,535.67H309.25a6.5,6.5,0,0,0,0,13h46.67a6.5,6.5,0,0,0,0-13Zm0,10H309.25a3.5,3.5,0,0,1,0-7h46.67a3.5,3.5,0,0,1,0,7Z"/><path d="M333.16,786.57a13.5,13.5,0,1,0-13.5-13.5A13.51,13.51,0,0,0,333.16,786.57Zm0-24a10.5,10.5,0,1,1-10.5,10.5A10.51,10.51,0,0,1,333.16,762.57Z"/><path d="M310.83,608.93A16.84,16.84,0,1,0,294,592.09,16.85,16.85,0,0,0,310.83,608.93Zm0-30.67A13.84,13.84,0,1,1,297,592.09,13.86,13.86,0,0,1,310.83,578.26Z"/><path d="M417.84,721.35h28v-15h-6.69a7.34,7.34,0,1,1,0-1h6.69v-15h-28v31Z" style="fill:#b4c85a"/><path d="M431.84,700.51a5.34,5.34,0,1,0,5.29,5.84H435.2a3.41,3.41,0,1,1,0-1h1.93A5.33,5.33,0,0,0,431.84,700.51Z" style="fill:#b4c85a"/><path d="M432.17,730v36h36V730h-36Zm28.26,28.22a41,41,0,0,1-.05,5.55H441.23c-.07-2.13-.33-3.85-.23-5.29,0,0-.25-3.17,3.38-5.81,0,0,1.5,2.48,6.12,2.48s6.63-2.48,6.63-2.48A6,6,0,0,1,460.43,758.24Zm-2.43-13a7.5,7.5,0,1,1-7.5-7.5A7.5,7.5,0,0,1,458,745.19Z" style="fill:#b4c85a"/><path d="M431.84,711.19a5.34,5.34,0,1,1,5.29-5.84h2a7.34,7.34,0,1,0,0,1h-2A5.33,5.33,0,0,1,431.84,711.19Z" style="fill:#ececec"/><path d="M431.84,702.44a3.42,3.42,0,1,0,3.36,3.91h-3.36v-1h3.36A3.39,3.39,0,0,0,431.84,702.44Z" style="fill:#ececec"/><polygon points="437.13 705.35 435.2 705.35 431.84 705.35 431.84 706.35 435.2 706.35 437.13 706.35 439.15 706.35 445.84 706.35 453.5 706.35 453.5 730.02 454.5 730.02 454.5 705.35 445.84 705.35 439.15 705.35 437.13 705.35"/><circle cx="450.5" cy="745.19" r="7.5" style="fill:#ececec"/><path d="M450.5,755.17c-4.62,0-6.12-2.48-6.12-2.48-3.63,2.64-3.38,5.81-3.38,5.81-.1,1.44.16,3.16.23,5.29h19.15a41,41,0,0,0,.05-5.55,6,6,0,0,0-3.3-5.55S455.13,755.17,450.5,755.17Z" style="fill:#ececec"/><polygon points="3 515.02 3 145.36 175.56 145.36 184.76 145.36 210.98 145.36 214.31 145.36 272.67 145.36 272.67 159.69 275.67 159.69 275.67 142.36 215.81 142.36 212.46 142.36 182.8 142.36 177.52 142.36 0 142.36 0 518.02 11.33 518.02 11.33 515.02 3 515.02" style="fill:#b4c85a"/><rect x="24.67" y="169.69" width="19.33" height="19.33" style="fill:#ececec"/><rect x="246.33" y="178.52" width="34.67" height="3" style="fill:#ececec"/><path d="M431.33,340.36h-52v52h52Zm-3,49h-46v-46h46Z"/><rect x="441.25" y="389.36" width="47.25" height="3"/><rect x="441.25" y="378.11" width="47.25" height="3"/><rect x="441.25" y="359.15" width="30.25" height="3"/><rect x="317.42" y="389.36" width="47.25" height="3"/><rect x="317.42" y="378.11" width="47.25" height="3"/><rect x="317.42" y="359.15" width="30.25" height="3"/><rect x="297.38" y="417.48" width="134.33" height="3"/><rect x="297.38" y="452.82" width="191.5" height="3"/><rect x="297.38" y="471.48" width="191.5" height="3"/><rect x="435.75" y="559.67" width="16.68" height="16.68" style="fill:#b4c85a"/><rect x="564" y="559.67" width="16.68" height="16.68" style="fill:#b4c85a"/><rect x="499.87" y="497.67" width="16.68" height="16.68" style="fill:#b4c85a"/><path d="M435.75,505.44a6.1,6.1,0,1,0,6.09-6.09A6.1,6.1,0,0,0,435.75,505.44Z" style="fill:#b4c85a"/><path d="M572.84,511.54a6.1,6.1,0,1,0-6.09-6.1A6.11,6.11,0,0,0,572.84,511.54Z" style="fill:#b4c85a"/><path d="M188.25,336.5a72,72,0,0,1,20.67,3c.05-1,.08-2,.08-3a72,72,0,1,0-92.67,69A72,72,0,0,1,188.25,336.5Z" style="fill:#d2e07e"/><path d="M208.92,339.53a72,72,0,0,1-92.59,66c0,1-.08,2-.08,3a72,72,0,1,0,92.67-69Z" style="fill:#d2e07e"/><path d="M208.92,339.53a72,72,0,0,0-92.59,66,72,72,0,0,0,92.59-66Z" style="fill:#b4c85a"/></g></g></svg>