<svg xmlns="http://www.w3.org/2000/svg" viewBox="0 0 613.25 797.23"><title>development_1</title><g id="Шар_2" data-name="Шар 2"><g id="Шар_11" data-name="Шар 11"><path d="M19.53,726.4a3.37,3.37,0,0,0,1.11,2.48L34.2,741.31a4.18,4.18,0,0,0,5.4,0l17.28-15.84a76.8,76.8,0,0,0,21.79,10.41,21.89,21.89,0,0,1-.17-2.57V726a62.55,62.55,0,0,1-18-8.62l-14,14a6.47,6.47,0,0,1-4.59,1.9,6.35,6.35,0,0,1-1.07-.09l-.18.1h-.18l-.14-.21a6.5,6.5,0,0,1-3-1.71L25.39,719.57l-4.75,4.36A3.33,3.33,0,0,0,19.53,726.4Z" style="fill:#ececec"/><path d="M16.27,726.3a1.16,1.16,0,0,0,.08,1.41l.08.1a6,6,0,0,1-.17-1.41S16.27,726.33,16.27,726.3Z" style="fill:#ececec"/><rect x="222.75" y="677.23" width="2.16" height="19" style="fill:#ececec"/><path d="M266.52,668l-8-26.94L233,651.58l7,3.76-3.66,10.83-1.44-.53A96.77,96.77,0,0,1,222.75,660v16.23h33.66l-2-.94L258.87,665Z" style="fill:#ececec"/><rect x="222.75" y="697.23" width="2.16" height="19" style="fill:#ececec"/><path d="M222.75,733.31a21.7,21.7,0,0,1-.22,2.92h2.38v-19h-2.16Z" style="fill:#ececec"/><rect x="225.91" y="737.23" width="19" height="19" style="fill:#ececec"/><rect x="225.91" y="757.23" width="19" height="19" style="fill:#ececec"/><rect x="225.91" y="777.23" width="19" height="19" style="fill:#ececec"/><path d="M201.25,754.81H185.91v1.42h19v-1.67h1v1.67h19v-19h-2.53A21.52,21.52,0,0,1,201.25,754.81Z" style="fill:#ececec"/><rect x="165.91" y="757.23" width="19" height="19" style="fill:#ececec"/><rect x="165.91" y="777.23" width="19" height="19" style="fill:#ececec"/><path d="M219.75,502.72c0-10.57-8.3-19.16-18.5-19.16H100c-10.2,0-18.5,8.59-18.5,19.16v13.84H219.75Zm-45.58,4.34H127.5a6.5,6.5,0,1,1,0-13h46.67a6.5,6.5,0,1,1,0,13Z" style="fill:#ececec"/><rect x="165.91" y="754.81" width="19" height="1.42" style="fill:#ececec"/><rect x="185.91" y="757.23" width="19" height="19" style="fill:#ececec"/><rect x="285.91" y="757.23" width="19" height="19" style="fill:#ececec"/><rect x="205.91" y="757.23" width="19" height="19" style="fill:#ececec"/><rect x="185.91" y="777.23" width="19" height="19" style="fill:#ececec"/><rect x="265.91" y="737.23" width="19" height="19" style="fill:#ececec"/><rect x="265.91" y="697.23" width="19" height="19" style="fill:#ececec"/><rect x="265.91" y="777.23" width="19" height="19" style="fill:#ececec"/><path d="M174.17,497.06H127.5a3.5,3.5,0,1,0,0,7h46.67a3.5,3.5,0,1,0,0-7Z" style="fill:#ececec"/><rect x="265.91" y="757.23" width="19" height="19" style="fill:#ececec"/><rect x="265.91" y="717.23" width="19" height="19" style="fill:#ececec"/><rect x="285.91" y="777.23" width="19" height="19" style="fill:#ececec"/><path d="M275.41,685l-9.5-4.39v15.62h19V686.15c-.8.06-1.58.09-2.31.09A23.24,23.24,0,0,1,275.41,685Z" style="fill:#ececec"/><path d="M265.91,677.68l10.16,4.86a24.34,24.34,0,0,0,8.84.82v-6.13h-19Z" style="fill:#ececec"/><rect x="225.91" y="677.23" width="19" height="19" style="fill:#ececec"/><rect x="245.91" y="777.23" width="19" height="19" style="fill:#ececec"/><polygon points="245.91 677.23 245.91 696.23 264.91 696.23 264.91 680.15 258.58 677.23 245.91 677.23" style="fill:#ececec"/><rect x="225.91" y="697.23" width="19" height="19" style="fill:#ececec"/><rect x="245.91" y="757.23" width="19" height="19" style="fill:#ececec"/><rect x="225.91" y="717.23" width="19" height="19" style="fill:#ececec"/><rect x="245.91" y="737.23" width="19" height="19" style="fill:#ececec"/><rect x="245.91" y="697.23" width="19" height="19" style="fill:#ececec"/><rect x="245.91" y="717.23" width="19" height="19" style="fill:#ececec"/><rect x="205.91" y="777.23" width="19" height="19" style="fill:#ececec"/><polygon points="192.63 151.06 172.13 151.06 172.13 157.56 199.13 157.56 199.13 130.56 192.63 130.56 192.63 151.06" style="fill:#ececec"/><polygon points="253.13 46.56 246.63 46.56 246.63 67.06 226.13 67.06 226.13 73.56 253.13 73.56 253.13 46.56" style="fill:#ececec"/><polygon points="192.63 193.06 172.13 193.06 172.13 199.56 199.13 199.56 199.13 172.56 192.63 172.56 192.63 193.06" style="fill:#ececec"/><polygon points="253.13 88.56 246.63 88.56 246.63 109.06 226.13 109.06 226.13 115.56 253.13 115.56 253.13 88.56" style="fill:#ececec"/><polygon points="192.63 109.06 172.13 109.06 172.13 115.56 199.13 115.56 199.13 46.56 192.63 46.56 192.63 67.06 192.63 109.06" style="fill:#ececec"/><polygon points="145.13 130.56 138.63 130.56 138.63 151.06 118.13 151.06 118.13 157.56 145.13 157.56 145.13 130.56" style="fill:#ececec"/><polygon points="162.63 67.06 138.63 67.06 118.13 67.06 118.13 73.56 162.63 73.56 162.63 67.06" style="fill:#ececec"/><polygon points="145.13 88.56 138.63 88.56 138.63 109.06 118.13 109.06 118.13 115.56 145.13 115.56 145.13 88.56" style="fill:#ececec"/><polygon points="192.88 235.06 172.38 235.06 172.38 241.56 199.38 241.56 199.38 214.56 192.88 214.56 192.88 235.06" style="fill:#ececec"/><path d="M470.87,209.29c1-3.52,5.71-5.23,9.67-4.85,3.56.34,6.35,2.25,7.06,4.78h0c.43,1.48,3.31,2.92,6.5,2.62,2.57-.24,4.22-1.5,4.48-2.56l2.91.7c-.61,2.56-3.47,4.51-7.11,4.85-.36,0-.72,0-1.09,0-3.7,0-7.66-1.68-8.57-4.83h0c-.35-1.29-2.25-2.41-4.48-2.63-2.92-.28-6,1-6.51,2.74h-.05a5.43,5.43,0,0,1-1.73,2.59c1.51,1.95,3,4,4.33,6a12.25,12.25,0,0,1,4.25-.37c3.56.34,6.35,2.25,7.06,4.78h0c.43,1.48,3.3,2.92,6.5,2.62,2.57-.24,4.22-1.49,4.48-2.56l2.91.7c-.61,2.56-3.47,4.51-7.11,4.85-.36,0-.72.05-1.09.05-3.7,0-7.66-1.68-8.57-4.83h0c-.35-1.29-2.25-2.41-4.48-2.62a8.1,8.1,0,0,0-2.2.07,113.71,113.71,0,0,1,10.41,20.78h22.37a22.47,22.47,0,0,1,17.27,8.09,21.49,21.49,0,0,1,9.9,18.07v63.9a160.11,160.11,0,0,0,5.11-18.3h56.64a10.51,10.51,0,0,0,10.5-10.5V256a10.51,10.51,0,0,0-10.5-10.5H543.12l.06.25,0,0a162.05,162.05,0,0,0-22.38-54.1l0,0,39.8-39.8a10.54,10.54,0,0,0,0-14.85L527,103.37a10.52,10.52,0,0,0-14.85,0l-39.77,39.77,0,0,0,0a161.88,161.88,0,0,0-54.5-22.56h0l.47-56.53a10.51,10.51,0,0,0-10.5-10.5h-47.5a10.51,10.51,0,0,0-10.5,10.5v56.63h0a161.7,161.7,0,0,0-54,22.42h0l-11.07-11.18v88.83A114.51,114.51,0,0,1,470.08,210.4a2.41,2.41,0,0,0,.76-1.12Z" style="fill:#ececec"/><path d="M24.25,627.05a3.33,3.33,0,0,0,1.11,2.48l13.13,12a62,62,0,0,1,4.26-8.31L29.9,620.41l-4.54,4.17A3.33,3.33,0,0,0,24.25,627.05Z" style="fill:#ececec"/><path d="M475.16,222.47a3,3,0,0,0-1.42,1.64h-.05c-.7,2.48-3.49,4.35-7.05,4.68-.36,0-.72.05-1.09.05-3.7,0-7.66-1.68-8.57-4.83h0c-.35-1.29-2.25-2.41-4.48-2.62-2.92-.29-6,1-6.51,2.73h-.05c-.7,2.48-3.49,4.35-7.05,4.68-.36,0-.72.05-1.09.05-3.7,0-7.66-1.68-8.57-4.83h0c-.35-1.29-2.25-2.41-4.48-2.62-2.92-.29-6,1-6.51,2.73h-.05c-.7,2.48-3.49,4.35-7.05,4.68-.36,0-.72.05-1.09.05-3.7,0-7.66-1.68-8.57-4.83h0c-.35-1.29-2.25-2.41-4.48-2.62-2.92-.29-6,1-6.51,2.73l-2.89-.8c1-3.57,5.7-5.3,9.69-4.92,3.56.34,6.35,2.25,7.06,4.78h0c.43,1.48,3.3,2.92,6.5,2.62,2.57-.24,4.22-1.49,4.48-2.56h0c1-3.52,5.71-5.23,9.67-4.85,3.56.34,6.35,2.25,7.06,4.78h0c.43,1.48,3.3,2.92,6.5,2.62,2.57-.24,4.22-1.49,4.48-2.56h0c1-3.52,5.71-5.23,9.67-4.85,3.56.34,6.35,2.25,7.06,4.78h0c.43,1.48,3.3,2.92,6.5,2.62,2.57-.24,4.22-1.49,4.48-2.56h0a6,6,0,0,1,2.62-3.27c-1.33-2-2.71-3.88-4.16-5.74a10.89,10.89,0,0,1-2.69.6c-.36,0-.72,0-1.09,0-3.7,0-7.66-1.68-8.57-4.83h0c-.35-1.29-2.25-2.41-4.48-2.63-2.92-.28-6,1-6.51,2.74h-.05c-.7,2.47-3.49,4.35-7.05,4.68-.36,0-.72,0-1.09,0-3.7,0-7.66-1.68-8.57-4.83h0c-.35-1.29-2.25-2.41-4.48-2.63-2.92-.28-6,1-6.51,2.74h-.05c-.7,2.47-3.49,4.35-7.05,4.68-.36,0-.72,0-1.09,0-3.7,0-7.66-1.68-8.57-4.83h0c-.35-1.29-2.25-2.41-4.48-2.63-2.92-.28-6,1-6.51,2.74l-2.89-.81c1-3.56,5.7-5.29,9.69-4.91,3.56.34,6.35,2.25,7.06,4.78h0c.43,1.48,3.31,2.92,6.5,2.62,2.57-.24,4.22-1.5,4.48-2.56h0c1-3.52,5.71-5.23,9.67-4.85,3.56.34,6.35,2.25,7.06,4.78h0c.43,1.48,3.31,2.92,6.5,2.62,2.57-.24,4.22-1.5,4.48-2.56h0c1-3.52,5.71-5.23,9.67-4.85,3.56.34,6.35,2.25,7.06,4.78h0c.43,1.48,3.31,2.92,6.5,2.62a8.28,8.28,0,0,0,.93-.14,111.56,111.56,0,0,0-182.5,14.74v15.79H485.25A112.41,112.41,0,0,0,475.16,222.47Z" style="fill:#ececec"/><polygon points="246.63 163.06 246.63 205.06 246.63 235.06 226.13 235.06 226.13 241.56 253.13 241.56 253.13 130.56 246.63 130.56 246.63 163.06" style="fill:#ececec"/><path d="M3.27,665.37V683a3.67,3.67,0,0,0,3.82,3.5h24.4l.27.06a55,55,0,0,0,3.62,12.72l4.93-4.93a62.22,62.22,0,0,1-5.73-16.85H14.5A6.51,6.51,0,0,1,8,671v-9.09H7.09A3.67,3.67,0,0,0,3.27,665.37Z" style="fill:#ececec"/><polygon points="145.13 172.56 138.63 172.56 138.63 193.06 118.13 193.06 118.13 199.56 145.13 199.56 145.13 172.56" style="fill:#ececec"/><polygon points="271 242.23 281.79 242.23 281.79 23.56 83.5 23.56 83.5 31.06 271 31.06 271 242.23" style="fill:#ececec"/><polygon points="138.88 235.06 118.38 235.06 118.38 241.56 145.38 241.56 145.38 214.56 138.88 214.56 138.88 235.06" style="fill:#ececec"/><path d="M115.38,242.23v-7.17h-6.5v-30h30v6.5h9.5v30.67h21v-7.17h-6.5v-30h30v6.5h9.5v30.67h20.75v-7.17h-6.5v-114h30v6.5h9.5V242.23H268V34.06H83.5V242.23ZM216.63,37.06h30v6.5h9.5v33h-33v-9.5h-6.5Zm0,42h30v6.5h9.5v33h-33v-9.5h-6.5Zm-14.5,123.5h-33v-9.5h-6.5v-30h30v6.5h9.5Zm0-42h-33v-9.5h-6.5v-30h30v6.5h9.5Zm-93.5-123.5h84v6.5h9.5v75h-33v-9.5h-6.5V76.56h-47.5v-9.5h-6.5Zm0,42h30v6.5h9.5v33h-33v-9.5h-6.5Zm0,42h30v6.5h9.5v33h-33v-9.5h-6.5Zm0,42h30v6.5h9.5v33h-33v-9.5h-6.5Z" style="fill:#ececec"/><path d="M35.23,706.31c-.32-.58-.63-1.16-.93-1.75l-7.37,7.37a3.47,3.47,0,0,0-1,2.47,2.71,2.71,0,0,0,0,.41Z" style="fill:#ececec"/><path d="M78.5,716.25v-9.36a42.08,42.08,0,0,1-25.8-34.83,35.94,35.94,0,0,0-.91,8C51.79,696.44,62.86,710.49,78.5,716.25Z" style="fill:#ececec"/><path d="M35.09,649.87H14.5a3.5,3.5,0,0,0-3.5,3.5v5.5H31.06A59,59,0,0,1,35.09,649.87Z" style="fill:#ececec"/><path d="M78.5,640.64v-8.13a39.22,39.22,0,0,0-20.61,22.13A45.94,45.94,0,0,1,78.5,640.64Z" style="fill:#ececec"/><path d="M27.6,717.55l11.77,11.76a3.59,3.59,0,0,0,5,0l15.85-15.84a59.52,59.52,0,0,0,18.33,9.4v-3.39c-17.48-5.92-30-21.36-30-39.42a38.94,38.94,0,0,1,4.41-18A42.13,42.13,0,0,1,78.5,629.23V609.05a59.3,59.3,0,0,0-14.32,6.63L48.64,600.14a3.51,3.51,0,0,0-5,0L31.26,612.58a3.47,3.47,0,0,0-1,2.47,3.65,3.65,0,0,0,.08.74L36.6,610a7.58,7.58,0,0,1,10,0l15.12,13.87A72.12,72.12,0,0,1,78,617.62v3.12a68,68,0,0,0-16.7,6.94L44.31,612.14a4.07,4.07,0,0,0-5.39,0l-6.81,6.24,14.36,14.37,0,0a1,1,0,0,0,.1.17,59.79,59.79,0,0,0-5.74,10.85l1.1,1,0,0a1,1,0,0,0,.1.17,57.08,57.08,0,0,0-8.54,17h0l-.13,0H11V671a3.5,3.5,0,0,0,3.5,3.5H36.88l.25.06A59,59,0,0,0,44,694.86l-7.31,7.31c.78,1.6,1.64,3.17,2.56,4.69Z" style="fill:#ececec"/><rect x="104.58" y="645.43" width="44.92" height="44.92" style="fill:#ececec"/><path d="M219.75,733.31V711.56H81.5v21.75a18.52,18.52,0,0,0,18.5,18.5H201.25A18.52,18.52,0,0,0,219.75,733.31ZM151.41,745a13.5,13.5,0,1,1,13.5-13.5A13.51,13.51,0,0,1,151.41,745Z" style="fill:#ececec"/><circle cx="151.41" cy="731.47" r="10.5" style="fill:#ececec"/><polygon points="459.97 724.89 492.76 724.89 513.89 660.68 483.27 660.68 459.97 724.89" style="fill:#ececec"/><rect x="73.5" y="34.06" width="7" height="208.17" style="fill:#ececec"/><polygon points="358.06 660.68 380.27 724.89 456.78 724.89 480.08 660.68 358.06 660.68" style="fill:#ececec"/><path d="M55.75,663.65a40.17,40.17,0,0,0-.25,4.41,39,39,0,0,0,23,35.55V643.87A41.42,41.42,0,0,0,55.75,663.65Z" style="fill:#ececec"/><path d="M81.5,708.56H219.75v-50.3c-6.05-3.68-12.2-8.56-14.82-14.28a13.07,13.07,0,0,1-.5-10.4c3.22-8.63,9.56-11.68,15.32-12.51V519.56H81.5Zm74-12.21H98.58V639.43H155.5Zm-57-151.29h79.17v6H98.5Zm0,28h79.17v6H98.5Zm0,28h57v6h-57Z" style="fill:#ececec"/><rect x="285.91" y="697.23" width="19" height="19" style="fill:#ececec"/><circle cx="562" cy="208.67" r="9.67" style="fill:#ececec"/><path d="M459.5,423.81a13.52,13.52,0,0,1-9.5,12.9v28.07l25.51-20.59a13.6,13.6,0,1,1,3.48,4.9l-29,23.4v88.92l39.05-34.19a19.67,19.67,0,0,1,19.28-32.3V273H58.25V564.23H78.5V502.06a21.53,21.53,0,0,1,21.5-21.5H201.25a21.53,21.53,0,0,1,21.5,21.5v62.17H412.66L399,551.14a19.84,19.84,0,1,1,4.8-3.71l17.58,16.8H444V512.9l-27.57-29.81a19.7,19.7,0,1,1,4.47-4l23.1,25V437.15a13.49,13.49,0,1,1,15.5-13.34ZM78.17,474.52a2.75,2.75,0,1,1,2.75-2.75A2.75,2.75,0,0,1,78.17,474.52Zm0-21.5a2.75,2.75,0,1,1,2.75-2.75A2.75,2.75,0,0,1,78.17,453Zm0-21.5a2.75,2.75,0,1,1,2.75-2.75A2.75,2.75,0,0,1,78.17,431.52Zm0-21.5a2.75,2.75,0,1,1,2.75-2.75A2.75,2.75,0,0,1,78.17,410Zm0-21.5a2.75,2.75,0,1,1,2.75-2.75A2.75,2.75,0,0,1,78.17,388.52Zm0-21.5a2.75,2.75,0,1,1,2.75-2.75A2.75,2.75,0,0,1,78.17,367Zm0-21.5a2.75,2.75,0,1,1,2.75-2.75A2.75,2.75,0,0,1,78.17,345.52Zm0-21.5a2.75,2.75,0,1,1,2.75-2.75A2.75,2.75,0,0,1,78.17,324Zm0-21.5a2.75,2.75,0,1,1,2.75-2.75A2.75,2.75,0,0,1,78.17,302.52Zm271.33,0,15.75,14-11-1.5L348,322.31ZM196.83,387.27v-3h66.84v3Zm38.92,40v3H200.92v-3ZM215,365.77H174v-3h41Zm-98.08-21.5v-3H166.5v3ZM162,362.77v3H116.92v-3Zm-19.17-40v-3H229v3Zm31.67,21.5v-3H302.17v3Zm111.17-21.5H237.83v-3h47.84Zm-116.42-24.5h84.08v3H169.25Zm-72.33,0h52.33v3H96.92Zm0,21.5H136v3H96.92Zm86.83,132H96.92v-3h86.83Zm0-21.5H96.92v-3h86.83Zm5.08-43H156.92v-3h31.91Zm89.34,64.5H191.33v-3h86.84Zm.83-21.5H246.25v-3H279Zm-6.92-43v-3h64.59v3ZM318,451.77H287.83v-3H318Zm20.25-21.5h-47.5v-3h47.5Zm61.58-64.5H231.29v-3H399.83Z" style="fill:#ececec"/><polygon points="222.75 589.23 222.75 592.89 442.66 592.89 438.82 589.23 222.75 589.23" style="fill:#ececec"/><path d="M284.9,619.67c-10.74-9.71-24.52-3.32-28.52-1L254.19,620l-1.11-1a14.18,14.18,0,0,0-11.85-3.74c-7,1.06-8.37,8.07-8.42,8.36l-.31,1.68-1.63-.52c-.73-.23-17.88-5.57-23.63,9.82a10.09,10.09,0,0,0,.41,8.09c4.53,9.86,21.74,17.45,26.84,19.53l1.85-5.48L226,651.21,260.47,637l10.68,36.06-10.69-4.27-2.78,4.91,5.2,2.49h34a15.68,15.68,0,0,0,1.07-2.48c4.35-13-12.17-20.83-12.87-21.16l-1.82-.84,1.32-1.51C285.15,649.54,299.43,632.81,284.9,619.67Z" style="fill:#ececec"/><path d="M222.75,620.83a31.12,31.12,0,0,1,7.51.74,13.29,13.29,0,0,1,10.51-9.23,16.77,16.77,0,0,1,13.68,4.23c6.48-4.19,21.29-9.22,32.46.88a25.08,25.08,0,0,1,3.89,4.4h61.7a18.52,18.52,0,0,0,18.5-18.5v-1.16H222.75Z" style="fill:#ececec"/><path d="M538,444.69l22.48-22.48a10.5,10.5,0,0,0,0-14.85L538,384.87Z" style="fill:#ececec"/><path d="M45.23,589a18.39,18.39,0,0,0,11.27,3.86h22v-3.66H48.17A21.88,21.88,0,0,1,45.23,589Z" style="fill:#ececec"/><polygon points="50.67 267.23 50.67 564.23 55.25 564.23 55.25 270.02 508.33 270.02 508.33 267.23 50.67 267.23" style="fill:#ececec"/><path d="M508.33,564.23v-31a19.39,19.39,0,0,1-14.57-2.15l-37.87,33.16Z" style="fill:#ececec"/><path d="M533.33,264.73v302a22.53,22.53,0,0,1-22.5,22.5H450v3.66h66.5a18.52,18.52,0,0,0,18.5-18.5v-306a18.31,18.31,0,0,0-2.29-8.89A22.55,22.55,0,0,1,533.33,264.73Z" style="fill:#ececec"/><rect x="285.91" y="737.23" width="19" height="19" style="fill:#ececec"/><path d="M285.91,677.23v6c3.78-.52,7.77-2.12,10.33-6Z" style="fill:#ececec"/><rect x="305.91" y="737.23" width="19" height="19" style="fill:#ececec"/><rect x="305.91" y="717.23" width="19" height="19" style="fill:#ececec"/><rect x="285.91" y="717.23" width="19" height="19" style="fill:#ececec"/><rect x="305.91" y="677.23" width="19" height="19" style="fill:#ececec"/><rect x="305.91" y="697.23" width="19" height="19" style="fill:#ececec"/><rect x="305.91" y="777.23" width="19" height="19" style="fill:#ececec"/><rect x="305.91" y="757.23" width="19" height="19" style="fill:#ececec"/><path d="M285.91,686.05v10.18h19v-19h-5.23C296.59,683.31,290.94,685.46,285.91,686.05Z" style="fill:#ececec"/><path d="M78.5,719.48v-3.23c-15.64-5.76-26.71-19.81-26.71-36.19a35.94,35.94,0,0,1,.91-8c-.13-1.32-.2-2.65-.2-4a41.91,41.91,0,0,1,.43-6,38.94,38.94,0,0,0-4.41,18C48.52,698.12,61,713.56,78.5,719.48Z" style="fill:#b4c85a"/><path d="M57.89,654.64a38.09,38.09,0,0,0-2.14,9A41.42,41.42,0,0,1,78.5,643.87v-3.23A45.94,45.94,0,0,0,57.89,654.64Z" style="fill:#b4c85a"/><path d="M78.67,735.88a76.8,76.8,0,0,1-21.79-10.41L39.6,741.31a4.18,4.18,0,0,1-5.4,0L20.64,728.88a3.37,3.37,0,0,1-1.11-2.48,3.33,3.33,0,0,1,1.11-2.47l4.75-4.36-.58-.57a6.63,6.63,0,0,1-1.32-1.93l-5.16,4.74a6.19,6.19,0,0,0-2.06,4.49s0,.07,0,.1a6,6,0,0,0,.17,1.41,6.39,6.39,0,0,0,1.9,3.19l13.56,12.43a7.56,7.56,0,0,0,10,0l15.31-14a79.77,79.77,0,0,0,22,9.47v-.1A21.24,21.24,0,0,1,78.67,735.88Z" style="fill:#b4c85a"/><path d="M26,714.81a3.51,3.51,0,0,0,1,2.07l.67.67,11.65-10.69c-.92-1.52-1.78-3.09-2.56-4.69l-2.39,2.39c.3.59.61,1.17.93,1.75Z" style="fill:#b4c85a"/><path d="M25.36,629.53a3.31,3.31,0,0,1,0-4.95l4.54-4.17-.76-.76A6.53,6.53,0,0,1,27.93,618L23,622.46a6.14,6.14,0,0,0,0,9.19l14.22,13q.57-1.58,1.23-3.12Z" style="fill:#b4c85a"/><path d="M33.36,661.88l.13,0h0a57.08,57.08,0,0,1,8.54-17,1,1,0,0,1-.1-.17l0,0-1.1-1a59.77,59.77,0,0,0-2.1,6.13h0l-.12,0H35.09a59,59,0,0,0-4,9H11v3H33.36Z" style="fill:#b4c85a"/><path d="M31.76,686.52l-.27-.06H7.09A3.67,3.67,0,0,1,3.27,683V665.37a3.67,3.67,0,0,1,3.82-3.5H8v-3H7.09c-3.91,0-7.09,2.92-7.09,6.5V683c0,3.58,3.18,6.5,7.09,6.5H29a58,58,0,0,0,3.95,12.23l2.45-2.45A55,55,0,0,1,31.76,686.52Z" style="fill:#b4c85a"/><path d="M44.31,612.14l16.94,15.54A68,68,0,0,1,78,620.74v-3.12a72.12,72.12,0,0,0-16.2,6.27L46.63,610a7.58,7.58,0,0,0-10,0l-6.28,5.77a3.35,3.35,0,0,0,.94,1.74l.85.85,6.81-6.24A4.07,4.07,0,0,1,44.31,612.14Z" style="fill:#b4c85a"/><path d="M472,212.74a8.51,8.51,0,0,1-2.63,1.49c1.45,1.86,2.83,3.78,4.16,5.74a9.77,9.77,0,0,1,2.8-1.21C474.91,216.71,473.47,214.69,472,212.74Z"/><path d="M475.16,222.47a112.41,112.41,0,0,1,10.09,19.76h3.21a113.71,113.71,0,0,0-10.41-20.78A7.67,7.67,0,0,0,475.16,222.47Z"/><path d="M599.75,242.5H545.53a165.07,165.07,0,0,0-21-50.46l38.1-38.11a13.53,13.53,0,0,0,0-19.09l-33.58-33.59a13.52,13.52,0,0,0-19.09,0l-38.09,38.08a164.75,164.75,0,0,0-50.6-21.05V64.06a13.51,13.51,0,0,0-13.5-13.5h-47.5a13.52,13.52,0,0,0-13.5,13.5v54.22a165,165,0,0,0-50.28,20.85L284.79,127.4V20.56H80.5v10.5h3v-7.5H281.79V242.23h3V226.44a111.56,111.56,0,0,1,182.5-14.74,6,6,0,0,0,2.79-1.3,114.51,114.51,0,0,0-185.29,10.35V131.92l11.07,11.18h0a161.7,161.7,0,0,1,54-22.42h0V64.06a10.51,10.51,0,0,1,10.5-10.5h47.5a10.51,10.51,0,0,1,10.5,10.5l-.47,56.53h0a161.88,161.88,0,0,1,54.5,22.56l0,0,0,0,39.77-39.77a10.52,10.52,0,0,1,14.85,0L560.55,137a10.54,10.54,0,0,1,0,14.85l-39.8,39.8,0,0a162.05,162.05,0,0,1,22.38,54.1l0,0-.06-.25h56.63a10.51,10.51,0,0,1,10.5,10.5v47.5a10.51,10.51,0,0,1-10.5,10.5H543.11a160.11,160.11,0,0,1-5.11,18.3v-63.9a21.57,21.57,0,0,0-21.5-21.5H56.5A21.53,21.53,0,0,0,35,268.39v306a21.57,21.57,0,0,0,21.5,21.5h22v10h0a62.66,62.66,0,0,0-13.87,6L50.76,598a6.51,6.51,0,0,0-9.19,0L29.14,610.46a6.41,6.41,0,0,0-1.9,4.59,6.46,6.46,0,0,0,1.9,4.6l.76.76,12.85,12.85a62,62,0,0,0-4.26,8.31q-.66,1.54-1.23,3.12c-.26.72-.53,1.44-.77,2.18h-22a6.51,6.51,0,0,0-6.5,6.5V671a6.51,6.51,0,0,0,6.5,6.5H34.58a62.22,62.22,0,0,0,5.73,16.85l-4.93,4.93-2.45,2.45-8.12,8.12a6.53,6.53,0,0,0-1.32,7.26A6.63,6.63,0,0,0,24.81,719l.58.57,11.86,11.86a6.5,6.5,0,0,0,3,1.71l.5.1a6.35,6.35,0,0,0,1.07.09,6.47,6.47,0,0,0,4.59-1.9l14-14a62.55,62.55,0,0,0,18,8.62v7.3a21.89,21.89,0,0,0,.17,2.57,21.24,21.24,0,0,0,.56,2.88,21.51,21.51,0,0,0,20.77,16h64.91v42.42h161v-121H300.17c.21-.49.41-1,.59-1.53,4.28-12.85-8.19-21.33-12.82-24,2.85-3.93,9.65-15,4.6-25.89h60a21.52,21.52,0,0,0,21.5-21.5v-4.16H222.75v-3.3H444v27.5h6v-27.5h66.5a21.52,21.52,0,0,0,21.5-21.5V448.93l24.6-24.6a13.5,13.5,0,0,0,0-19.09L538,380.63V341a164.8,164.8,0,0,0,7.53-24h54.22a13.52,13.52,0,0,0,13.5-13.5V256A13.51,13.51,0,0,0,599.75,242.5ZM78.5,703.61a39,39,0,0,1-23-35.55,40.17,40.17,0,0,1,.25-4.41,38.09,38.09,0,0,1,2.14-9A39.22,39.22,0,0,1,78.5,632.51v71.1Zm-51.57,8.32,7.37-7.37,2.39-2.39L44,694.86a59,59,0,0,1-6.87-20.34l-.25-.06H14.5A3.5,3.5,0,0,1,11,671V653.37a3.5,3.5,0,0,1,3.5-3.5H38.6l.12,0h0a60,60,0,0,1,7.84-17,1,1,0,0,1-.1-.17l0,0L32.11,618.38l-.85-.85a3.35,3.35,0,0,1-.94-1.74,3.65,3.65,0,0,1-.08-.74,3.47,3.47,0,0,1,1-2.47l12.43-12.44a3.51,3.51,0,0,1,5,0l15.54,15.54a59.3,59.3,0,0,1,14.32-6.63v20.18a42.05,42.05,0,0,0-26,38.83c0,1.35.07,2.68.2,4a42.08,42.08,0,0,0,25.8,34.83v16a59.52,59.52,0,0,1-18.33-9.4L44.32,729.31a3.59,3.59,0,0,1-5,0L27.6,717.55l-.67-.67a3.51,3.51,0,0,1-1-2.07,2.71,2.71,0,0,1,0-.41A3.47,3.47,0,0,1,26.93,711.93ZM100,751.81a18.52,18.52,0,0,1-18.5-18.5V711.56H219.75v21.75a18.52,18.52,0,0,1-18.5,18.5ZM219.75,519.56V621.07c-5.76.83-12.1,3.88-15.32,12.51a13.07,13.07,0,0,0,.5,10.4c2.62,5.72,8.77,10.6,14.82,14.28v50.3H81.5v-189Zm-138.25-3V502.72c0-10.57,8.3-19.16,18.5-19.16H201.25c10.2,0,18.5,8.59,18.5,19.16v13.84ZM184.91,796.23h-19v-19h19Zm0-20h-19v-19h19Zm0-20h-19v-1.42h19Zm20,40h-19v-19h19Zm0-20h-19v-19h19Zm20,20h-19v-19h19Zm0-20h-19v-19h19Zm0-20h-19v-1.67h-1v1.67h-19v-1.42h15.34a21.52,21.52,0,0,0,21.13-17.58h2.53Zm0-20h-2.38a21.7,21.7,0,0,0,.22-2.92V717.23h2.16Zm0-20h-2.16v-19h2.16Zm0-20h-2.16v-19h2.16Zm31.5-20H222.75V660a96.77,96.77,0,0,0,12.14,5.64l1.44.53L240,655.34l-7-3.76,25.53-10.5,8,26.94L258.87,665l-4.49,10.33Zm-11.5,120h-19v-19h19Zm0-20h-19v-19h19Zm0-20h-19v-19h19Zm0-20h-19v-19h19Zm0-20h-19v-19h19Zm0-20h-19v-19h19Zm20,100h-19v-19h19Zm0-20h-19v-19h19Zm0-20h-19v-19h19Zm0-20h-19v-19h19Zm0-20h-19v-19h19Zm0-20h-19v-19h12.67l6.33,2.92Zm20,100h-19v-19h19Zm0-20h-19v-19h19Zm0-20h-19v-19h19Zm0-20h-19v-19h19Zm0-20h-19v-19h19Zm0-20h-19V680.61l9.5,4.39a23.24,23.24,0,0,0,7.19,1.24c.73,0,1.51,0,2.31-.09Zm0-12.87a24.34,24.34,0,0,1-8.84-.82l-10.16-4.86v-.45h19Zm20,112.87h-19v-19h19Zm0-20h-19v-19h19Zm0-20h-19v-19h19Zm0-20h-19v-19h19Zm0-20h-19v-19h19Zm1-39h19v19h-19Zm0,20h19v19h-19Zm0,20h19v19h-19Zm0,20h19v19h-19Zm0,20h19v19h-19Zm0,20h19v19h-19Zm-1-100v19h-19V686.05c5-.59,10.68-2.74,13.77-8.82Zm-19,6v-6h10.33C293.68,681.12,289.69,682.72,285.91,683.24Zm-1.37-33-1.32,1.51,1.82.84c.7.33,17.22,8.12,12.87,21.16a15.68,15.68,0,0,1-1.07,2.48h-34l-5.2-2.49,2.78-4.91,10.69,4.27L260.47,637,226,651.21l10.34,5.57-1.85,5.48c-5.1-2.08-22.31-9.67-26.84-19.53a10.09,10.09,0,0,1-.41-8.09c5.75-15.39,22.9-10,23.63-9.82l1.63.52.31-1.68c.05-.29,1.44-7.3,8.42-8.36A14.18,14.18,0,0,1,253.08,619l1.11,1,2.19-1.38c4-2.31,17.78-8.7,28.52,1C299.43,632.81,285.15,649.54,284.54,650.24Zm86.46-48v1.16a18.52,18.52,0,0,1-18.5,18.5H290.8a25.08,25.08,0,0,0-3.89-4.4c-11.17-10.1-26-5.07-32.46-.88a16.77,16.77,0,0,0-13.68-4.23,13.29,13.29,0,0,0-10.51,9.23,31.12,31.12,0,0,0-7.51-.74V602.19Zm-148.25-9.3V571h197l19.05,18.21,3.84,3.66Zm221.25-7L428.45,571H444Zm-3.09-161a6.57,6.57,0,0,1,.38,2.65c0,1.09,0,1.74,0,1.94a1.77,1.77,0,0,0,.2.71.66.66,0,0,0,.34.26,3,3,0,0,0,1,.1v1.34h-.43a3.13,3.13,0,0,1-1.13-.14,1.75,1.75,0,0,1-.83-.69,2.88,2.88,0,0,1-.41-1.27c-.05-.37-.07-1.07-.08-2.1a9.76,9.76,0,0,0-.15-2.13,1.77,1.77,0,0,0-.52-.86,1.53,1.53,0,0,0-.93-.32V423a1.52,1.52,0,0,0,.76-.2,1.57,1.57,0,0,0,.58-.69,3.4,3.4,0,0,0,.23-1.23q0-.39,0-1.8a9.18,9.18,0,0,1,.17-2,2.17,2.17,0,0,1,.48-1,1.83,1.83,0,0,1,.83-.53,3.66,3.66,0,0,1,1-.09h.44v1.34h-.24a1.32,1.32,0,0,0-1.07.33,2.62,2.62,0,0,0-.26,1.43c0,1.33,0,2.18-.05,2.54a3.82,3.82,0,0,1-.45,1.61,2.83,2.83,0,0,1-1.12,1A2.52,2.52,0,0,1,440.91,424.91Zm-8.41-1.1A13.5,13.5,0,0,0,444,437.15v66.92l-23.1-25a19.82,19.82,0,1,0-4.47,4L444,512.9V568H425.31l-4-3.79-17.58-16.8a19.58,19.58,0,1,0-4.8,3.71l13.7,13.09,4,3.79H222.75v-66a21.53,21.53,0,0,0-21.5-21.5H100a21.53,21.53,0,0,0-21.5,21.5v66H58.25V273h455V496.81a19.9,19.9,0,0,0-4.92-1.89,19.47,19.47,0,0,0-4.61-.57,19.7,19.7,0,0,0-14.67,32.87L450,561.41V472.49l29-23.4a13.38,13.38,0,1,0-3.48-4.9L450,464.78V436.71a13.5,13.5,0,1,0-17.5-12.9Zm-37.09,40.67v-3h19.74v3ZM415.15,471v2.94H395.41V471Zm-19.58,57.81v-1.73l11,5.53v1.52l-11,5.5v-1.71l8.92-4.54Zm-1.73-4.49-6.49,20h-1.63l6.49-20Zm-10,13.59v1.72l-11-5.5v-1.52l11-5.53v1.72l-8.91,4.58Zm112.91-20.84a10.39,10.39,0,0,1,.61,4.19c0,1.74,0,2.76.05,3.08a2.68,2.68,0,0,0,.31,1.12,1.08,1.08,0,0,0,.54.43,5.11,5.11,0,0,0,1.58.16v2.12h-.68a4.91,4.91,0,0,1-1.79-.23,2.81,2.81,0,0,1-1.32-1.09,4.5,4.5,0,0,1-.64-2,32.08,32.08,0,0,1-.13-3.34,15.12,15.12,0,0,0-.25-3.37,2.56,2.56,0,0,0-.82-1.36,2.33,2.33,0,0,0-1.47-.51v-2.21a2.37,2.37,0,0,0,1.21-.33,2.48,2.48,0,0,0,.91-1.08,5.68,5.68,0,0,0,.38-1.95c0-.42,0-1.37,0-2.86a15.18,15.18,0,0,1,.26-3.2,3.66,3.66,0,0,1,.76-1.53,3,3,0,0,1,1.32-.83,5.64,5.64,0,0,1,1.54-.15h.68v2.13h-.37a2.1,2.1,0,0,0-1.7.52,4.16,4.16,0,0,0-.41,2.27c0,2.11,0,3.45-.08,4a6,6,0,0,1-.72,2.55,4.59,4.59,0,0,1-1.77,1.53A3.9,3.9,0,0,1,496.76,517.07Zm-3,14a19.85,19.85,0,0,0,19.49.26V568H451.56l4.33-3.79ZM513,519.61c0,.41,0,1.37,0,2.86a15,15,0,0,1-.26,3.2,3.66,3.66,0,0,1-.77,1.54,2.81,2.81,0,0,1-1.31.81,5.64,5.64,0,0,1-1.54.15h-.69v-2.12h.38a2.15,2.15,0,0,0,1.7-.52,4.09,4.09,0,0,0,.41-2.26c0-2.16,0-3.54.09-4.12a5.78,5.78,0,0,1,.79-2.57,4,4,0,0,1,1.69-1.43,4.37,4.37,0,0,1-2-2,10.89,10.89,0,0,1-.56-4.1,29.51,29.51,0,0,0-.11-3.51,1.62,1.62,0,0,0-.52-1,2.57,2.57,0,0,0-1.48-.3h-.38v-2.13h.69a4.66,4.66,0,0,1,1.79.25,2.68,2.68,0,0,1,1.32,1.08,4.67,4.67,0,0,1,.64,2,32.6,32.6,0,0,1,.12,3.33,15.69,15.69,0,0,0,.26,3.38,2.59,2.59,0,0,0,.82,1.37,2.38,2.38,0,0,0,1.48.51v2.21a2.34,2.34,0,0,0-1.22.31,2.45,2.45,0,0,0-.91,1.09A5.45,5.45,0,0,0,513,519.61ZM483.75,441v1.17l-7.5-3.75v-1l7.5-3.78v1.18l-6.09,3.12Zm1.28,4.38,4.42-13.66h1.12l-4.43,13.66Zm6.72-10.6v-1.18l7.5,3.78v1l-7.5,3.75V441l6.09-3.11Zm-42.08-2.91a3.75,3.75,0,0,1-1,.09h-.43v-1.34h.23a1.36,1.36,0,0,0,1.07-.32,2.5,2.5,0,0,0,.26-1.43c0-1.36,0-2.23.06-2.6a3.64,3.64,0,0,1,.5-1.61,2.56,2.56,0,0,1,1.06-.91,2.74,2.74,0,0,1-1.26-1.26,6.65,6.65,0,0,1-.36-2.58,17.45,17.45,0,0,0-.07-2.22.93.93,0,0,0-.33-.62,1.65,1.65,0,0,0-.93-.19h-.23v-1.34h.43a2.91,2.91,0,0,1,1.13.16,1.72,1.72,0,0,1,.83.68,2.88,2.88,0,0,1,.4,1.26,18.89,18.89,0,0,1,.08,2.11,10.38,10.38,0,0,0,.16,2.13,1.59,1.59,0,0,0,.52.86,1.47,1.47,0,0,0,.93.32v1.39a1.42,1.42,0,0,0-.76.2,1.54,1.54,0,0,0-.58.68,3.6,3.6,0,0,0-.24,1.23c0,.27,0,.87,0,1.81a9.27,9.27,0,0,1-.16,2,2.28,2.28,0,0,1-.48,1A1.84,1.84,0,0,1,449.67,431.82ZM535,574.39a18.52,18.52,0,0,1-18.5,18.5H450V571h66.25V529.3a19.71,19.71,0,0,0,0-30.45V270h-461V571H78.5v21.87h-22A18.56,18.56,0,0,1,38,574.39v-306a18.52,18.52,0,0,1,18.5-18.5h460a18.51,18.51,0,0,1,16.21,9.61,18.31,18.31,0,0,1,2.29,8.89Zm25.48-167a10.5,10.5,0,0,1,0,14.85L538,444.69V384.87Z"/><rect x="80.5" y="34.06" width="3" height="208.17"/><rect x="118.38" y="214.56" width="20.5" height="20.5"/><polygon points="108.88 205.06 108.88 235.06 115.38 235.06 115.38 211.56 138.88 211.56 138.88 205.06 108.88 205.06"/><rect x="172.38" y="214.56" width="20.5" height="20.5"/><polygon points="162.88 205.06 162.88 235.06 169.38 235.06 169.38 211.56 192.88 211.56 192.88 205.06 162.88 205.06"/><polygon points="115.13 169.56 138.63 169.56 138.63 163.06 108.63 163.06 108.63 193.06 115.13 193.06 115.13 169.56"/><rect x="118.13" y="172.56" width="20.5" height="20.5"/><path d="M115.13,193.06v9.5h33v-33h-33Zm3,0v-20.5h27v27h-27Z" style="fill:#b4c85a"/><polygon points="192.63 169.56 192.63 163.06 162.63 163.06 162.63 193.06 169.13 193.06 169.13 169.56 192.63 169.56"/><rect x="172.13" y="172.56" width="20.5" height="20.5"/><path d="M169.13,169.56v33h33v-33h-33Zm30,30h-27v-27h27Z" style="fill:#b4c85a"/><polygon points="115.13 127.56 138.63 127.56 138.63 121.06 108.63 121.06 108.63 151.06 115.13 151.06 115.13 127.56"/><rect x="118.13" y="130.56" width="20.5" height="20.5"/><path d="M115.13,151.06v9.5h33v-33h-33Zm3,0v-20.5h27v27h-27Z" style="fill:#b4c85a"/><polygon points="192.63 127.56 192.63 121.06 162.63 121.06 162.63 151.06 169.13 151.06 169.13 127.56 192.63 127.56"/><rect x="172.13" y="130.56" width="20.5" height="20.5"/><path d="M169.13,127.56v33h33v-33h-33Zm30,30h-27v-27h27Z" style="fill:#b4c85a"/><polygon points="246.63 205.06 246.63 163.06 246.63 130.56 226.13 130.56 226.13 235.06 246.63 235.06 246.63 205.06"/><polygon points="216.63 121.06 216.63 163.06 216.63 205.06 216.63 235.06 223.13 235.06 223.13 127.56 246.63 127.56 246.63 121.06 216.63 121.06"/><rect x="118.13" y="88.56" width="20.5" height="20.5"/><polygon points="115.13 85.56 138.63 85.56 138.63 79.06 108.63 79.06 108.63 109.06 115.13 109.06 115.13 85.56"/><path d="M115.13,109.06v9.5h33v-33h-33Zm3,0V88.56h27v27h-27Z" style="fill:#b4c85a"/><rect x="226.13" y="88.56" width="20.5" height="20.5"/><polygon points="223.13 85.56 246.63 85.56 246.63 79.06 216.63 79.06 216.63 109.06 223.13 109.06 223.13 85.56"/><path d="M223.13,109.06v9.5h33v-33h-33Zm3,0V88.56h27v27h-27Z" style="fill:#b4c85a"/><polygon points="115.13 43.56 192.63 43.56 192.63 37.06 138.63 37.06 108.63 37.06 108.63 67.06 115.13 67.06 115.13 43.56"/><polygon points="162.63 67.06 162.63 73.56 172.13 73.56 172.13 109.06 192.63 109.06 192.63 67.06 192.63 46.56 118.13 46.56 118.13 67.06 138.63 67.06 162.63 67.06"/><rect x="162.63" y="76.56" width="6.5" height="32.5"/><path d="M115.13,67.06v9.5h54v42h33v-75h-87Zm3,0V46.56h81v69h-27v-42h-54Z" style="fill:#b4c85a"/><polygon points="223.13 43.56 246.63 43.56 246.63 37.06 216.63 37.06 216.63 67.06 223.13 67.06 223.13 43.56"/><rect x="226.13" y="46.56" width="20.5" height="20.5"/><path d="M223.13,67.06v9.5h33v-33h-33Zm3,0V46.56h27v27h-27Z" style="fill:#b4c85a"/><polygon points="425.31 568.02 444 568.02 444 566.66 444 564.23 421.34 564.23 425.31 568.02" style="fill:#b4c85a"/><path d="M513.25,496.81V273h-4.92v221.9A19.9,19.9,0,0,1,513.25,496.81Z" style="fill:#b4c85a"/><polygon points="222.75 568.02 416.63 568.02 412.66 564.23 222.75 564.23 222.75 568.02" style="fill:#b4c85a"/><path d="M455.89,564.23,451.56,568h61.69V531.33a19.51,19.51,0,0,1-4.92,1.89v31Z" style="fill:#b4c85a"/><rect x="58.25" y="564.23" width="20.25" height="3.79" style="fill:#b4c85a"/><path d="M35,268.39a21.53,21.53,0,0,1,21.5-21.5h460a21.35,21.35,0,0,1,11.6,3.43,22.47,22.47,0,0,0-17.27-8.09H271V31.06H70.5V242.23H48.17a22.52,22.52,0,0,0-22.5,22.5v302a22.53,22.53,0,0,0,13.81,20.75A21.35,21.35,0,0,1,35,574.39Zm110.38-26.83h-27v-27h27Zm54,0h-27v-27h27Zm53.75,0h-27v-111h27ZM73.5,34.06H268V242.23H256.13V127.56h-33V242.23H202.38V211.56h-33v30.67h-21V211.56h-33v30.67H73.5Z" style="fill:#b4c85a"/><path d="M533.33,566.73v-302a22.55,22.55,0,0,0-.62-5.23,18.51,18.51,0,0,0-16.21-9.61H56.5A18.52,18.52,0,0,0,38,268.39v306A18.46,18.46,0,0,0,45.23,589a21.88,21.88,0,0,0,2.94.2H78.5V571H55.25v-6.79H50.67v-297H508.33V270h7.92V498.85a19.71,19.71,0,0,1,0,30.45V571H450v18.21h60.83A22.53,22.53,0,0,0,533.33,566.73Z" style="fill:#b4c85a"/><polygon points="419.76 571.02 222.75 571.02 222.75 589.23 438.82 589.23 419.76 571.02" style="fill:#b4c85a"/><polygon points="444 585.88 444 571.02 428.45 571.02 444 585.88" style="fill:#b4c85a"/><path d="M174.17,494.06H127.5a6.5,6.5,0,1,0,0,13h46.67a6.5,6.5,0,1,0,0-13Zm0,10H127.5a3.5,3.5,0,1,1,0-7h46.67a3.5,3.5,0,1,1,0,7Z"/><path d="M151.41,718a13.5,13.5,0,1,0,13.5,13.5A13.51,13.51,0,0,0,151.41,718Zm0,24a10.5,10.5,0,1,1,10.5-10.5A10.51,10.51,0,0,1,151.41,742Z"/><rect x="98.5" y="545.06" width="79.17" height="6" style="fill:#b4c85a"/><rect x="98.5" y="573.06" width="79.17" height="6" style="fill:#b4c85a"/><rect x="98.5" y="601.06" width="57" height="6" style="fill:#b4c85a"/><path d="M98.58,696.35H155.5V639.43H98.58Zm6-50.92H149.5v44.92H104.58Z" style="fill:#b4c85a"/><circle cx="78.17" cy="299.77" r="2.75"/><circle cx="78.17" cy="321.27" r="2.75"/><circle cx="78.17" cy="342.77" r="2.75"/><circle cx="78.17" cy="364.27" r="2.75"/><circle cx="78.17" cy="385.77" r="2.75"/><circle cx="78.17" cy="407.27" r="2.75"/><circle cx="78.17" cy="428.77" r="2.75"/><circle cx="78.17" cy="450.27" r="2.75"/><circle cx="78.17" cy="471.77" r="2.75"/><rect x="96.92" y="298.27" width="52.33" height="3"/><rect x="169.25" y="298.27" width="84.08" height="3"/><rect x="96.92" y="319.77" width="39.08" height="3"/><rect x="96.92" y="427.27" width="86.83" height="3"/><rect x="96.92" y="448.77" width="86.83" height="3" style="fill:#b4c85a"/><rect x="191.33" y="448.77" width="86.83" height="3" style="fill:#b4c85a"/><rect x="287.83" y="448.77" width="30.17" height="3"/><rect x="200.92" y="427.27" width="34.83" height="3"/><rect x="246.25" y="427.27" width="32.75" height="3"/><rect x="290.75" y="427.27" width="47.5" height="3"/><rect x="116.92" y="341.27" width="49.58" height="3"/><rect x="116.92" y="362.77" width="45.08" height="3"/><rect x="156.92" y="384.27" width="31.92" height="3" style="fill:#b4c85a"/><rect x="196.83" y="384.27" width="66.83" height="3"/><rect x="272.08" y="384.27" width="64.58" height="3" style="fill:#b4c85a"/><rect x="174" y="362.77" width="41" height="3"/><rect x="231.29" y="362.77" width="168.54" height="3"/><rect x="174.5" y="341.27" width="127.67" height="3" style="fill:#b4c85a"/><rect x="142.83" y="319.77" width="86.17" height="3" style="fill:#b4c85a"/><rect x="237.83" y="319.77" width="47.83" height="3"/><polygon points="483.27 660.68 513.89 660.68 518.26 647.39 488.1 647.39 483.27 660.68" style="fill:#b4c85a"/><polygon points="341.17 647.39 351.74 634.11 342.31 634.11 321.17 660.68 335.19 660.68 354.88 660.68 350.29 647.39 341.17 647.39" style="fill:#b4c85a"/><polygon points="484.9 647.39 353.83 647.39 353.46 647.39 358.06 660.68 480.08 660.68 484.9 647.39" style="fill:#b4c85a"/><polygon points="517.05 660.68 528.1 660.68 521.68 647.39 521.42 647.39 517.05 660.68" style="fill:#b4c85a"/><path d="M516.5,623.39H360.27l-8.53,10.72-10.57,13.28h9.12l4.59,13.29,23.26,67.21H494.93l22.12-67.21,4.37-13.29h6.68ZM380.27,724.89l-22.21-64.21-4.6-13.29H484.9l-4.82,13.29-23.3,64.21Zm133.62-64.21-21.13,64.21H460l23.31-64.21,4.82-13.29h30.16Z"/><polygon points="383.85 527.08 372.88 532.61 372.88 534.13 383.85 539.63 383.85 537.91 374.94 533.38 383.85 528.8 383.85 527.08" style="fill:#ececec"/><polygon points="387.35 544.33 393.84 524.32 392.2 524.32 385.72 544.33 387.35 544.33" style="fill:#ececec"/><polygon points="395.57 539.63 406.55 534.13 406.55 532.61 395.57 527.08 395.57 528.81 404.49 533.38 395.57 537.92 395.57 539.63" style="fill:#ececec"/><rect x="395.41" y="461.53" width="19.74" height="2.95" style="fill:#ececec"/><rect x="395.41" y="471" width="19.74" height="2.95" style="fill:#ececec"/><path d="M496.57,513.62a6,6,0,0,0,.72-2.55c0-.58.08-1.92.08-4a4.16,4.16,0,0,1,.41-2.27,2.1,2.1,0,0,1,1.7-.52h.37v-2.13h-.68a5.64,5.64,0,0,0-1.54.15,3,3,0,0,0-1.32.83,3.66,3.66,0,0,0-.76,1.53,15.18,15.18,0,0,0-.26,3.2c0,1.49,0,2.44,0,2.86a5.68,5.68,0,0,1-.38,1.95,2.48,2.48,0,0,1-.91,1.08,2.37,2.37,0,0,1-1.21.33v2.21a2.33,2.33,0,0,1,1.47.51,2.56,2.56,0,0,1,.82,1.36,15.12,15.12,0,0,1,.25,3.37,32.08,32.08,0,0,0,.13,3.34,4.5,4.5,0,0,0,.64,2,2.81,2.81,0,0,0,1.32,1.09,4.91,4.91,0,0,0,1.79.23h.68v-2.12a5.11,5.11,0,0,1-1.58-.16,1.08,1.08,0,0,1-.54-.43,2.68,2.68,0,0,1-.31-1.12c0-.32-.05-1.34-.05-3.08a10.39,10.39,0,0,0-.61-4.19,3.9,3.9,0,0,0-2-1.92A4.59,4.59,0,0,0,496.57,513.62Z" style="fill:#ececec"/><path d="M514.33,516.57a2.34,2.34,0,0,1,1.22-.31v-2.21a2.38,2.38,0,0,1-1.48-.51,2.59,2.59,0,0,1-.82-1.37,15.69,15.69,0,0,1-.26-3.38,32.6,32.6,0,0,0-.12-3.33,4.67,4.67,0,0,0-.64-2,2.68,2.68,0,0,0-1.32-1.08,4.66,4.66,0,0,0-1.79-.25h-.69v2.13h.38a2.57,2.57,0,0,1,1.48.3,1.62,1.62,0,0,1,.52,1,29.51,29.51,0,0,1,.11,3.51,10.89,10.89,0,0,0,.56,4.1,4.37,4.37,0,0,0,2,2,4,4,0,0,0-1.69,1.43,5.78,5.78,0,0,0-.79,2.57c-.06.58-.09,2-.09,4.12a4.09,4.09,0,0,1-.41,2.26,2.15,2.15,0,0,1-1.7.52h-.38v2.12h.69a5.64,5.64,0,0,0,1.54-.15,2.81,2.81,0,0,0,1.31-.81,3.66,3.66,0,0,0,.77-1.54,15,15,0,0,0,.26-3.2c0-1.49,0-2.45,0-2.86a5.45,5.45,0,0,1,.38-2A2.45,2.45,0,0,1,514.33,516.57Z" style="fill:#ececec"/><path d="M440.79,422.74a3.82,3.82,0,0,0,.45-1.61c0-.36.05-1.21.05-2.54a2.62,2.62,0,0,1,.26-1.43,1.32,1.32,0,0,1,1.07-.33h.24v-1.34h-.44a3.66,3.66,0,0,0-1,.09,1.83,1.83,0,0,0-.83.53,2.17,2.17,0,0,0-.48,1,9.18,9.18,0,0,0-.17,2q0,1.41,0,1.8a3.4,3.4,0,0,1-.23,1.23,1.57,1.57,0,0,1-.58.69,1.52,1.52,0,0,1-.76.2v1.39a1.53,1.53,0,0,1,.93.32,1.77,1.77,0,0,1,.52.86,9.76,9.76,0,0,1,.15,2.13c0,1,0,1.73.08,2.1a2.88,2.88,0,0,0,.41,1.27,1.75,1.75,0,0,0,.83.69,3.13,3.13,0,0,0,1.13.14h.43v-1.34a3,3,0,0,1-1-.1.66.66,0,0,1-.34-.26,1.77,1.77,0,0,1-.2-.71c0-.2,0-.85,0-1.94a6.57,6.57,0,0,0-.38-2.65,2.52,2.52,0,0,0-1.24-1.21A2.83,2.83,0,0,0,440.79,422.74Z" style="fill:#ececec"/><path d="M451,430.34a9.27,9.27,0,0,0,.16-2c0-.94,0-1.54,0-1.81a3.6,3.6,0,0,1,.24-1.23,1.54,1.54,0,0,1,.58-.68,1.42,1.42,0,0,1,.76-.2V423a1.47,1.47,0,0,1-.93-.32,1.59,1.59,0,0,1-.52-.86,10.38,10.38,0,0,1-.16-2.13,18.89,18.89,0,0,0-.08-2.11,2.88,2.88,0,0,0-.4-1.26,1.72,1.72,0,0,0-.83-.68,2.91,2.91,0,0,0-1.13-.16h-.43v1.34h.23a1.65,1.65,0,0,1,.93.19.93.93,0,0,1,.33.62,17.45,17.45,0,0,1,.07,2.22,6.65,6.65,0,0,0,.36,2.58,2.74,2.74,0,0,0,1.26,1.26,2.56,2.56,0,0,0-1.06.91,3.64,3.64,0,0,0-.5,1.61c0,.37-.06,1.24-.06,2.6a2.5,2.5,0,0,1-.26,1.43,1.36,1.36,0,0,1-1.07.32h-.23v1.34h.43a3.75,3.75,0,0,0,1-.09,1.84,1.84,0,0,0,.83-.52A2.28,2.28,0,0,0,451,430.34Z" style="fill:#ececec"/><polygon points="483.75 433.56 476.25 437.33 476.25 438.37 483.75 442.12 483.75 440.95 477.66 437.85 483.75 434.73 483.75 433.56" style="fill:#ececec"/><polygon points="489.45 431.67 485.02 445.33 486.14 445.33 490.57 431.67 489.45 431.67" style="fill:#ececec"/><polygon points="491.75 442.12 499.25 438.37 499.25 437.33 491.75 433.56 491.75 434.73 497.84 437.85 491.75 440.95 491.75 442.12" style="fill:#ececec"/><path d="M347,735.73a2.29,2.29,0,1,0,1.54,4l.18-.19a2.28,2.28,0,0,0-1.72-3.79Z"/><path d="M347.73,728.45a9.25,9.25,0,0,0-6,2.25.08.08,0,0,0,0,0,7.25,7.25,0,0,1,.88,1.84,7.3,7.3,0,0,1,12.46,5.1h2A9.31,9.31,0,0,0,347.73,728.45Z"/><path d="M348.48,722a14.16,14.16,0,0,0-9.41,3.58c.06.11,1,1.28,1.21,1.59a12.26,12.26,0,0,1,20.48,9.11,11.64,11.64,0,0,1-.1,1.45h2a13.94,13.94,0,0,0,.08-1.45A14.29,14.29,0,0,0,348.48,722Z"/><path d="M348.79,713.6a21,21,0,0,0-15.62,7,6.37,6.37,0,0,1,1.8,1,19,19,0,0,1,32.68,16.09H368a8.13,8.13,0,0,1,1.64-.07,20.57,20.57,0,0,0,.22-2.86A21.13,21.13,0,0,0,348.79,713.6Z"/><polygon points="365.25 316.56 349.5 302.56 348 322.31 354.25 315.06 365.25 316.56"/><path d="M549.33,208.67A12.67,12.67,0,1,0,562,196,12.69,12.69,0,0,0,549.33,208.67Zm22.34,0A9.67,9.67,0,1,1,562,199,9.68,9.68,0,0,1,571.67,208.67Z"/><polygon points="322.89 19.45 330.5 11.85 338.11 19.45 340.23 17.33 332.62 9.73 340.23 2.12 338.11 0 330.5 7.61 322.89 0 320.77 2.12 328.38 9.73 320.77 17.33 322.89 19.45"/><path d="M459.86,209.22h0c-.71-2.53-3.5-4.44-7.06-4.78-4-.38-8.63,1.33-9.67,4.85h0c-.26,1.06-1.91,2.32-4.48,2.56-3.19.3-6.07-1.14-6.5-2.62h0c-.71-2.53-3.5-4.44-7.06-4.78-4-.38-8.63,1.33-9.67,4.85h0c-.26,1.06-1.91,2.32-4.48,2.56-3.19.3-6.07-1.14-6.5-2.62h0c-.71-2.53-3.5-4.44-7.06-4.78-4-.38-8.69,1.35-9.69,4.91l2.89.81c.48-1.71,3.59-3,6.51-2.74,2.23.22,4.13,1.34,4.48,2.63h0c.91,3.15,4.87,4.83,8.57,4.83.37,0,.73,0,1.09,0,3.56-.33,6.35-2.21,7.05-4.68h.05c.48-1.71,3.59-3,6.51-2.74,2.23.22,4.13,1.34,4.48,2.63h0c.91,3.15,4.87,4.83,8.57,4.83.37,0,.73,0,1.09,0,3.56-.33,6.35-2.21,7.05-4.68H446c.48-1.71,3.59-3,6.51-2.74,2.23.22,4.13,1.34,4.48,2.63h0c.91,3.15,4.87,4.83,8.57,4.83.37,0,.73,0,1.09,0a10.89,10.89,0,0,0,2.69-.6,8.51,8.51,0,0,0,2.63-1.49,5.43,5.43,0,0,0,1.73-2.59h.05c.48-1.71,3.59-3,6.51-2.74,2.23.22,4.13,1.34,4.48,2.63h0c.91,3.15,4.87,4.83,8.57,4.83.37,0,.73,0,1.09,0,3.64-.34,6.5-2.29,7.11-4.85l-2.91-.7c-.26,1.06-1.91,2.32-4.48,2.56-3.19.3-6.07-1.14-6.5-2.62h0c-.71-2.53-3.5-4.44-7.06-4.78-4-.38-8.63,1.33-9.67,4.85h0a2.41,2.41,0,0,1-.76,1.12,6,6,0,0,1-2.79,1.3,8.28,8.28,0,0,1-.93.14C463.17,212.14,460.29,210.7,459.86,209.22Z" style="fill:#b4c85a"/><path d="M480.25,221.38c2.23.21,4.13,1.33,4.48,2.62h0c.91,3.15,4.87,4.83,8.57,4.83.37,0,.73,0,1.09-.05,3.64-.34,6.5-2.29,7.11-4.85l-2.91-.7c-.26,1.07-1.91,2.32-4.48,2.56-3.2.3-6.07-1.14-6.5-2.62h0c-.71-2.53-3.5-4.44-7.06-4.78a12.25,12.25,0,0,0-4.25.37,9.77,9.77,0,0,0-2.8,1.21,6,6,0,0,0-2.62,3.27h0c-.26,1.07-1.91,2.32-4.48,2.56-3.2.3-6.07-1.14-6.5-2.62h0c-.71-2.53-3.5-4.44-7.06-4.78-4-.38-8.63,1.33-9.67,4.85h0c-.26,1.07-1.91,2.32-4.48,2.56-3.2.3-6.07-1.14-6.5-2.62h0c-.71-2.53-3.5-4.44-7.06-4.78-4-.38-8.63,1.33-9.67,4.85h0c-.26,1.07-1.91,2.32-4.48,2.56-3.2.3-6.07-1.14-6.5-2.62h0c-.71-2.53-3.5-4.44-7.06-4.78-4-.38-8.69,1.35-9.69,4.92l2.89.8c.48-1.71,3.59-3,6.51-2.73,2.23.21,4.13,1.33,4.48,2.62h0c.91,3.15,4.87,4.83,8.57,4.83.37,0,.73,0,1.09-.05,3.56-.33,6.35-2.2,7.05-4.68h.05c.48-1.71,3.59-3,6.51-2.73,2.23.21,4.13,1.33,4.48,2.62h0c.91,3.15,4.87,4.83,8.57,4.83.37,0,.73,0,1.09-.05,3.56-.33,6.35-2.2,7.05-4.68H446c.48-1.71,3.59-3,6.51-2.73,2.23.21,4.13,1.33,4.48,2.62h0c.91,3.15,4.87,4.83,8.57,4.83.37,0,.73,0,1.09-.05,3.56-.33,6.35-2.2,7.05-4.68h.05a3,3,0,0,1,1.42-1.64,7.67,7.67,0,0,1,2.89-1A8.1,8.1,0,0,1,480.25,221.38Z" style="fill:#b4c85a"/></g></g></svg>