<svg id="Шар_3" data-name="Шар 3" xmlns="http://www.w3.org/2000/svg" viewBox="0 0 613.25 797.23"><defs><style>.cls-1{fill:#b4c85a;}.cls-2{fill:none;stroke:#000;stroke-linecap:round;stroke-linejoin:round;stroke-width:0;}.cls-3{fill:#fff;}</style></defs><title>development</title><g id="Шар_11" data-name="Шар 11"><path class="cls-1" d="M165,829.42v-3.23c-15.64-5.77-26.71-19.81-26.71-36.19a35.87,35.87,0,0,1,.91-8c-.13-1.32-.2-2.65-.2-4a41.91,41.91,0,0,1,.43-6A38.94,38.94,0,0,0,135,790C135,808.06,147.52,823.5,165,829.42Z" transform="translate(-86.5 -109.94)"/><path class="cls-1" d="M144.39,764.58a38.09,38.09,0,0,0-2.14,9A41.42,41.42,0,0,1,165,753.81v-3.23A45.94,45.94,0,0,0,144.39,764.58Z" transform="translate(-86.5 -109.94)"/><path class="cls-1" d="M110,827l-5.16,4.74a6.14,6.14,0,0,0,0,9.19l13.56,12.43a7.56,7.56,0,0,0,10,0l15.31-14a70.92,70.92,0,0,0,20.73,8.92v-3.12a67.41,67.41,0,0,1-21.07-9.72L126.1,851.25a4.18,4.18,0,0,1-5.4,0l-13.56-12.43a3.37,3.37,0,0,1-1.11-2.48,3.33,3.33,0,0,1,1.11-2.47l4.75-4.36-.58-.57A6.63,6.63,0,0,1,110,827Z" transform="translate(-86.5 -109.94)"/><path class="cls-1" d="M123.19,812.11l-2.39,2.39c.3.59.61,1.17.93,1.75l-9.27,8.5a3.51,3.51,0,0,0,1,2.07l.67.66,11.65-10.68C124.83,815.28,124,813.71,123.19,812.11Z" transform="translate(-86.5 -109.94)"/><path class="cls-1" d="M111.86,739.47a3.31,3.31,0,0,1,0-5l4.54-4.17-.76-.76a6.53,6.53,0,0,1-1.21-1.67l-4.89,4.48a6.14,6.14,0,0,0,0,9.19l14.22,13q.57-1.57,1.23-3.12Z" transform="translate(-86.5 -109.94)"/><path class="cls-1" d="M119.86,771.82l.13,0h0a57.08,57.08,0,0,1,8.54-17,1.51,1.51,0,0,1-.1-.17l0,0-1.1-1a59.77,59.77,0,0,0-2.1,6.13h0l-.12,0h-3.51a59,59,0,0,0-4,9H97.5v3h22.36Z" transform="translate(-86.5 -109.94)"/><path class="cls-1" d="M118.26,796.46l-.27-.06H93.59a3.67,3.67,0,0,1-3.82-3.5V775.31a3.67,3.67,0,0,1,3.82-3.5h.91v-3h-.91c-3.91,0-7.09,2.91-7.09,6.5V792.9c0,3.58,3.18,6.5,7.09,6.5h21.89a58,58,0,0,0,4,12.23l2.45-2.45A55,55,0,0,1,118.26,796.46Z" transform="translate(-86.5 -109.94)"/><path class="cls-1" d="M130.81,722.08l16.94,15.54a68,68,0,0,1,16.7-6.94v-3.12a72.12,72.12,0,0,0-16.2,6.27L133.13,720a7.58,7.58,0,0,0-10,0l-6.28,5.77a3.35,3.35,0,0,0,.94,1.74l.85.85,6.81-6.24A4.07,4.07,0,0,1,130.81,722.08Z" transform="translate(-86.5 -109.94)"/><path d="M558.46,322.68a8.71,8.71,0,0,1-2.63,1.49c1.45,1.86,2.83,3.78,4.16,5.74a9.77,9.77,0,0,1,2.8-1.21Q560.72,325.61,558.46,322.68Z" transform="translate(-86.5 -109.94)"/><path d="M561.66,332.41a112.41,112.41,0,0,1,10.09,19.76H575a113.71,113.71,0,0,0-10.41-20.78A7.67,7.67,0,0,0,561.66,332.41Z" transform="translate(-86.5 -109.94)"/><path d="M686.25,352.44H632a165,165,0,0,0-21-50.46l38.1-38.11a13.53,13.53,0,0,0,0-19.09l-33.58-33.59a13.52,13.52,0,0,0-19.09,0l-38.09,38.08a164.75,164.75,0,0,0-50.6-21.05V174a13.51,13.51,0,0,0-13.5-13.5h-47.5a13.52,13.52,0,0,0-13.5,13.5v54.22A165,165,0,0,0,383,249.07l-11.74-11.73V130.5H167V141h3v-7.5H368.29V352.17h3V336.38a111.56,111.56,0,0,1,182.5-14.74,6,6,0,0,0,2.79-1.3,114.51,114.51,0,0,0-185.29,10.35V241.86L382.36,253h0a161.7,161.7,0,0,1,54-22.42h0V174a10.51,10.51,0,0,1,10.5-10.5h47.5a10.51,10.51,0,0,1,10.5,10.5l-.47,56.53h0a161.68,161.68,0,0,1,54.5,22.56l0,0,0,0,39.77-39.77a10.52,10.52,0,0,1,14.85,0l33.58,33.59a10.54,10.54,0,0,1,0,14.85l-39.8,39.8,0,0a162.05,162.05,0,0,1,22.38,54.1l0,0-.06-.25h56.63a10.51,10.51,0,0,1,10.5,10.5v47.5a10.51,10.51,0,0,1-10.5,10.5H629.61a160.11,160.11,0,0,1-5.11,18.3v-63.9a21.57,21.57,0,0,0-21.5-21.5H143a21.53,21.53,0,0,0-21.5,21.5v306a21.57,21.57,0,0,0,21.5,21.5h22v10h0v0a62.66,62.66,0,0,0-13.87,6L137.26,708a6.51,6.51,0,0,0-9.19,0L115.64,720.4a6.41,6.41,0,0,0-1.9,4.59,6.46,6.46,0,0,0,1.9,4.6l.76.76,12.85,12.85a62,62,0,0,0-4.26,8.31q-.66,1.54-1.23,3.12c-.26.72-.53,1.44-.77,2.18H101a6.51,6.51,0,0,0-6.5,6.5V780.9a6.51,6.51,0,0,0,6.5,6.5h20.08a62.22,62.22,0,0,0,5.73,16.85l-4.93,4.93-2.45,2.45-8.12,8.12A6.53,6.53,0,0,0,110,827a6.63,6.63,0,0,0,1.32,1.93l.58.57,11.86,11.86a6.51,6.51,0,0,0,9.19,0l14-14A62.55,62.55,0,0,0,165,836v7.3a21.52,21.52,0,0,0,21.5,21.5h64.91v42.42h161v-121H386.67c.21-.49.41-1,.59-1.53,4.28-12.85-8.19-21.33-12.82-24,2.85-3.93,9.65-15,4.6-25.89h60a21.52,21.52,0,0,0,21.5-21.5v-4.16H309.25v-3.3H530.5v27.5h6v-27.5H603a21.52,21.52,0,0,0,21.5-21.5V558.87l24.6-24.6a13.51,13.51,0,0,0,0-19.1l-24.6-24.6V450.94a164.8,164.8,0,0,0,7.53-24h54.22a13.52,13.52,0,0,0,13.5-13.5v-47.5A13.51,13.51,0,0,0,686.25,352.44Zm-539.58,471-15.85,15.84a3.59,3.59,0,0,1-4.95,0L114.1,827.48l-.67-.66a3.51,3.51,0,0,1-1-2.07,2.71,2.71,0,0,1,0-.41,3.47,3.47,0,0,1,1-2.47l7.37-7.37,2.39-2.39,7.31-7.31a59,59,0,0,1-6.87-20.34l-.25-.06H101a3.5,3.5,0,0,1-3.5-3.5V763.31a3.5,3.5,0,0,1,3.5-3.5h24.1l.12,0h0a60,60,0,0,1,7.84-17,1.51,1.51,0,0,1-.1-.17l0,0-14.36-14.37-.85-.85a3.35,3.35,0,0,1-.94-1.74,3.65,3.65,0,0,1-.08-.74,3.45,3.45,0,0,1,1-2.47l12.43-12.44a3.51,3.51,0,0,1,4.95,0l15.54,15.54A59.3,59.3,0,0,1,165,719v20.18A42.05,42.05,0,0,0,139,778c0,1.35.07,2.68.2,4A42.08,42.08,0,0,0,165,816.83v16A59.52,59.52,0,0,1,146.67,823.41ZM165,753.81v59.74A39,39,0,0,1,142,778a40.17,40.17,0,0,1,.25-4.41,38.09,38.09,0,0,1,2.14-9A39.19,39.19,0,0,1,165,742.45v11.36Zm3,89.44V821.5H306.25v21.75a18.52,18.52,0,0,1-18.5,18.5H186.5A18.52,18.52,0,0,1,168,843.25ZM306.25,626.5H168V612.66c0-10.57,8.3-19.16,18.5-19.16H287.75c10.2,0,18.5,8.59,18.5,19.16Zm0,3V731c-5.76.83-12.1,3.88-15.32,12.51a13.07,13.07,0,0,0,.5,10.4c2.62,5.72,8.77,10.6,14.82,14.28v50.3H168v-189Zm3,140.44a96.77,96.77,0,0,0,12.14,5.64l1.44.53,3.66-10.83-7-3.76L345,751,353,778l-7.65-3.06-4.49,10.33,2,.94H309.25ZM271.41,906.17h-19v-19h19Zm0-20h-19v-19h19Zm-19-20v-1.42h19v1.42Zm39,40h-19v-19h19Zm0-20h-19v-19h19Zm20,20h-19v-19h19Zm0-20h-19v-19h19Zm0-20h-19V864.5h-1v1.67h-19v-1.42h15.34a21.52,21.52,0,0,0,21.13-17.58h2.53Zm0-20H309a21.7,21.7,0,0,0,.22-2.92V827.17h2.16Zm0-20h-2.16v-19h2.16Zm0-20h-2.16v-19h2.16Zm20,100h-19v-19h19Zm0-20h-19v-19h19Zm0-20h-19v-19h19Zm0-20h-19v-19h19Zm0-20h-19v-19h19Zm0-20h-19v-19h19Zm20,100h-19v-19h19Zm0-20h-19v-19h19Zm0-20h-19v-19h19Zm0-20h-19v-19h19Zm0-20h-19v-19h19Zm-19-20v-19h12.67l6.33,2.92v16.08Zm39-12.87a24.34,24.34,0,0,1-8.84-.82l-10.16-4.86v-.45h19Zm0,112.87h-19v-19h19Zm0-20h-19v-19h19Zm0-20h-19v-19h19Zm0-20h-19v-19h19Zm0-20h-19v-19h19Zm-19-20V790.55l9.5,4.39a23.24,23.24,0,0,0,7.19,1.24c.73,0,1.51,0,2.31-.09v10.08Zm39,100h-19v-19h19Zm0-20h-19v-19h19Zm0-20h-19v-19h19Zm0-20h-19v-19h19Zm0-20h-19v-19h19Zm1-39h19v19h-19Zm0,20h19v19h-19Zm0,20h19v19h-19Zm0,20h19v19h-19Zm0,20h19v19h-19Zm0,20h19v19h-19Zm-1-100v19h-19V796c5-.59,10.68-2.74,13.77-8.82Zm-19,6v-6h10.33C380.18,791.06,376.19,792.66,372.41,793.18Zm-1.37-33-1.32,1.51,1.82.84c.7.32,17.22,8.12,12.87,21.16a15.68,15.68,0,0,1-1.07,2.48h-34l-5.2-2.5,2.78-4.9L357.65,783,347,747,312.5,761.15l10.34,5.57L321,772.2c-5.1-2.08-22.31-9.67-26.84-19.53a10.09,10.09,0,0,1-.41-8.09c5.75-15.39,22.9-10.05,23.63-9.82l1.63.52.31-1.68c.05-.29,1.44-7.3,8.42-8.36A14.18,14.18,0,0,1,339.58,729l1.11,1,2.19-1.38c4-2.31,17.78-8.7,28.52,1C385.93,742.75,371.65,759.47,371,760.18Zm86.46-48v1.16a18.52,18.52,0,0,1-18.5,18.5H377.3a25.08,25.08,0,0,0-3.89-4.4c-11.17-10.1-26-5.07-32.46-.88a16.77,16.77,0,0,0-13.68-4.23,13.29,13.29,0,0,0-10.51,9.23,31.12,31.12,0,0,0-7.51-.74V712.13ZM287.75,590.5H186.5A21.52,21.52,0,0,0,165,612v66H144.75V383h455V606.75a20.39,20.39,0,0,0-9.53-2.46,19.7,19.7,0,0,0-14.67,32.87l-39,34.18V582.43l29-23.4a13.38,13.38,0,1,0-3.48-4.9L536.5,574.72V546.65a13.53,13.53,0,1,0-6,.44V614l-23.1-25a19.82,19.82,0,1,0-4.47,4l27.57,29.81V678H511.81l-4-3.79-17.58-16.8a19.58,19.58,0,1,0-4.8,3.71l13.7,13.09,4,3.79H309.25V612A21.52,21.52,0,0,0,287.75,590.5Zm248.94-58.12a6.65,6.65,0,0,1-.36-2.58,17.45,17.45,0,0,0-.07-2.22.93.93,0,0,0-.33-.62,1.57,1.57,0,0,0-.93-.19h-.23v-1.34h.43a3.15,3.15,0,0,1,1.13.15,1.79,1.79,0,0,1,.83.69,2.88,2.88,0,0,1,.4,1.26,18.8,18.8,0,0,1,.08,2.1,10.43,10.43,0,0,0,.16,2.14,1.59,1.59,0,0,0,.52.86,1.47,1.47,0,0,0,.93.32v1.39a1.42,1.42,0,0,0-.76.2,1.54,1.54,0,0,0-.58.68,3.6,3.6,0,0,0-.24,1.23c0,.27,0,.87,0,1.81a9.27,9.27,0,0,1-.16,2,2.28,2.28,0,0,1-.48,1,1.84,1.84,0,0,1-.83.52,3.75,3.75,0,0,1-1,.09h-.43v-1.34H535a1.36,1.36,0,0,0,1.07-.32,2.5,2.5,0,0,0,.26-1.43c0-1.36,0-2.23.06-2.6a3.64,3.64,0,0,1,.5-1.61,2.56,2.56,0,0,1,1.06-.91A2.74,2.74,0,0,1,536.69,532.38Zm5.7,141.79L580.26,641a19.85,19.85,0,0,0,19.49.26V678H538.06Zm39.4-42.73a15.12,15.12,0,0,0-.25-3.37,2.56,2.56,0,0,0-.82-1.36,2.33,2.33,0,0,0-1.47-.51V624a2.37,2.37,0,0,0,1.21-.33,2.48,2.48,0,0,0,.91-1.08,5.68,5.68,0,0,0,.38-2c0-.42,0-1.37,0-2.86a15.18,15.18,0,0,1,.26-3.2,3.66,3.66,0,0,1,.76-1.53,3,3,0,0,1,1.32-.83,5.64,5.64,0,0,1,1.54-.15h.68v2.13H586a2.1,2.1,0,0,0-1.7.52,4.16,4.16,0,0,0-.41,2.27c0,2.11,0,3.45-.08,4a6,6,0,0,1-.72,2.55,4.59,4.59,0,0,1-1.77,1.53,3.92,3.92,0,0,1,2,1.91,10.47,10.47,0,0,1,.61,4.2c0,1.74,0,2.76,0,3.08a2.68,2.68,0,0,0,.31,1.12,1.08,1.08,0,0,0,.54.43,5.11,5.11,0,0,0,1.58.16v2.12h-.68a4.91,4.91,0,0,1-1.79-.23,2.81,2.81,0,0,1-1.32-1.09,4.5,4.5,0,0,1-.64-2A32.08,32.08,0,0,1,581.79,631.44Zm20.26-5.24a2.34,2.34,0,0,0-1.22.31,2.48,2.48,0,0,0-.91,1.08,5.56,5.56,0,0,0-.38,2c0,.41,0,1.37,0,2.86a15,15,0,0,1-.26,3.2,3.56,3.56,0,0,1-.77,1.53,2.75,2.75,0,0,1-1.31.82,5.64,5.64,0,0,1-1.54.15h-.69V636h.38a2.15,2.15,0,0,0,1.7-.52,4.09,4.09,0,0,0,.41-2.26c0-2.16,0-3.54.09-4.12a5.78,5.78,0,0,1,.79-2.57,4,4,0,0,1,1.69-1.43,4.37,4.37,0,0,1-2-2,10.89,10.89,0,0,1-.56-4.1,29.51,29.51,0,0,0-.11-3.51,1.62,1.62,0,0,0-.52-1,2.57,2.57,0,0,0-1.48-.3h-.38v-2.13h.69a4.9,4.9,0,0,1,1.79.24,2.75,2.75,0,0,1,1.32,1.09,4.67,4.67,0,0,1,.64,2,32.6,32.6,0,0,1,.12,3.33,15.69,15.69,0,0,0,.26,3.38,2.59,2.59,0,0,0,.82,1.37,2.38,2.38,0,0,0,1.48.51Zm-39.3-77.89v-1l7.5-3.78v1.18l-6.09,3.12,6.09,3.1v1.17Zm13.2-6.7h1.12l-4.43,13.66h-1.11Zm2.3,3.06v-1.18l7.5,3.78v1l-7.5,3.75v-1.17l6.09-3.1Zm-50.84-9.82a6.57,6.57,0,0,1,.38,2.65c0,1.09,0,1.74,0,1.94a1.67,1.67,0,0,0,.2.7.63.63,0,0,0,.34.27,3,3,0,0,0,1,.1v1.34h-.43a3.37,3.37,0,0,1-1.13-.14A1.75,1.75,0,0,1,527,541a2.88,2.88,0,0,1-.41-1.27c0-.37-.07-1.08-.08-2.1a9.76,9.76,0,0,0-.15-2.13,1.77,1.77,0,0,0-.52-.86,1.47,1.47,0,0,0-.93-.32V533a1.52,1.52,0,0,0,.76-.2,1.57,1.57,0,0,0,.58-.69,3.4,3.4,0,0,0,.23-1.23q0-.39,0-1.8a9.18,9.18,0,0,1,.17-2,2.17,2.17,0,0,1,.48-1,1.83,1.83,0,0,1,.83-.53,3.66,3.66,0,0,1,1-.09h.44v1.34h-.24a1.32,1.32,0,0,0-1.07.33,2.62,2.62,0,0,0-.26,1.43c0,1.33,0,2.18,0,2.54a3.82,3.82,0,0,1-.45,1.61,2.83,2.83,0,0,1-1.12,1A2.52,2.52,0,0,1,527.41,534.85Zm-45.5,49v-2.94h19.74v2.94Zm0-9.46v-2.95h19.74v2.95ZM530.5,681v14.86L515,681Zm-48.43-42.21V637l11,5.53v1.52l-11,5.5v-1.71l8.92-4.54Zm-8.22,15.52h-1.63l6.49-20h1.63Zm-3.5-6.42v1.72l-11-5.5v-1.52l11-5.53v1.72l-8.91,4.58Zm-161.1,51.32V681h197l19.05,18.21,3.84,3.66H309.25ZM621.5,684.33a18.52,18.52,0,0,1-18.5,18.5H536.5V681h66.25V639.24a19.71,19.71,0,0,0,0-30.45V380h-461V681H165v21.87H143a18.56,18.56,0,0,1-18.5-18.5v-306a18.52,18.52,0,0,1,18.5-18.5H603a18.51,18.51,0,0,1,16.21,9.61,18.31,18.31,0,0,1,2.29,8.89ZM647,517.3a10.5,10.5,0,0,1,0,14.85L624.5,554.63V494.81Z" transform="translate(-86.5 -109.94)"/><rect x="80.5" y="34.06" width="3" height="208.17"/><rect x="118.38" y="214.56" width="20.5" height="20.5"/><polygon points="108.88 205.06 108.88 235.06 115.38 235.06 115.38 211.56 138.88 211.56 138.88 205.06 108.88 205.06"/><rect x="172.38" y="214.56" width="20.5" height="20.5"/><polygon points="162.88 205.06 162.88 235.06 169.38 235.06 169.38 211.56 192.88 211.56 192.88 205.06 162.88 205.06"/><polygon points="115.13 169.56 138.63 169.56 138.63 163.06 108.63 163.06 108.63 193.06 115.13 193.06 115.13 169.56"/><rect x="118.13" y="172.56" width="20.5" height="20.5"/><path class="cls-1" d="M201.63,303v9.5h33v-33h-33Zm3,0V282.5h27v27h-27Z" transform="translate(-86.5 -109.94)"/><polygon points="192.63 169.56 192.63 163.06 162.63 163.06 162.63 193.06 169.13 193.06 169.13 169.56 192.63 169.56"/><rect x="172.13" y="172.56" width="20.5" height="20.5"/><path class="cls-1" d="M255.63,279.5v33h33v-33h-33Zm30,30h-27v-27h27Z" transform="translate(-86.5 -109.94)"/><polygon points="115.13 127.56 138.63 127.56 138.63 121.06 108.63 121.06 108.63 151.06 115.13 151.06 115.13 127.56"/><rect x="118.13" y="130.56" width="20.5" height="20.5"/><path class="cls-1" d="M201.63,261v9.5h33v-33h-33Zm3,0V240.5h27v27h-27Z" transform="translate(-86.5 -109.94)"/><polygon points="192.63 127.56 192.63 121.06 162.63 121.06 162.63 151.06 169.13 151.06 169.13 127.56 192.63 127.56"/><rect x="172.13" y="130.56" width="20.5" height="20.5"/><path class="cls-1" d="M255.63,237.5v33h33v-33h-33Zm30,30h-27v-27h27Z" transform="translate(-86.5 -109.94)"/><polygon points="246.63 205.06 246.63 163.06 246.63 130.56 226.13 130.56 226.13 235.06 246.63 235.06 246.63 205.06"/><polygon points="216.63 121.06 216.63 163.06 216.63 205.06 216.63 235.06 223.13 235.06 223.13 127.56 246.63 127.56 246.63 121.06 216.63 121.06"/><rect x="118.13" y="88.56" width="20.5" height="20.5"/><polygon points="115.13 85.56 138.63 85.56 138.63 79.06 108.63 79.06 108.63 109.06 115.13 109.06 115.13 85.56"/><path class="cls-1" d="M201.63,219v9.5h33v-33h-33Zm3,0V198.5h27v27h-27Z" transform="translate(-86.5 -109.94)"/><rect x="226.13" y="88.56" width="20.5" height="20.5"/><polygon points="223.13 85.56 246.63 85.56 246.63 79.06 216.63 79.06 216.63 109.06 223.13 109.06 223.13 85.56"/><path class="cls-1" d="M309.63,219v9.5h33v-33h-33Zm3,0V198.5h27v27h-27Z" transform="translate(-86.5 -109.94)"/><polygon points="115.13 43.56 192.63 43.56 192.63 37.06 138.63 37.06 108.63 37.06 108.63 67.06 115.13 67.06 115.13 43.56"/><polygon points="162.63 67.06 162.63 73.56 172.13 73.56 172.13 109.06 192.63 109.06 192.63 67.06 192.63 46.56 118.13 46.56 118.13 67.06 138.63 67.06 162.63 67.06"/><rect x="162.63" y="76.56" width="6.5" height="32.5"/><path class="cls-1" d="M201.63,177v9.5h54v42h33v-75h-87Zm3,0V156.5h81v69h-27v-42h-54Z" transform="translate(-86.5 -109.94)"/><polygon points="223.13 43.56 246.63 43.56 246.63 37.06 216.63 37.06 216.63 67.06 223.13 67.06 223.13 43.56"/><rect x="226.13" y="46.56" width="20.5" height="20.5"/><path class="cls-1" d="M309.63,177v9.5h33v-33h-33Zm3,0V156.5h27v27h-27Z" transform="translate(-86.5 -109.94)"/><polygon class="cls-1" points="425.31 568.02 444 568.02 444 566.66 444 564.23 421.34 564.23 425.31 568.02"/><path class="cls-1" d="M599.75,606.75V383h-4.92v221.9A19.51,19.51,0,0,1,599.75,606.75Z" transform="translate(-86.5 -109.94)"/><polygon class="cls-1" points="222.75 568.02 416.63 568.02 412.66 564.23 222.75 564.23 222.75 568.02"/><path class="cls-1" d="M599.75,641.27a19.51,19.51,0,0,1-4.92,1.89v31H542.39L538.06,678h61.69Z" transform="translate(-86.5 -109.94)"/><rect class="cls-1" x="58.25" y="564.23" width="20.25" height="3.79"/><path class="cls-1" d="M121.5,378.33a21.53,21.53,0,0,1,21.5-21.5H603a21.35,21.35,0,0,1,11.6,3.43,22.47,22.47,0,0,0-17.27-8.09H357.5V141H157V352.17H134.67a22.52,22.52,0,0,0-22.5,22.5v302A22.53,22.53,0,0,0,126,697.42a21.35,21.35,0,0,1-4.48-13.09Zm83.38-26.83v-27h27v27Zm54,0v-27h27v27Zm53.75,0v-111h27v111ZM160,144H354.5V352.17H342.63V237.5h-33V352.17H288.88V321.5h-33v30.67h-21V321.5h-33v30.67H160Z" transform="translate(-86.5 -109.94)"/><path class="cls-1" d="M619.83,676.67v-302a22.55,22.55,0,0,0-.62-5.23A18.51,18.51,0,0,0,603,359.83H143a18.52,18.52,0,0,0-18.5,18.5v306A18.46,18.46,0,0,0,131.73,699a21.88,21.88,0,0,0,2.94.2H165V681H141.75v-6.79h-4.58v-297H594.83V380h7.92V608.79a19.71,19.71,0,0,1,0,30.45V681H536.5v18.21h60.83A22.53,22.53,0,0,0,619.83,676.67Z" transform="translate(-86.5 -109.94)"/><polygon class="cls-1" points="419.76 571.02 222.75 571.02 222.75 589.23 438.82 589.23 419.76 571.02"/><polygon class="cls-1" points="444 571.02 428.45 571.02 444 585.88 444 571.02"/><line class="cls-2" x1="78.5" y1="605.92" x2="78.5" y2="609.04"/><line class="cls-2" x1="78.5" y1="605.92" x2="78.5" y2="605.91"/><path d="M260.67,604H214a6.5,6.5,0,0,0,0,13h46.67a6.5,6.5,0,1,0,0-13Zm0,10H214a3.5,3.5,0,0,1,0-7h46.67a3.5,3.5,0,1,1,0,7Z" transform="translate(-86.5 -109.94)"/><path d="M237.91,827.91a13.5,13.5,0,1,0,13.5,13.5A13.51,13.51,0,0,0,237.91,827.91Zm0,24a10.5,10.5,0,1,1,10.5-10.5A10.51,10.51,0,0,1,237.91,851.91Z" transform="translate(-86.5 -109.94)"/><rect class="cls-1" x="98.5" y="545.06" width="79.17" height="6"/><rect class="cls-1" x="98.5" y="573.06" width="79.17" height="6"/><rect class="cls-1" x="98.5" y="601.06" width="57" height="6"/><path class="cls-1" d="M185.08,806.29H242V749.37H185.08Zm6-50.92H236v44.92H191.08Z" transform="translate(-86.5 -109.94)"/><circle cx="78.17" cy="299.77" r="2.75"/><circle cx="78.17" cy="321.27" r="2.75"/><circle cx="78.17" cy="342.77" r="2.75"/><circle cx="78.17" cy="364.27" r="2.75"/><circle cx="78.17" cy="385.77" r="2.75"/><circle cx="78.17" cy="407.27" r="2.75"/><circle cx="78.17" cy="428.77" r="2.75"/><circle cx="78.17" cy="450.27" r="2.75"/><circle cx="78.17" cy="471.77" r="2.75"/><rect x="96.92" y="298.27" width="52.33" height="3"/><rect x="169.25" y="298.27" width="84.08" height="3"/><rect x="96.92" y="319.77" width="39.08" height="3"/><rect x="96.92" y="427.27" width="86.83" height="3"/><rect class="cls-1" x="96.92" y="448.77" width="86.83" height="3"/><rect class="cls-1" x="191.33" y="448.77" width="86.83" height="3"/><rect x="287.83" y="448.77" width="30.17" height="3"/><rect x="200.92" y="427.27" width="34.83" height="3"/><rect x="246.25" y="427.27" width="32.75" height="3"/><rect x="290.75" y="427.27" width="47.5" height="3"/><rect x="116.92" y="341.27" width="49.58" height="3"/><rect x="116.92" y="362.77" width="45.08" height="3"/><rect class="cls-1" x="156.92" y="384.27" width="31.92" height="3"/><rect x="196.83" y="384.27" width="66.83" height="3"/><rect class="cls-1" x="272.08" y="384.27" width="64.58" height="3"/><rect x="174" y="362.77" width="41" height="3"/><rect x="231.29" y="362.77" width="168.54" height="3"/><rect class="cls-1" x="174.5" y="341.27" width="127.67" height="3"/><rect class="cls-1" x="142.83" y="319.77" width="86.17" height="3"/><rect x="237.83" y="319.77" width="47.83" height="3"/><polygon class="cls-1" points="483.27 660.68 513.89 660.68 518.26 647.39 488.1 647.39 483.27 660.68"/><polygon class="cls-1" points="341.17 647.39 351.74 634.11 342.31 634.11 321.17 660.68 335.19 660.68 354.88 660.68 350.29 647.39 341.17 647.39"/><polygon class="cls-1" points="484.9 647.39 353.83 647.39 353.46 647.39 358.06 660.68 480.08 660.68 484.9 647.39"/><polygon class="cls-1" points="517.05 660.68 528.1 660.68 521.68 647.39 521.42 647.39 517.05 660.68"/><path d="M603,733.33H446.77l-8.53,10.72-10.57,13.28h9.12l4.59,13.29,23.26,67.21H581.43l22.12-67.21,4.37-13.29h6.68ZM444.56,770.62,440,757.33H571.4l-4.82,13.29-23.3,64.21H466.77Zm155.83,0-21.13,64.21H546.47l23.31-64.21,4.82-13.29h30.16Z" transform="translate(-86.5 -109.94)"/><polygon class="cls-3" points="383.85 527.08 372.88 532.61 372.88 534.13 383.85 539.63 383.85 537.91 374.94 533.38 383.85 528.8 383.85 527.08"/><polygon class="cls-3" points="385.72 544.33 387.35 544.33 393.84 524.32 392.2 524.32 385.72 544.33"/><polygon class="cls-3" points="395.57 539.63 406.55 534.13 406.55 532.61 395.57 527.08 395.57 528.81 404.49 533.38 395.57 537.92 395.57 539.63"/><rect class="cls-3" x="395.41" y="461.53" width="19.74" height="2.95"/><rect class="cls-3" x="395.41" y="471" width="19.74" height="2.95"/><path class="cls-3" d="M582.56,636.79a2.81,2.81,0,0,0,1.32,1.09,4.91,4.91,0,0,0,1.79.23h.68V636a5.11,5.11,0,0,1-1.58-.16,1.08,1.08,0,0,1-.54-.43,2.68,2.68,0,0,1-.31-1.12c0-.32,0-1.34,0-3.08a10.47,10.47,0,0,0-.61-4.2,3.92,3.92,0,0,0-2-1.91,4.59,4.59,0,0,0,1.77-1.53,6,6,0,0,0,.72-2.55c.05-.58.08-1.92.08-4a4.16,4.16,0,0,1,.41-2.27,2.1,2.1,0,0,1,1.7-.52h.37v-2.13h-.68a5.64,5.64,0,0,0-1.54.15,3,3,0,0,0-1.32.83,3.66,3.66,0,0,0-.76,1.53,15.18,15.18,0,0,0-.26,3.2c0,1.49,0,2.44,0,2.86a5.68,5.68,0,0,1-.38,2,2.48,2.48,0,0,1-.91,1.08,2.37,2.37,0,0,1-1.21.33v2.21a2.33,2.33,0,0,1,1.47.51,2.56,2.56,0,0,1,.82,1.36,15.12,15.12,0,0,1,.25,3.37,32.08,32.08,0,0,0,.13,3.34A4.5,4.5,0,0,0,582.56,636.79Z" transform="translate(-86.5 -109.94)"/><path class="cls-3" d="M599.75,622.11a15.69,15.69,0,0,1-.26-3.38,32.6,32.6,0,0,0-.12-3.33,4.67,4.67,0,0,0-.64-2,2.75,2.75,0,0,0-1.32-1.09,4.9,4.9,0,0,0-1.79-.24h-.69v2.13h.38a2.57,2.57,0,0,1,1.48.3,1.62,1.62,0,0,1,.52,1,29.51,29.51,0,0,1,.11,3.51,10.89,10.89,0,0,0,.56,4.1,4.37,4.37,0,0,0,2,2,4,4,0,0,0-1.69,1.43,5.78,5.78,0,0,0-.79,2.57c-.06.58-.09,2-.09,4.12a4.09,4.09,0,0,1-.41,2.26,2.15,2.15,0,0,1-1.7.52h-.38v2.12h.69a5.64,5.64,0,0,0,1.54-.15,2.75,2.75,0,0,0,1.31-.82,3.56,3.56,0,0,0,.77-1.53,15,15,0,0,0,.26-3.2c0-1.49,0-2.45,0-2.86a5.56,5.56,0,0,1,.38-2,2.48,2.48,0,0,1,.91-1.08,2.34,2.34,0,0,1,1.22-.31V624a2.38,2.38,0,0,1-1.48-.51A2.59,2.59,0,0,1,599.75,622.11Z" transform="translate(-86.5 -109.94)"/><path class="cls-3" d="M527.29,532.68a3.82,3.82,0,0,0,.45-1.61c0-.36,0-1.21,0-2.54a2.62,2.62,0,0,1,.26-1.43,1.32,1.32,0,0,1,1.07-.33h.24v-1.34h-.44a3.66,3.66,0,0,0-1,.09,1.83,1.83,0,0,0-.83.53,2.17,2.17,0,0,0-.48,1,9.18,9.18,0,0,0-.17,2q0,1.41,0,1.8a3.4,3.4,0,0,1-.23,1.23,1.57,1.57,0,0,1-.58.69,1.52,1.52,0,0,1-.76.2v1.39a1.47,1.47,0,0,1,.93.32,1.77,1.77,0,0,1,.52.86,9.76,9.76,0,0,1,.15,2.13c0,1,0,1.73.08,2.1A2.88,2.88,0,0,0,527,541a1.75,1.75,0,0,0,.83.69,3.37,3.37,0,0,0,1.13.14h.43v-1.34a3,3,0,0,1-1-.1.63.63,0,0,1-.34-.27,1.67,1.67,0,0,1-.2-.7c0-.2,0-.85,0-1.94a6.57,6.57,0,0,0-.38-2.65,2.52,2.52,0,0,0-1.24-1.21A2.83,2.83,0,0,0,527.29,532.68Z" transform="translate(-86.5 -109.94)"/><path class="cls-3" d="M536.89,534.55a3.64,3.64,0,0,0-.5,1.61c0,.37-.06,1.24-.06,2.6a2.5,2.5,0,0,1-.26,1.43,1.36,1.36,0,0,1-1.07.32h-.23v1.34h.43a3.75,3.75,0,0,0,1-.09,1.84,1.84,0,0,0,.83-.52,2.28,2.28,0,0,0,.48-1,9.27,9.27,0,0,0,.16-2c0-.94,0-1.54,0-1.81a3.6,3.6,0,0,1,.24-1.23,1.54,1.54,0,0,1,.58-.68,1.42,1.42,0,0,1,.76-.2V533a1.47,1.47,0,0,1-.93-.32,1.59,1.59,0,0,1-.52-.86,10.43,10.43,0,0,1-.16-2.14,18.8,18.8,0,0,0-.08-2.1,2.88,2.88,0,0,0-.4-1.26,1.79,1.79,0,0,0-.83-.69,3.15,3.15,0,0,0-1.13-.15h-.43v1.34H535a1.57,1.57,0,0,1,.93.19.93.93,0,0,1,.33.62,17.45,17.45,0,0,1,.07,2.22,6.65,6.65,0,0,0,.36,2.58,2.74,2.74,0,0,0,1.26,1.26A2.56,2.56,0,0,0,536.89,534.55Z" transform="translate(-86.5 -109.94)"/><polygon class="cls-3" points="483.75 440.95 477.66 437.85 483.75 434.73 483.75 433.56 476.25 437.33 476.25 438.37 483.75 442.12 483.75 440.95"/><polygon class="cls-3" points="490.57 431.67 489.45 431.67 485.02 445.33 486.14 445.33 490.57 431.67"/><polygon class="cls-3" points="491.75 442.12 499.25 438.37 499.25 437.33 491.75 433.56 491.75 434.73 497.84 437.85 491.75 440.95 491.75 442.12"/><path d="M433.46,845.67a2.29,2.29,0,1,0,1.54,4l.18-.19a2.28,2.28,0,0,0-1.72-3.79Z" transform="translate(-86.5 -109.94)"/><path d="M434.23,838.39a9.25,9.25,0,0,0-6,2.25,0,0,0,0,0,0,0,7.48,7.48,0,0,1,.88,1.85,7.3,7.3,0,0,1,12.46,5.1h2A9.31,9.31,0,0,0,434.23,838.39Z" transform="translate(-86.5 -109.94)"/><path d="M435,831.89a14.16,14.16,0,0,0-9.41,3.58c.06.11,1,1.28,1.21,1.59a12.26,12.26,0,0,1,20.48,9.11,11.64,11.64,0,0,1-.1,1.45h2a13.94,13.94,0,0,0,.08-1.45A14.29,14.29,0,0,0,435,831.89Z" transform="translate(-86.5 -109.94)"/><path d="M435.29,823.54a21,21,0,0,0-15.62,7,6.37,6.37,0,0,1,1.8,1,19,19,0,0,1,32.68,16.09h.39a8.13,8.13,0,0,1,1.64-.07,20.57,20.57,0,0,0,.22-2.86A21.13,21.13,0,0,0,435.29,823.54Z" transform="translate(-86.5 -109.94)"/><polygon points="365.25 316.56 349.5 302.56 348 322.31 354.25 315.06 365.25 316.56"/><path d="M635.83,318.61a12.67,12.67,0,1,0,12.67-12.67A12.69,12.69,0,0,0,635.83,318.61Zm22.34,0a9.67,9.67,0,1,1-9.67-9.67A9.68,9.68,0,0,1,658.17,318.61Z" transform="translate(-86.5 -109.94)"/><polygon points="322.89 19.45 330.5 11.85 338.11 19.45 340.23 17.33 332.62 9.73 340.23 2.12 338.11 0 330.5 7.61 322.89 0 320.77 2.12 328.38 9.73 320.77 17.33 322.89 19.45"/><path class="cls-1" d="M546.36,319.16h0c-.71-2.53-3.5-4.44-7.06-4.78-4-.38-8.63,1.33-9.67,4.85h0c-.26,1.06-1.91,2.32-4.48,2.56-3.19.3-6.07-1.14-6.5-2.62h0c-.71-2.53-3.5-4.44-7.06-4.78-4-.38-8.63,1.33-9.67,4.85h0c-.26,1.06-1.91,2.32-4.48,2.56-3.19.3-6.07-1.14-6.5-2.62h0c-.71-2.53-3.5-4.44-7.06-4.78-4-.38-8.69,1.35-9.69,4.91l2.89.81c.48-1.71,3.59-3,6.51-2.74,2.23.22,4.13,1.34,4.48,2.63h0c.91,3.15,4.87,4.83,8.57,4.83.37,0,.73,0,1.09-.05,3.56-.33,6.35-2.21,7.05-4.68h.05c.48-1.71,3.59-3,6.51-2.74,2.23.22,4.13,1.34,4.48,2.63h0c.91,3.15,4.87,4.83,8.57,4.83.37,0,.73,0,1.09-.05,3.56-.33,6.35-2.21,7.05-4.68h0c.48-1.71,3.59-3,6.51-2.74,2.23.22,4.13,1.34,4.48,2.63h0c.91,3.15,4.87,4.83,8.57,4.83.37,0,.73,0,1.09-.05a10.89,10.89,0,0,0,2.69-.6,8.71,8.71,0,0,0,2.63-1.49,5.43,5.43,0,0,0,1.73-2.59h0c.48-1.71,3.59-3,6.51-2.74,2.23.22,4.13,1.34,4.48,2.63h0c.91,3.15,4.87,4.83,8.57,4.83.37,0,.73,0,1.09-.05,3.64-.34,6.5-2.29,7.11-4.85l-2.91-.7c-.26,1.06-1.91,2.32-4.48,2.56-3.19.3-6.07-1.14-6.5-2.62h0c-.71-2.53-3.5-4.44-7.06-4.78-4-.38-8.63,1.33-9.67,4.85h0a2.41,2.41,0,0,1-.76,1.12,6,6,0,0,1-2.79,1.3,8.28,8.28,0,0,1-.93.14C549.67,322.08,546.79,320.64,546.36,319.16Z" transform="translate(-86.5 -109.94)"/><path class="cls-1" d="M566.75,331.31c2.23.22,4.13,1.34,4.48,2.63h0c.91,3.15,4.87,4.83,8.57,4.83.37,0,.73,0,1.09,0,3.64-.34,6.5-2.29,7.11-4.85l-2.91-.7c-.26,1.06-1.91,2.32-4.48,2.56-3.2.3-6.07-1.14-6.5-2.62h0c-.71-2.53-3.5-4.44-7.06-4.78a12.25,12.25,0,0,0-4.25.37,9.77,9.77,0,0,0-2.8,1.21,6,6,0,0,0-2.62,3.27h0c-.26,1.06-1.91,2.32-4.48,2.56-3.2.3-6.07-1.14-6.5-2.62h0c-.71-2.53-3.5-4.44-7.06-4.78-4-.38-8.63,1.33-9.67,4.85h0c-.26,1.06-1.91,2.32-4.48,2.56-3.2.3-6.07-1.14-6.5-2.62h0c-.71-2.53-3.5-4.44-7.06-4.78-4-.38-8.63,1.33-9.67,4.85h0c-.26,1.06-1.91,2.32-4.48,2.56-3.2.3-6.07-1.14-6.5-2.62h0c-.71-2.53-3.5-4.44-7.06-4.78-4-.38-8.69,1.35-9.69,4.92l2.89.8c.48-1.71,3.59-3,6.51-2.74,2.23.22,4.13,1.34,4.48,2.63h0c.91,3.15,4.87,4.83,8.57,4.83.37,0,.73,0,1.09,0,3.56-.33,6.35-2.21,7.05-4.68h.05c.48-1.71,3.59-3,6.51-2.74,2.23.22,4.13,1.34,4.48,2.63h0c.91,3.15,4.87,4.83,8.57,4.83.37,0,.73,0,1.09,0,3.56-.33,6.35-2.21,7.05-4.68h0c.48-1.71,3.59-3,6.51-2.74,2.23.22,4.13,1.34,4.48,2.63h0c.91,3.15,4.87,4.83,8.57,4.83.37,0,.73,0,1.09,0,3.56-.33,6.35-2.21,7.05-4.68h0a3,3,0,0,1,1.42-1.64,7.67,7.67,0,0,1,2.89-1A8.53,8.53,0,0,1,566.75,331.31Z" transform="translate(-86.5 -109.94)"/></g></svg>