<?xml version="1.0" encoding="utf-8"?>
<!-- Generator: Adobe Illustrator 22.1.0, SVG Export Plug-In . SVG Version: 6.00 Build 0)  -->
<svg version="1.1" id="Capa_1" xmlns="http://www.w3.org/2000/svg" xmlns:xlink="http://www.w3.org/1999/xlink" x="0px" y="0px"
	 viewBox="0 0 385 385" style="enable-background:new 0 0 385 385;" xml:space="preserve">
<g>
	<g id="Menu">
		<path d="M12,84.2h360.9c6.6,0,12-5.4,12-12c0-6.6-5.4-12-12-12H12c-6.6,0-12,5.4-12,12S5.4,84.2,12,84.2z"/>
		<path d="M377.1,180.5H140.9c-4.3,0-11.2,5.4-11.2,12s6.9,12,11.2,12h236.2c4.3,0,7.9-5.4,7.9-12S381.4,180.5,377.1,180.5z"/>
		<path d="M374.2,300.8H50.5c-6,0-12.5,5.4-12.5,12c0,6.6,6.5,12,12.5,12h323.7c6,0,10.8-5.4,10.8-12
			C385,306.1,380.1,300.8,374.2,300.8z"/>
	</g>
</g>
</svg>
