<svg id="Шар_11_копія_2" data-name="Шар 11 копія 2" xmlns="http://www.w3.org/2000/svg" viewBox="0 0 610 798.15"><defs><style>.cls-1{fill:#b4c85a;}.cls-2{fill:none;stroke:#b4c85a;stroke-linecap:round;stroke-linejoin:round;stroke-width:0;}.cls-3{fill:#fff;}</style></defs><title>promotion</title><path class="cls-1" d="M278.94,268c-.93.7-1.83,1.43-2.73,2.16s-1.52,1.26-2.26,1.9l-.8.69-.16.14c-.68.6-1.34,1.21-2,1.82l-.9.86c-.56.53-1.12,1.07-1.66,1.62-.33.33-.65.68-1,1-.14.16-.29.3-.43.46q-1.56,1.65-3,3.36h0c-1,1.15-2,2.32-2.9,3.51s-1.7,2.23-2.52,3.36q-2.31,3.23-4.35,6.63l0,0q-1.23,2.06-2.35,4.16l-.48.91c-.53,1-1,2-1.52,3.07-.25.52-.5,1-.74,1.57s-.53,1.18-.78,1.77c-.41.95-.81,1.91-1.19,2.88-.18.45-.34.91-.51,1.37-.33.88-.65,1.78-1,2.67-.11.33-.23.66-.33,1-.39,1.17-.75,2.36-1.08,3.55-.1.33-.19.65-.28,1-.34,1.24-.65,2.49-.94,3.75-.06.25-.12.51-.17.76-.3,1.35-.58,2.71-.82,4.08h40.83A55.73,55.73,0,0,1,307,296l-23.66-23.66-2.23-2.24Z" transform="translate(-89.5 -110.13)"/><path d="M410.64,283.85c-.6-.72-1.21-1.44-1.83-2.15a146.69,146.69,0,0,0,3.3,70.47h3.11A143.66,143.66,0,0,1,423.71,247h-3.34a145.53,145.53,0,0,0-10.78,31l1.05,1.16Z" transform="translate(-89.5 -110.13)"/><path d="M544.85,232.46a21.61,21.61,0,1,0-21.6,21.61A21.63,21.63,0,0,0,544.85,232.46Zm-40.21,0a18.61,18.61,0,1,1,18.61,18.61A18.63,18.63,0,0,1,504.64,232.46Z" transform="translate(-89.5 -110.13)"/><path d="M490.75,291.51l18.83,44.15a42.84,42.84,0,0,0-9.2,7.45,95.93,95.93,0,0,0-7.31,9.06h3.73a84.34,84.34,0,0,1,5.77-7,40,40,0,0,1,8.2-6.7l3.78,8.86,19.53-8.66,6,13.51h3.28l-6.53-14.72L562.65,326h0l1.41-.64,1.32-.59h0l28.93-13.17-1.34.68,8.06,15.8-53.13,24.1h7.27l28.9-13.11,6.36,13.11h3.34l-7-14.35,18.32-8.31L595.69,311,616,301.74l-4.43-9.42a40.28,40.28,0,0,1,12-1.45c10.38.38,23.22,3.64,23.35,3.68l2.62.67-.81-2.58a97.46,97.46,0,0,0-14.45-26.92c-12.64-16.49-28.74-24.84-46.7-24.36l-8-17.09c-.65-1.64-16.39-40.68-45.2-65.06C507.5,136.48,481.3,126.08,477,124.48l-.62-.23-1.36-.48-.53,1.34-.22.6c-1.56,4.19-10.88,30.62-11.8,65.83-1,37.73,17.68,75.45,18.47,77l8.47,19.86c-10.44,12-14.68,27.9-12.22,46.5a96.52,96.52,0,0,0,4,17.23h3.22C479.6,337.73,474.41,311.47,490.75,291.51ZM644.94,291a126.11,126.11,0,0,0-21.25-3.12,43.16,43.16,0,0,0-13.45,1.68L589,244.32C624.33,244.24,641,280.87,644.94,291ZM465.5,191.62a233.94,233.94,0,0,1,11.33-64.29,226,226,0,0,1,55.59,34.17,131.17,131.17,0,0,1,17.87,18.71l-83,35.63A130.13,130.13,0,0,1,465.5,191.62Zm18.21,75.74,0-.09a199.81,199.81,0,0,1-15.83-48.39l84.35-36.22a199.87,199.87,0,0,1,24.59,42.75L612,300.27l-95.84,43.08Z" transform="translate(-89.5 -110.13)"/><path d="M204.58,165.08a21.53,21.53,0,0,0-21.5,21.5V352.05h3v-148H324.33v42.39q1.5-.19,3-.33V186.58a21.52,21.52,0,0,0-21.5-21.5H204.58Zm119.75,22.16v13.84H186.08V187.24c0-10.56,8.3-19.16,18.5-19.16H305.83C316,168.08,324.33,176.68,324.33,187.24Z" transform="translate(-89.5 -110.13)"/><path d="M324.33,292v60.16h3V291.4C326.32,291.57,325.32,291.77,324.33,292Z" transform="translate(-89.5 -110.13)"/><path class="cls-1" d="M594.83,643.16v31H427.08a74.82,74.82,0,0,1,7.54,3.79H599.75V383h-4.92Z" transform="translate(-89.5 -110.13)"/><path class="cls-1" d="M121.5,378.33a21.53,21.53,0,0,1,21.5-21.5H603a21.35,21.35,0,0,1,11.6,3.43,22.52,22.52,0,0,0-5.24-4.59,22.44,22.44,0,0,0-12-3.5H199.48c-4.52-.06-9-.09-13.4-.11H174V172.5A18.52,18.52,0,0,1,192.5,154H281a18.49,18.49,0,0,1,16.91,11.08h3.25A21.52,21.52,0,0,0,281,151H192.5A21.53,21.53,0,0,0,171,172.5V352.07q-5.5,0-11,.1H134.67a22.52,22.52,0,0,0-22.5,22.5V498.5h9.33Z" transform="translate(-89.5 -110.13)"/><path class="cls-1" d="M597.33,699.17a22.53,22.53,0,0,0,22.5-22.5v-302a22.55,22.55,0,0,0-.62-5.23A18.51,18.51,0,0,0,603,359.83H143a18.52,18.52,0,0,0-18.5,18.5V498.5h12.67V377.17H594.83V380h7.92V681H439.46a76.43,76.43,0,0,1,18.86,18.21h139Z" transform="translate(-89.5 -110.13)"/><line class="cls-2" x1="93.58" y1="163.62" x2="93.45" y2="163.62"/><path d="M232.08,191.58h46.67a6.5,6.5,0,0,0,0-13H232.08a6.5,6.5,0,0,0,0,13Zm0-10h46.67a3.5,3.5,0,0,1,0,7H232.08a3.5,3.5,0,0,1,0-7Z" transform="translate(-89.5 -110.13)"/><polygon points="450.48 21.04 460.06 17.12 464.52 28.88 467.33 27.81 462.83 15.98 473.57 11.59 472.44 8.81 461.77 13.18 456.76 0 453.95 1.07 458.99 14.32 449.34 18.26 450.48 21.04"/><polygon points="510.27 43.83 521.18 39.37 526.27 52.76 529.46 51.55 524.34 38.07 536.57 33.07 535.28 29.9 523.13 34.88 517.42 19.87 514.22 21.08 519.96 36.17 508.98 40.67 510.27 43.83"/><polygon points="353.79 149.02 361.17 146 364.61 155.06 366.77 154.24 363.31 145.13 371.58 141.74 370.71 139.6 362.49 142.96 358.63 132.81 356.46 133.63 360.35 143.84 352.91 146.88 353.79 149.02"/><polygon points="512.41 112.75 519.79 109.73 523.23 118.79 525.39 117.97 521.93 108.85 530.21 105.46 529.33 103.32 521.11 106.69 517.25 96.53 515.09 97.36 518.97 107.56 511.54 110.61 512.41 112.75"/><polygon points="316.9 59.55 324.27 56.53 327.72 65.59 329.88 64.77 326.42 55.66 334.69 52.27 333.82 50.13 325.59 53.5 321.73 43.34 319.57 44.16 323.45 54.37 316.02 57.41 316.9 59.55"/><polygon points="303.5 112.37 311.77 108.98 315.63 119.14 318.05 118.22 314.17 108 323.44 104.21 322.46 101.81 313.25 105.58 308.92 94.2 306.5 95.12 310.85 106.56 302.52 109.97 303.5 112.37"/><polygon points="415.14 337.03 83 337.03 83 309.37 415.14 309.37 415.14 306.37 80 306.37 80 340.03 415.14 340.03 415.14 337.03"/><circle class="cls-1" cx="442.93" cy="318.24" r="10"/><path class="cls-1" d="M504.64,447.17V465.5h64v-64h-64v45.67Zm27.79-34.8a16,16,0,0,1,16,16,15.86,15.86,0,0,1-3.22,9.59l12.17,12.16-4.24,4.24L540.77,442a16,16,0,1,1-8.34-29.63Z" transform="translate(-89.5 -110.13)"/><path class="cls-3" d="M532.43,444.37a15.9,15.9,0,0,0,8.34-2.37l12.37,12.36,4.24-4.24L545.21,438a15.86,15.86,0,0,0,3.22-9.59,16,16,0,1,0-16,16Zm0-26a10,10,0,1,1-10,10A10,10,0,0,1,532.43,418.37Z" transform="translate(-89.5 -110.13)"/><rect class="cls-1" x="29" y="433.37" width="84" height="6"/><rect x="29" y="463.87" width="146" height="3"/><rect x="29" y="479.87" width="146" height="3"/><rect x="29" y="495.87" width="146" height="3"/><path class="cls-1" d="M196,625.75H118.5v21H196Zm-3,18H121.5v-15H193Z" transform="translate(-89.5 -110.13)"/><rect x="26.63" y="672.37" width="21" height="86.5"/><rect x="72.25" y="694.87" width="21" height="64"/><rect x="118" y="642.37" width="21" height="116.5"/><rect x="163.5" y="659.87" width="21" height="99"/><rect x="208.5" y="605.37" width="21" height="153.5"/><path d="M315,676l34.09-31.31a7.93,7.93,0,0,1-2-2.21l-34.09,31.31A7.93,7.93,0,0,1,315,676Z" transform="translate(-89.5 -110.13)"/><path d="M134,749.41a7.56,7.56,0,0,1-1.3,2.71l32.27,15.47a7.73,7.73,0,0,1,1.3-2.71Z" transform="translate(-89.5 -110.13)"/><path d="M269.36,729.92,305,686.62a7.62,7.62,0,0,1-2.31-1.91L267.05,728A7.62,7.62,0,0,1,269.36,729.92Z" transform="translate(-89.5 -110.13)"/><path d="M212,721.53l-36,41.34a7.62,7.62,0,0,1,2.26,2l36-41.33A7.65,7.65,0,0,1,212,721.53Z" transform="translate(-89.5 -110.13)"/><path d="M225.44,718.23a7.57,7.57,0,0,1-1.08,2.8l31.7,12.36a7.52,7.52,0,0,1,1.08-2.79Z" transform="translate(-89.5 -110.13)"/><path class="cls-1" d="M134.19,747.56a7.69,7.69,0,1,0-.24,1.85A7.57,7.57,0,0,0,134.19,747.56Z" transform="translate(-89.5 -110.13)"/><path class="cls-1" d="M176,762.87a7.56,7.56,0,0,0-9.77,2,7.73,7.73,0,0,0-1.3,2.71,8,8,0,0,0-.23,1.85,7.56,7.56,0,1,0,11.3-6.57Z" transform="translate(-89.5 -110.13)"/><path class="cls-1" d="M225.56,716.94A7.56,7.56,0,1,0,212,721.53a7.65,7.65,0,0,0,2.26,2,7.54,7.54,0,0,0,11.18-5.28A6.88,6.88,0,0,0,225.56,716.94Z" transform="translate(-89.5 -110.13)"/><path class="cls-1" d="M267.05,728a7.54,7.54,0,0,0-11,5.38,7.07,7.07,0,0,0-.12,1.3A7.55,7.55,0,1,0,267.05,728Z" transform="translate(-89.5 -110.13)"/><path class="cls-1" d="M305,686.62A7.56,7.56,0,0,0,315,676a7.93,7.93,0,0,0-2-2.21,7.56,7.56,0,1,0-8,12.8Z" transform="translate(-89.5 -110.13)"/><path class="cls-1" d="M349.06,644.72a7.57,7.57,0,1,0-2-2.21A7.93,7.93,0,0,0,349.06,644.72Z" transform="translate(-89.5 -110.13)"/><path d="M499.75,589.47l19.42.18V637.5h30.5V589.67h18.84l-34.34-37.9Zm46.92-2.8V634.5h-24.5V586.68l-15.67-.15,27.66-30.3,27.58,30.44Z" transform="translate(-89.5 -110.13)"/><path d="M480.15,579.28l-24.06,26.77,13.74-.2V637.5h21.5V605.83h13.44Zm8.18,23.55V634.5h-15.5V602.81l-9.92.14,17.27-19.23,17.72,19.11Z" transform="translate(-89.5 -110.13)"/><path class="cls-1" d="M405,699.17h38.28A64.38,64.38,0,0,0,410.74,681H405Z" transform="translate(-89.5 -110.13)"/><path d="M450.4,702.83c-1-1.25-2-2.48-3-3.66A67.68,67.68,0,0,0,421.14,681a66.7,66.7,0,0,0-10.06-3c-2-.43-4-.75-6.08-1-.47-.06-.93-.14-1.41-.18l-1.59-.12c-1.67-.13-3.35-.21-5.05-.21a68,68,0,0,0-9.95.74,67.21,67.21,0,0,0-36,17.42,67.88,67.88,0,0,0-8,8.85,67.32,67.32,0,0,0,0,80.88,69,69,0,0,0,21,18.39A67.56,67.56,0,0,0,397,811.37c1.7,0,3.38-.09,5.05-.21,1-.08,2-.17,3-.29a67.39,67.39,0,0,0,47.59-105Q451.54,704.3,450.4,702.83Zm-45.4,9.3h48a66,66,0,0,1,3.49,7.11A18.5,18.5,0,0,1,439,731.79H405Zm0-3v-3.3h43.91c.79,1.07,1.54,2.18,2.26,3.3Zm38.28-10c1.14,1.18,2.25,2.4,3.3,3.66H405V681h5.74c-.95-.21-1.92-.39-2.88-.55,1,.16,1.93.34,2.88.55A64.38,64.38,0,0,1,443.28,699.17ZM343,779.11a64.25,64.25,0,0,1,0-70.4,65.07,65.07,0,0,1,8-9.89V789A65.15,65.15,0,0,1,343,779.11ZM397,808.37a65.37,65.37,0,0,1-9.95-.78V680.24a64.12,64.12,0,0,1,9.95-.78c1.7,0,3.38.09,5.05.22V808.15C400.33,808.28,398.65,808.37,397,808.37Zm8.05-.52V734.79h34a21.48,21.48,0,0,0,19-11.51,64.42,64.42,0,0,1-53,84.57Z" transform="translate(-89.5 -110.13)"/><rect x="512.17" y="810.61" width="3" height="82.11" transform="translate(-551.25 547.23) rotate(-47.64)"/><path d="M562.87,758.62a14.76,14.76,0,1,0-7.53-2.1l-4.58,7.08a11.17,11.17,0,0,0-3.13-.45,11.37,11.37,0,0,0-9.46,5.09l.12-.32-6.71-2.39a10.16,10.16,0,1,0-1.29,2.73l6.68,2.38a11.32,11.32,0,0,0,10.66,15.21,11.34,11.34,0,0,0,5.91-21l4.54-7A14.64,14.64,0,0,0,562.87,758.62Zm-41,11.14a7.11,7.11,0,1,1,7.11-7.11A7.12,7.12,0,0,1,521.89,769.76ZM556,774.5a8.35,8.35,0,1,1-8.35-8.35A8.36,8.36,0,0,1,556,774.5Zm-4.81-30.58a11.71,11.71,0,1,1,11.7,11.7A11.72,11.72,0,0,1,551.17,743.92Z" transform="translate(-89.5 -110.13)"/><path d="M572.14,743.91a9.27,9.27,0,1,0-9.27,9.27A9.28,9.28,0,0,0,572.14,743.91Zm-15.54,0a6.27,6.27,0,1,1,6.27,6.27A6.27,6.27,0,0,1,556.6,743.91Z" transform="translate(-89.5 -110.13)"/><circle cx="458.13" cy="664.37" r="5.16"/><path d="M679.22,614H668.38a48.19,48.19,0,0,0-4.65-15.42l8.46-8.47a6.51,6.51,0,0,0,0-9.19l-7.5-7.51a6.54,6.54,0,0,0-9.2,0l-7.19,7.2a48.12,48.12,0,0,0-12-6.18V559.9a6.51,6.51,0,0,0-6.5-6.5H624.5V438.29a146.83,146.83,0,0,0,75-128c0-65.36-43-120.88-102.14-139.8v3.15c57.49,18.82,99.14,73,99.14,136.65a144.68,144.68,0,0,1-1.17,18.25c-5.81-5.25-21.05-16.06-41.83-8.7-21.16,7.49-22.36,26-21.87,33.78-3.18-2-8.71-4.59-15-3.94a19.17,19.17,0,0,0-10.24,4.38,22.23,22.23,0,0,1,2.93,1.57,15.94,15.94,0,0,1,7.59-3c8.31-.87,15.5,5.2,15.57,5.26l3.35,2.89-.9-4.33c-.22-1-5-25.15,19.53-33.82,21.91-7.76,36.79,5.81,40.32,9.5A144.1,144.1,0,0,1,624.5,434.84V378.33a21.57,21.57,0,0,0-21.5-21.5H143a21.53,21.53,0,0,0-21.5,21.5V498.5h-32V908H405V819.47a75.57,75.57,0,0,0,37.26-14.62L441.1,806l12.56,12.56L447,831.33l82.53,74.78.26.23.33.1a55.59,55.59,0,0,0,14.28,1.85c8,0,17.92-1.85,25.22-9.24,14.44-14.63,2.26-37.16,1.73-38.11l-.12-.23-84.47-73.65L476,795.45l-14.55-11.4a75.8,75.8,0,0,0,1.22-78.22H603a21.51,21.51,0,0,0,21.28-18.58,6.52,6.52,0,0,0,4.51-6.19V667.53a48,48,0,0,0,10.56-3.1l11.4,11.4a6.51,6.51,0,0,0,9.19,0l7.51-7.51a6.49,6.49,0,0,0,0-9.19L658.29,650a48.3,48.3,0,0,0,7.14-12.37h13.79a6.51,6.51,0,0,0,6.5-6.5V620.48A6.51,6.51,0,0,0,679.22,614ZM402,905H92.5V501.5H402V668.11c-1.67-.11-3.35-.18-5.05-.18a75.51,75.51,0,0,0-30.13,6.24c-.95.41-1.89.83-2.82,1.28-1.09.53-2.17,1.09-3.23,1.66,1.07-.57,2.14-1.13,3.23-1.66v-1.28H343v16.3a75.84,75.84,0,0,0,0,106.89V869h21V812.37c-1.09-.52-2.16-1.08-3.23-1.66,1.06.58,2.14,1.14,3.23,1.66a75.14,75.14,0,0,0,23,6.87,76,76,0,0,0,9.95.66c1.7,0,3.38-.08,5.05-.19ZM599.75,576.46V678H434.62a74.82,74.82,0,0,0-7.54-3.79A75.73,75.73,0,0,0,405,668.35V498.5H144.75V383h455ZM360,677.53c-.84.47-1.68,1-2.51,1.46C358.36,678.49,359.2,678,360,677.53Zm-3.12,1.84c-.89.56-1.77,1.13-2.64,1.73C355.15,680.5,356,679.93,356.92,679.37Zm-3,2c-1,.69-2,1.4-2.93,2.13q-.94.72-1.86,1.47Q351.47,683,353.93,681.33Zm-5.25,4-1.55,1.31Zm-2.47,2.13c-.38.34-.76.68-1.13,1C345.45,688.11,345.83,687.77,346.21,687.43Zm-1.13,111.94c.37.35.75.68,1.13,1C345.83,800.05,345.45,799.72,345.08,799.37Zm2.05,1.84c.51.45,1,.89,1.55,1.32C348.16,802.09,347.64,801.66,347.13,801.21Zm2,1.69q.92.75,1.86,1.47c1,.73,1.94,1.43,2.93,2.12C352.29,805.35,350.69,804.16,349.14,802.9Zm5.14,3.83c.87.59,1.75,1.16,2.64,1.72C356,807.89,355.15,807.32,354.28,806.73Zm3.26,2.1c.82.51,1.66,1,2.5,1.47C359.2,809.82,358.36,809.34,357.54,808.83ZM568.8,862.61c1.2,2.32,10.8,22-1.36,34.34s-33.34,7.43-36.2,6.69l-80.54-73L457.34,818l0,0,18.83-18.83,10.48-8.2Zm-95.16-65.2-18.45,18.45L443.37,804a76.57,76.57,0,0,0,16.43-17.46Zm-3.7-53.5A73.09,73.09,0,0,1,405,816.45c-1,.1-2,.19-3,.25-1.67.12-3.35.2-5.05.2A72.91,72.91,0,0,1,351,687.28a73.8,73.8,0,0,1,13-8.46A72.73,72.73,0,0,1,397,670.93c1.7,0,3.38.06,5.05.18,1,.07,2,.15,3,.26a72.38,72.38,0,0,1,13.47,2.8,70.81,70.81,0,0,1,9.71,3.79c1.93.91,3.81,1.92,5.64,3a73.35,73.35,0,0,1,20.73,18.21c.93,1.19,1.84,2.41,2.7,3.66.67,1,1.32,2,1.94,3A72.6,72.6,0,0,1,469.94,743.91ZM603,702.83H460.83c-.81-1.24-1.64-2.47-2.51-3.66A76.43,76.43,0,0,0,439.46,681H602.75V380h-461V498.5H124.5V378.33a18.52,18.52,0,0,1,18.5-18.5H603a18.51,18.51,0,0,1,16.21,9.61,18.31,18.31,0,0,1,2.29,8.89v306c0,.08,0,.16,0,.23A18.55,18.55,0,0,1,603,702.83Zm21.5-111a28.49,28.49,0,0,1,0,56.42Zm58.22,39.31a3.5,3.5,0,0,1-3.5,3.5H663.33c-.34,1-.71,2-1.13,3a45.26,45.26,0,0,1-6,10.23c-.62.79-1.26,1.57-1.93,2.32l2.12,2.12,9,9a3.51,3.51,0,0,1,0,5l-7.51,7.51a3.51,3.51,0,0,1-5,0l-10.64-10.64L640,660.84c-1,.46-1.94.88-2.94,1.27a44.88,44.88,0,0,1-8.27,2.37c-1,.19-2,.34-3,.46v16.12a3.51,3.51,0,0,1-1.29,2.7V651.24a31.49,31.49,0,0,0,0-62.48V556.4h5.31a3.5,3.5,0,0,1,3.5,3.5v16.7c1,.3,2,.63,3,1a45.17,45.17,0,0,1,9.84,5.15c.83.57,1.64,1.18,2.43,1.8l2.14-2.13,6.9-6.9a3.51,3.51,0,0,1,5,0l7.5,7.51a3.51,3.51,0,0,1,0,5l-7.83,7.84L660,598c.51.92,1,1.85,1.44,2.81A44.66,44.66,0,0,1,665.35,614q.21,1.49.3,3h13.57a3.5,3.5,0,0,1,3.5,3.5Z" transform="translate(-89.5 -110.13)"/><path d="M233.27,243l-.11.38a76.39,76.39,0,0,0,9.12,1.85c-.22,1.4-.41,2.83-.53,4.3l1,.09c.12-1.45.31-2.86.53-4.25a100.77,100.77,0,0,0,12.4.94v3.57h1v-3.56h.22a88.14,88.14,0,0,0,12.54-.89c.22,1.37.4,2.76.52,4.19l1-.09c-.12-1.45-.3-2.86-.52-4.24a72.67,72.67,0,0,0,8.75-1.91l-.11-.38a27.34,27.34,0,0,1,3.78,8.41H286a30.57,30.57,0,0,0-59.57,0h3.11A27.57,27.57,0,0,1,233.27,243Zm45.41-.52a72.37,72.37,0,0,1-8.41,1.82,48.08,48.08,0,0,0-3.43-11.4A27.7,27.7,0,0,1,278.68,242.52Zm-22-11.73a27.4,27.4,0,0,1,8.81,1.61,46.11,46.11,0,0,1,3.8,12.09,87.7,87.7,0,0,1-12.61.87Zm-1,0v14.56a98.62,98.62,0,0,1-12.25-.93,45.9,45.9,0,0,1,3.87-12.17A27.3,27.3,0,0,1,255.67,230.79Zm-9.75,2a47.69,47.69,0,0,0-3.49,11.51,77.59,77.59,0,0,1-8.78-1.76A27.76,27.76,0,0,1,245.92,232.77Z" transform="translate(-89.5 -110.13)"/><path d="M230.27,267.45l2.31-6.82a42.07,42.07,0,0,0,1.31-4.75h.05c.36,1.69.78,3.12,1.28,4.72l2.19,6.85h2.38l4.62-14.35h-2.58l-2,7.2a42.23,42.23,0,0,0-1.1,4.66h-.09c-.33-1.46-.74-3-1.28-4.69l-2.22-7.17h-2.19l-2.34,7.32c-.48,1.54-.95,3.08-1.28,4.54h-.09c-.26-1.49-.65-3-1.07-4.57l-1.89-7.29h-2.67l4.33,14.35Z" transform="translate(-89.5 -110.13)"/><path d="M262,260.3a42.06,42.06,0,0,0-1.09,4.66h-.09c-.33-1.46-.74-3-1.28-4.69l-2.22-7.17h-2.2l-2.34,7.32c-.47,1.54-1,3.08-1.27,4.54h-.09c-.27-1.49-.65-3-1.07-4.57l-1.9-7.29h-2.66l4.32,14.35h2.38l2.31-6.82a42.08,42.08,0,0,0,1.3-4.75h.06a47.39,47.39,0,0,0,1.28,4.72l2.19,6.85H262l4.63-14.35H264Z" transform="translate(-89.5 -110.13)"/><path d="M269.51,272.24c-.32,1.66-.69,3.29-1.08,4.9h0c.54-.55,1.1-1.09,1.66-1.62l.9-.86c.66-.61,1.32-1.22,2-1.82h0Q271.24,272.5,269.51,272.24Z" transform="translate(-89.5 -110.13)"/><path d="M286.82,259.12l-1.41,4.38a95.69,95.69,0,0,1,114,8.82l-28,28a55.35,55.35,0,0,0-61.83-5.85l-25-25a30.64,30.64,0,0,1-1.34,2.91L307,296a55.73,55.73,0,0,0-24.12,32H242c.24-1.37.52-2.73.82-4.08.05-.25.11-.51.17-.76.29-1.26.6-2.51.94-3.75.09-.33.18-.65.28-1,.34-1.19.69-2.38,1.08-3.55.1-.33.22-.66.33-1,.31-.89.63-1.79,1-2.67.17-.46.33-.92.51-1.37.38-1,.78-1.93,1.19-2.88.25-.59.51-1.19.78-1.77s.49-1.05.74-1.57c.49-1,1-2.06,1.52-3.07l.48-.91q1.13-2.1,2.35-4.16l0,0q2-3.41,4.35-6.63c-.79.07-1.58.1-2.38.1-.45,0-.9,0-1.34-.06a98.36,98.36,0,0,0-17.25,55.75c0,2.53.1,5.05.29,7.54h3c-.2-2.49-.3-5-.3-7.54a95.69,95.69,0,0,1,1-13.63H282.1a55.67,55.67,0,0,0-1.35,12.13,54.93,54.93,0,0,0,.75,9h3A52.44,52.44,0,0,1,324.33,292c1-.24,2-.44,3-.61A52.46,52.46,0,0,1,388,352.16h3a55.31,55.31,0,0,0-17.24-49.9l27.92-27.93a97.25,97.25,0,0,1,7.13,7.37c.62.71,1.23,1.43,1.83,2.15v-4.63l-1.05-1.16a98.68,98.68,0,0,0-73.09-32.35c-3.09,0-6.15.15-9.17.43q-1.5.13-3,.33A98.3,98.3,0,0,0,286.82,259.12Z" transform="translate(-89.5 -110.13)"/><path d="M268.32,273A100.84,100.84,0,0,0,257,285.9a26.63,26.63,0,0,0,4.12-.42c.94-1.19,1.9-2.36,2.9-3.51h0q1.48-1.71,3-3.36Q267.76,275.86,268.32,273Z" transform="translate(-89.5 -110.13)"/><path d="M274,272c.74-.64,1.5-1.28,2.26-1.9s1.8-1.46,2.73-2.16l2.15,2.15c.11-.23.23-.44.33-.68h3.23l-2-2h-.91l-1.36-4.25a99.51,99.51,0,0,0-10.26,8.13C271.4,271.52,272.67,271.75,274,272Z" transform="translate(-89.5 -110.13)"/><path d="M283,265a41.3,41.3,0,0,1,.95-4.13q-.9.57-1.8,1.17c.3,1,.55,2,.76,3Z" transform="translate(-89.5 -110.13)"/><path d="M284.65,269.42h-3.23c-.1.24-.22.45-.33.68l2.23,2.24a30.64,30.64,0,0,0,1.34-2.91h0Z" transform="translate(-89.5 -110.13)"/><path d="M257,285.9l-.28,0V271.33a88,88,0,0,1,11.84.76c-.05.32-.13.62-.19.93q-.57,2.85-1.3,5.59c.14-.16.29-.3.43-.46.33-.34.65-.68,1-1,.39-1.61.76-3.24,1.08-4.9q1.73.25,3.48.6l.16-.14.8-.69c-1.28-.26-2.55-.49-3.8-.68l-.46-.07c.33-1.82.6-3.65.83-5.51l-1-.12q-.33,2.78-.82,5.48a87.69,87.69,0,0,0-12-.77v-5.21h-1v5.22a100.92,100.92,0,0,0-11.67.83q-.5-2.73-.83-5.55l-1,.12q.35,2.82.84,5.57a76.92,76.92,0,0,0-9.85,1.95l.13.44a27.14,27.14,0,0,1-2.38-4.29h-3.24a30.6,30.6,0,0,0,27.16,19.46c.44,0,.89.06,1.34.06.8,0,1.59,0,2.38-.1.82-1.13,1.66-2.26,2.52-3.36A26.63,26.63,0,0,1,257,285.9Zm-23.34-11.72a79.17,79.17,0,0,1,9.59-1.88,88.31,88.31,0,0,0,3.09,11.8A27.68,27.68,0,0,1,233.61,274.18Zm13.89,10.34a85.83,85.83,0,0,1-3.31-12.36,102.27,102.27,0,0,1,11.48-.82v14.58A27.24,27.24,0,0,1,247.5,284.52Z" transform="translate(-89.5 -110.13)"/><path d="M286.18,253.1l-2,7.2-.15.53A41.3,41.3,0,0,0,283,265H283c-.21-.95-.46-1.93-.76-3-.16-.56-.33-1.13-.51-1.73l-2.23-7.17h-2.19l-2.34,7.32c-.47,1.54-.95,3.08-1.28,4.54h-.08c-.27-1.49-.66-3-1.07-4.57l-1.9-7.29h-2.67l4.33,14.35h2.37l2.32-6.82a44.3,44.3,0,0,0,1.3-4.75h.06a47.37,47.37,0,0,0,1.27,4.72l.84,2.6,1.36,4.25h.91l-1.29-1.29c1.32-.92,2.66-1.8,4-2.66l1.41-4.38,1.94-6Z" transform="translate(-89.5 -110.13)"/></svg>