<svg xmlns="http://www.w3.org/2000/svg" viewBox="0 0 610 798.15"><title>development</title><g id="Шар_2" data-name="Шар 2"><g id="Шар_11_копія_2" data-name="Шар 11 копія 2"><path d="M525.1,250.13A21.48,21.48,0,0,1,535,268.2v56.5a144.07,144.07,0,0,0,70.32-102.62c-3.53-3.69-18.41-17.27-40.32-9.51-24.48,8.67-19.75,32.8-19.53,33.82l.9,4.34L543,247.84c-.07-.06-7.26-6.14-15.57-5.27a16,16,0,0,0-7.59,3A22.8,22.8,0,0,1,525.1,250.13Z" style="fill:#ececec"/><path d="M193.18,157.31l2,2h0l25,25A55.38,55.38,0,0,1,282,190.15l28-28a95.69,95.69,0,0,0-114-8.82c-1.36.86-2.7,1.74-4,2.66Z" style="fill:#ececec"/><path d="M194.25,233a52.77,52.77,0,0,0,.79,9h-3a55,55,0,0,1-.75-9,55.81,55.81,0,0,1,1.35-12.13H152.06a95.91,95.91,0,0,0-1,13.63q0,3.81.3,7.54h83.45V181.87A52.59,52.59,0,0,0,194.25,233Z" style="fill:#ececec"/><path d="M144.11,164.05A27.68,27.68,0,0,0,156.79,174a88.06,88.06,0,0,1-3.09-11.81A80.39,80.39,0,0,0,144.11,164.05Z" style="fill:#ececec"/><path d="M534.19,177.74a125.09,125.09,0,0,1,21.25,3.12c-3.92-10.12-20.61-46.76-56-46.67l21.26,45.23A43.16,43.16,0,0,1,534.19,177.74Z" style="fill:#ececec"/><path d="M297.5,709.11a75.42,75.42,0,0,1-23-6.87v56.63h-21V687.22a75.84,75.84,0,0,1,0-106.89V564h21v1.29c.93-.45,1.87-.87,2.82-1.29a75.51,75.51,0,0,1,30.13-6.24c1.7,0,3.38.08,5.05.19V391.37H3v403.5H312.5V709.58c-1.67.11-3.35.19-5.05.19A76,76,0,0,1,297.5,709.11ZM211.44,569.8a7.55,7.55,0,0,1,12-6.11l34.09-31.31a7.61,7.61,0,1,1,2,2.2L225.47,565.9a7.56,7.56,0,0,1-10,10.58l-35.59,43.3a7.56,7.56,0,1,1-13.42,4.77,6.88,6.88,0,0,1,.12-1.29l-31.7-12.37a7.53,7.53,0,0,1-10.1,2.48l-36,41.34a7.56,7.56,0,1,1-13.56,4.59,8,8,0,0,1,.23-1.84L43.15,642a7.64,7.64,0,1,1,1.3-2.7l32.27,15.47a7.57,7.57,0,0,1,6-3,7.64,7.64,0,0,1,3.74,1l36-41.33a7.56,7.56,0,1,1,13.56-4.6,6.91,6.91,0,0,1-.12,1.3l31.7,12.36A7.58,7.58,0,0,1,174,617a7.48,7.48,0,0,1,3.55.89l35.59-43.3A7.57,7.57,0,0,1,211.44,569.8ZM29,433.37h84v6H29Zm0,30.5H175v3H29Zm0,16H175v3H29Zm0,16H175v3H29Zm0,19.75h77.5v21H29ZM47.63,758.87h-21v-86.5h21Zm45.62,0h-21v-64h21Zm45.75,0H118V642.37h21Zm45.5,0h-21v-99h21Zm45,0h-21V605.37h21Z" style="fill:#ececec"/><path d="M183.49,162.71l.16-.14-.16.14Z" style="fill:#ececec"/><path d="M178.82,162.89c.06-.31.14-.62.19-.93a86.41,86.41,0,0,0-11.84-.76v14.58h.28A99.5,99.5,0,0,1,178.82,162.89Z" style="fill:#ececec"/><path d="M158,174.39a27.23,27.23,0,0,0,8.17,1.39V161.21a97.75,97.75,0,0,0-11.48.82A86.18,86.18,0,0,0,158,174.39Z" style="fill:#ececec"/><path d="M96.58,77.11V91H234.83V77.11c0-10.57-8.3-19.16-18.5-19.16H115.08C104.88,58,96.58,66.54,96.58,77.11Zm46-8.66h46.67a6.5,6.5,0,0,1,0,13H142.58a6.5,6.5,0,0,1,0-13Z" style="fill:#ececec"/><path d="M142.58,78.45h46.67a3.5,3.5,0,0,0,0-7H142.58a3.5,3.5,0,0,0,0,7Z" style="fill:#ececec"/><path d="M319.31,171.57a95.41,95.41,0,0,0-7.13-7.37l-27.92,27.93A55.31,55.31,0,0,1,301.5,242h-3a52.47,52.47,0,0,0-51.71-61.54,53.51,53.51,0,0,0-8.92.77V242h84.78a146.65,146.65,0,0,1-3.3-70.46Z" style="fill:#ececec"/><rect x="32" y="518.62" width="71.5" height="15" style="fill:#ececec"/><path d="M178,168c.33-.34.65-.68,1-1h0C178.6,167.34,178.28,167.68,178,168Z" style="fill:#ececec"/><path d="M458.13,656a8.35,8.35,0,1,0,8.35,8.35A8.36,8.36,0,0,0,458.13,656Zm0,13.51a5.17,5.17,0,1,1,5.17-5.16A5.16,5.16,0,0,1,458.13,669.53Z" style="fill:#ececec"/><path d="M432.39,645.41a7.11,7.11,0,1,0,7.11,7.11A7.12,7.12,0,0,0,432.39,645.41Z" style="fill:#ececec"/><path d="M156.42,122.64a27.62,27.62,0,0,0-12.27,9.75,80.15,80.15,0,0,0,8.78,1.76A47.69,47.69,0,0,1,156.42,122.64Z" style="fill:#ececec"/><path d="M522.46,190.13l-35.18-74.85a199.87,199.87,0,0,0-24.59-42.75l-84.35,36.22a200,200,0,0,0,15.83,48.39l0,.09,32.41,76Zm-110.32-67.8a21.61,21.61,0,1,1,21.61,21.61A21.63,21.63,0,0,1,412.14,122.33Z" style="fill:#ececec"/><path d="M165.33,178.75a30.62,30.62,0,0,1-27.16-19.46h3.24a27.59,27.59,0,0,0,2.38,4.29l-.13-.44a77.84,77.84,0,0,1,9.85-2c-.33-1.83-.61-3.68-.84-5.57l1-.11q.33,2.81.83,5.55a100.75,100.75,0,0,1,11.67-.84V155h1v5.21a87.75,87.75,0,0,1,12,.78q.5-2.7.82-5.48l1,.11c-.23,1.86-.5,3.7-.83,5.51l.46.08a98.17,98.17,0,0,1,10.26-8.13l-.84-2.61a47.17,47.17,0,0,1-1.27-4.71h-.06a44.11,44.11,0,0,1-1.3,4.74l-2.32,6.82h-2.37L178.42,143h2.67l1.9,7.3c.41,1.6.8,3.08,1.07,4.56h.08c.33-1.45.81-3,1.28-4.53l2.34-7.33H190l2.23,7.18c.18.6.35,1.17.51,1.72l1.8-1.16.15-.53,2-7.21h2.58l-1.94,6a98.3,98.3,0,0,1,37.51-12.65V94H96.58v148c4.43,0,8.88,0,13.4.1h38.39q-.28-3.74-.29-7.54A98.3,98.3,0,0,1,165.33,178.75Zm7.13-21.44h-2.37l-2.19-6.85a47.2,47.2,0,0,1-1.28-4.71h-.06a41.9,41.9,0,0,1-1.3,4.74L163,157.31h-2.38L156.25,143h2.66l1.9,7.3c.42,1.6.8,3.08,1.07,4.56H162c.32-1.45.8-3,1.27-4.53l2.34-7.33h2.2l2.22,7.18c.54,1.72.95,3.23,1.28,4.68h.09a42.45,42.45,0,0,1,1.09-4.65l2-7.21h2.58Zm-5.79-39.67a30.62,30.62,0,0,1,29.78,23.68h-3.11a27.34,27.34,0,0,0-3.78-8.41l.11.38a76.73,76.73,0,0,1-8.75,1.91c.22,1.38.4,2.79.52,4.24l-1,.08c-.12-1.43-.3-2.82-.52-4.19a86.7,86.7,0,0,1-12.54.89h-.22v3.57h-1v-3.57a100.77,100.77,0,0,1-12.4-.94c-.22,1.38-.41,2.79-.53,4.24l-1-.08c.12-1.47.31-2.9.53-4.31a77.84,77.84,0,0,1-9.12-1.84l.11-.38a27.57,27.57,0,0,0-3.78,8.41h-3.11A30.63,30.63,0,0,1,166.67,117.64ZM136.74,143l1.89,7.3c.42,1.6.81,3.08,1.07,4.56h.09c.33-1.45.8-3,1.28-4.53l2.34-7.33h2.19l2.22,7.18c.54,1.72,1,3.23,1.28,4.68h.09a42.63,42.63,0,0,1,1.1-4.65l2-7.21h2.58l-4.62,14.35h-2.38l-2.19-6.85c-.5-1.6-.92-3-1.28-4.71h-.05a41.89,41.89,0,0,1-1.31,4.74l-2.31,6.82H138.4L134.07,143Z" style="fill:#ececec"/><path d="M485.08,633.78a11.71,11.71,0,1,0-11.71,11.71A11.72,11.72,0,0,0,485.08,633.78Zm-21,0a9.27,9.27,0,1,1,9.27,9.27A9.28,9.28,0,0,1,464.1,633.78Z" style="fill:#ececec"/><path d="M166.17,135.21V120.66a27.3,27.3,0,0,0-8.38,1.46,45.9,45.9,0,0,0-3.87,12.17A98.79,98.79,0,0,0,166.17,135.21Z" style="fill:#ececec"/><path d="M176,122.26a27.39,27.39,0,0,0-8.81-1.6v14.56a86.29,86.29,0,0,0,12.61-.87A46.35,46.35,0,0,0,176,122.26Z" style="fill:#ececec"/><path d="M189.18,132.38a27.75,27.75,0,0,0-11.84-9.57,47.8,47.8,0,0,1,3.43,11.4A74.57,74.57,0,0,0,189.18,132.38Z" style="fill:#ececec"/><circle cx="473.37" cy="633.78" r="6.27" style="fill:#ececec"/><circle cx="433.75" cy="122.33" r="18.61" style="fill:#ececec"/><path d="M359.41,595.7H315.5V599h46.17C361,597.87,360.2,596.77,359.41,595.7Z" style="fill:#ececec"/><path d="M297.5,570.1V697.45a64.12,64.12,0,0,0,9.95.78c1.7,0,3.38-.08,5.05-.21V569.55c-1.67-.13-3.35-.23-5.05-.23A65.37,65.37,0,0,0,297.5,570.1Z" style="fill:#ececec"/><path d="M442.92,51.37A226,226,0,0,0,387.33,17.2,233.78,233.78,0,0,0,376,81.49a130.13,130.13,0,0,0,1.8,24.22l83-35.63A130.65,130.65,0,0,0,442.92,51.37Z" style="fill:#ececec"/><path d="M353.78,589H315.5v3.67h41.58C356,591.43,354.92,590.22,353.78,589Z" style="fill:#ececec"/><path d="M367.84,707.88l-6.64,12.66,80.54,73c2.86.74,24,5.64,36.2-6.7s2.56-32,1.36-34.33l-82.18-71.66L386.64,689l-18.83,18.83Zm27,4.88,60.67,55.33-2,2.22L392.82,715Z" style="fill:#ececec"/><path d="M243,633.78A64.07,64.07,0,0,0,253.5,669a65.07,65.07,0,0,0,8,9.89V588.68a65.15,65.15,0,0,0-8,9.9A64.07,64.07,0,0,0,243,633.78Z" style="fill:#ececec"/><path d="M353.87,693.9l11.82,11.82,18.45-18.44L370.3,676.44A77,77,0,0,1,353.87,693.9Z" style="fill:#ececec"/><path d="M349.5,624.66h-34v73.05a64.41,64.41,0,0,0,53-84.56A21.5,21.5,0,0,1,349.5,624.66Z" style="fill:#ececec"/><path d="M589.72,506.85H576.15q-.09-1.52-.3-3A44.81,44.81,0,0,0,572,490.67c-.45-.95-.93-1.88-1.44-2.8l2.2-2.19,7.83-7.84a3.51,3.51,0,0,0,0-4.95l-7.5-7.51a3.51,3.51,0,0,0-5,0l-6.9,6.9-2.14,2.13c-.79-.63-1.6-1.23-2.43-1.81a45.14,45.14,0,0,0-9.84-5.14c-1-.37-2-.7-3-1v-16.7a3.5,3.5,0,0,0-3.5-3.5H535v32.37a31.49,31.49,0,0,1,0,62.47v32.52a3.47,3.47,0,0,0,1.29-2.69V554.81c1-.12,2-.28,3-.46a44.88,44.88,0,0,0,8.27-2.37c1-.4,2-.81,2.94-1.28l2.23,2.24,10.64,10.63a3.49,3.49,0,0,0,5,0l7.51-7.5a3.51,3.51,0,0,0,0-5l-9-9L564.73,540c.67-.75,1.31-1.52,1.93-2.31a45.26,45.26,0,0,0,6-10.23c.42-1,.79-2,1.13-3h15.89a3.5,3.5,0,0,0,3.5-3.5V510.35A3.5,3.5,0,0,0,589.72,506.85Z" style="fill:#ececec"/><path d="M559.51,509.87A28.55,28.55,0,0,0,535,481.65v56.43A28.54,28.54,0,0,0,559.51,509.87Z" style="fill:#ececec"/><path d="M367.75,592.7c-.86-1.25-1.77-2.47-2.7-3.67a73.66,73.66,0,0,0-20.73-18.21c-1.83-1.07-3.71-2.08-5.64-3A73.48,73.48,0,0,0,329,564a72.36,72.36,0,0,0-13.47-2.79q-1.49-.16-3-.27c-1.67-.11-3.35-.18-5.05-.18A72.55,72.55,0,0,0,286,564a73,73,0,0,0-24.48,13.12,72.81,72.81,0,0,0,0,113.26,73.8,73.8,0,0,0,13,8.46,72.9,72.9,0,0,0,32.95,7.9c1.7,0,3.38-.08,5.05-.2,1-.07,2-.15,3-.26A72.94,72.94,0,0,0,369.69,595.7C369.07,594.68,368.42,593.68,367.75,592.7Zm-52.25,108c-1,.11-2,.21-3,.28-1.67.13-3.35.21-5.05.21a68,68,0,0,1-9.95-.74,67.21,67.21,0,0,1-36-17.42,67.88,67.88,0,0,1-8-8.85,67.32,67.32,0,0,1,0-80.88,69,69,0,0,1,21-18.39,67.56,67.56,0,0,1,32.95-8.63c1.7,0,3.38.09,5.05.22.53,0,1.06.06,1.59.11s.94.13,1.41.18c2.05.25,4.09.57,6.08,1A67.41,67.41,0,0,1,357.87,589q1.58,1.79,3,3.67,1.14,1.47,2.19,3a67.39,67.39,0,0,1-47.59,105Z" style="fill:#ececec"/><path d="M315.5,621.66h34A18.5,18.5,0,0,0,367,609.11,67,67,0,0,0,363.5,602h-48Z" style="fill:#ececec"/><path d="M530.33,264.53v302a22.52,22.52,0,0,1-22.5,22.5h-139c.87,1.2,1.7,2.42,2.51,3.67H513.5A18.55,18.55,0,0,0,532,574.43c0-.08,0-.15,0-.23v-306a18.31,18.31,0,0,0-2.29-8.89A22.4,22.4,0,0,1,530.33,264.53Z" style="fill:#ececec"/><polygon points="47.67 267.03 47.67 388.37 52.25 388.37 52.25 269.82 505.33 269.82 505.33 267.03 47.67 267.03" style="fill:#ececec"/><path d="M425.05,237.19l-3.78-8.86a40,40,0,0,0-8.2,6.69,86,86,0,0,0-5.77,7h43.27l-6-13.5Z" style="fill:#ececec"/><polygon points="465.68 242.03 500.94 242.03 494.58 228.93 465.68 242.03" style="fill:#ececec"/><polygon points="417 476.4 432.67 476.55 432.67 524.37 457.17 524.37 457.17 476.53 472.24 476.53 444.66 446.1 417 476.4" style="fill:#ececec"/><rect x="83" y="309.37" width="332.14" height="27.67" style="fill:#ececec"/><polygon points="383.33 492.68 383.33 524.37 398.83 524.37 398.83 492.7 408.4 492.7 390.69 473.59 373.41 492.82 383.33 492.68" style="fill:#ececec"/><path d="M93.58,76.45A21.52,21.52,0,0,1,115.08,55h93.33A18.49,18.49,0,0,0,191.5,43.87H103a18.52,18.52,0,0,0-18.5,18.5V241.93c3,0,6,0,9.08,0V76.45Z" style="fill:#ececec"/><polygon points="503.48 202.14 504.82 201.46 475.89 214.63 475.89 214.64 474.57 215.23 473.16 215.87 473.15 215.86 447.32 227.31 453.85 242.03 458.42 242.03 511.54 217.94 503.48 202.14" style="fill:#ececec"/><path d="M152.53,217.86c.24-1.37.52-2.72.82-4.07C153.05,215.14,152.77,216.49,152.53,217.86Z" style="fill:#ececec"/><path d="M337.58,564H505.33V272.83H55.25V388.37H315.5V558.22A75.41,75.41,0,0,1,337.58,564Zm64.25-68.33v31.67h-21.5V495.72l-13.74.19,24.06-26.77,24.62,26.56Zm58.34-16.17v47.84h-30.5V479.52l-19.42-.19,34.42-37.69L479,479.53ZM80,340V306.37H415.14v-15h64v64h-64V340Z" style="fill:#ececec"/><path d="M420.08,225.53l-18.83-44.15c-16.34,20-11.15,46.22-6.34,60.65h8.66a97.11,97.11,0,0,1,7.31-9.05A42.54,42.54,0,0,1,420.08,225.53Z" style="fill:#ececec"/><path d="M189.44,157.82c-.93.7-1.83,1.42-2.73,2.15s-1.52,1.26-2.26,1.9c-.27.23-.54.46-.8.7l-.16.14c-.68.59-1.34,1.2-2,1.82l-.9.85c-.56.54-1.12,1.07-1.66,1.63-.33.33-.65.67-1,1l-.43.45q-1.56,1.65-3.05,3.37h0c-1,1.15-2,2.32-2.9,3.51s-1.7,2.22-2.52,3.36q-2.31,3.21-4.35,6.62l0,0q-1.23,2-2.35,4.16l-.48.9c-.53,1-1,2-1.52,3.07-.25.53-.5,1-.74,1.57s-.53,1.18-.78,1.78c-.41.95-.81,1.91-1.19,2.88-.18.45-.34.91-.51,1.37q-.5,1.32-1,2.67c-.11.33-.23.65-.33,1-.39,1.18-.75,2.36-1.08,3.56-.1.32-.19.65-.28,1-.34,1.24-.65,2.49-.94,3.75-.06.25-.12.5-.17.76-.3,1.35-.58,2.7-.82,4.07h40.83a55.76,55.76,0,0,1,24.12-32L193.82,162.2,191.59,160Z" style="fill:#b4c85a"/><path d="M321.14,173.72c-.6-.73-1.21-1.44-1.83-2.15a146.65,146.65,0,0,0,3.3,70.46h3.11a143.63,143.63,0,0,1,8.49-105.13h-3.34a145.34,145.34,0,0,0-10.78,31l1.05,1.15Z"/><path d="M455.35,122.33a21.61,21.61,0,1,0-21.6,21.61A21.63,21.63,0,0,0,455.35,122.33Zm-40.21,0a18.61,18.61,0,1,1,18.61,18.61A18.63,18.63,0,0,1,415.14,122.33Z"/><path d="M401.25,181.38l18.83,44.15a42.54,42.54,0,0,0-9.2,7.45,97.11,97.11,0,0,0-7.31,9.05h3.73a86,86,0,0,1,5.77-7,40,40,0,0,1,8.2-6.69l3.78,8.86,19.53-8.66,6,13.5h3.28l-6.53-14.72,25.83-11.45h0l1.41-.64,1.32-.59h0l28.93-13.17-1.34.68,8.06,15.8L458.41,242h7.27l28.9-13.11L500.94,242h3.34l-7-14.35,18.32-8.3-9.44-18.54,20.28-9.24L522,182.18a40,40,0,0,1,12-1.44c10.38.38,23.22,3.64,23.35,3.67l2.62.67-.81-2.57a97.31,97.31,0,0,0-14.45-26.92c-12.64-16.49-28.74-24.84-46.7-24.36l-8-17.09c-.65-1.64-16.39-40.68-45.2-65.06-26.42-22.35-52.18-32.77-57.08-34.64l-.25-.09-.62-.23-1.36-.48-.31.8L385,15l-.22.6c-1.56,4.19-10.88,30.62-11.8,65.83-1,37.73,17.68,75.45,18.47,77l8.47,19.86c-10.44,12-14.68,27.9-12.22,46.5a96.19,96.19,0,0,0,4,17.22h3.22C390.1,227.6,384.91,201.34,401.25,181.38Zm154.19-.52a125.09,125.09,0,0,0-21.25-3.12,43.16,43.16,0,0,0-13.45,1.68l-21.26-45.23C534.83,134.1,551.52,170.74,555.44,180.86ZM376,81.49A233.78,233.78,0,0,1,387.33,17.2a226,226,0,0,1,55.59,34.17,130.65,130.65,0,0,1,17.87,18.71l-83,35.63A130.13,130.13,0,0,1,376,81.49Zm18.21,75.74,0-.09a200,200,0,0,1-15.83-48.39l84.35-36.22a199.87,199.87,0,0,1,24.59,42.75l35.18,74.85-95.84,43.08Z"/><path d="M115.08,55a21.52,21.52,0,0,0-21.5,21.5V241.92h3V94H234.83v42.38c1-.12,2-.23,3-.32V76.45A21.52,21.52,0,0,0,216.33,55H115.08Zm101.25,3c10.2,0,18.5,8.59,18.5,19.16V91H96.58V77.11c0-10.57,8.3-19.16,18.5-19.16Z"/><path d="M234.83,181.87V242h3V181.26C236.82,181.44,235.82,181.64,234.83,181.87Z"/><path d="M505.33,564H337.58a79.27,79.27,0,0,1,7.54,3.79H510.25v-295h-4.92V564Z" style="fill:#b4c85a"/><path d="M32,268.2a21.53,21.53,0,0,1,21.5-21.5h460a21.35,21.35,0,0,1,11.6,3.43,22.8,22.8,0,0,0-5.24-4.6,22.73,22.73,0,0,0-12-3.5H151.38v0h-3v0H110c-4.52-.05-9-.08-13.4-.1h-3c-3,0-6.06,0-9.08,0V62.37A18.52,18.52,0,0,1,103,43.87h88.5A18.49,18.49,0,0,1,208.41,55h3.25A21.51,21.51,0,0,0,191.5,40.87H103a21.52,21.52,0,0,0-21.5,21.5V241.94q-5.5,0-11,.09H45.17a22.53,22.53,0,0,0-22.5,22.5V388.37H32Z" style="fill:#b4c85a"/><path d="M507.83,589a22.52,22.52,0,0,0,22.5-22.5v-302a22.4,22.4,0,0,0-.62-5.22,18.51,18.51,0,0,0-16.21-9.61H53.5A18.52,18.52,0,0,0,35,268.2V388.37H47.67V267H505.33v2.8h7.92v301H350A76.79,76.79,0,0,1,368.82,589h139Z" style="fill:#b4c85a"/><path d="M142.58,81.45h46.67a6.5,6.5,0,0,0,0-13H142.58a6.5,6.5,0,0,0,0,13Zm0-10h46.67a3.5,3.5,0,0,1,0,7H142.58a3.5,3.5,0,0,1,0-7Z"/><polygon points="449.34 18.26 450.48 21.04 460.06 17.12 464.52 28.88 467.33 27.81 462.83 15.98 466.61 14.44 473.57 11.59 472.44 8.81 461.77 13.18 456.76 0 453.95 1.07 458.99 14.32 458.69 14.44 449.34 18.26"/><polygon points="510.27 43.83 521.18 39.37 526.27 52.76 529.46 51.55 524.34 38.07 536.57 33.07 535.28 29.9 523.13 34.88 517.42 19.87 514.22 21.08 519.96 36.17 508.98 40.67 510.27 43.83"/><polygon points="353.79 149.02 361.17 146 364.61 155.06 366.77 154.24 363.31 145.13 371.58 141.74 370.71 139.6 362.49 142.96 358.63 132.81 356.46 133.63 360.35 143.84 352.91 146.88 353.79 149.02"/><polygon points="512.41 112.75 519.79 109.73 523.23 118.79 525.39 117.97 521.93 108.85 530.21 105.46 529.33 103.32 521.11 106.69 517.25 96.53 515.09 97.36 518.97 107.56 511.54 110.61 512.41 112.75"/><polygon points="316.9 59.55 324.27 56.53 327.72 65.59 329.88 64.77 326.42 55.66 334.69 52.27 333.82 50.13 325.59 53.5 321.73 43.34 319.57 44.16 323.45 54.37 316.02 57.41 316.9 59.55"/><polygon points="303.5 112.37 311.77 108.98 315.63 119.14 318.05 118.22 314.17 108 323.44 104.21 322.46 101.81 313.25 105.58 308.92 94.2 306.5 95.12 310.85 106.56 302.52 109.97 303.5 112.37"/><polygon points="415.14 337.03 83 337.03 83 309.37 415.14 309.37 415.14 306.37 80 306.37 80 340.03 415.14 340.03 415.14 337.03"/><circle cx="442.93" cy="318.24" r="10" style="fill:#b4c85a"/><path d="M415.14,337v18.34h64v-64h-64V337Zm27.79-34.79a16,16,0,0,1,16,16,15.81,15.81,0,0,1-3.22,9.58L467.88,340l-4.24,4.24-12.37-12.36a16,16,0,1,1-8.34-29.63Z" style="fill:#b4c85a"/><path d="M442.93,334.24a15.9,15.9,0,0,0,8.34-2.37l12.37,12.36,4.24-4.24-12.17-12.17a15.81,15.81,0,0,0,3.22-9.58,16,16,0,1,0-16,16Zm0-26a10,10,0,1,1-10,10A10,10,0,0,1,442.93,308.24Z" style="fill:#ececec"/><rect x="29" y="433.37" width="84" height="6" style="fill:#b4c85a"/><rect x="29" y="463.87" width="146" height="3"/><rect x="29" y="479.87" width="146" height="3"/><rect x="29" y="495.87" width="146" height="3"/><path d="M106.5,515.62H29v21h77.5Zm-3,18H32v-15h71.5Z" style="fill:#b4c85a"/><rect x="26.63" y="672.37" width="21" height="86.5"/><rect x="72.25" y="694.87" width="21" height="64"/><rect x="118" y="642.37" width="21" height="116.5"/><rect x="163.5" y="659.87" width="21" height="99"/><rect x="208.5" y="605.37" width="21" height="153.5"/><path d="M225.47,565.9l34.09-31.32a7.75,7.75,0,0,1-2-2.2l-34.09,31.31A7.66,7.66,0,0,1,225.47,565.9Z"/><path d="M44.45,639.28a7.52,7.52,0,0,1-1.3,2.7l32.27,15.48a7.73,7.73,0,0,1,1.3-2.71Z"/><path d="M179.86,619.78l35.59-43.3a7.45,7.45,0,0,1-2.31-1.9l-35.59,43.3A7.45,7.45,0,0,1,179.86,619.78Z"/><path d="M122.5,611.4l-36,41.33a7.8,7.8,0,0,1,2.26,2l36-41.34A7.62,7.62,0,0,1,122.5,611.4Z"/><path d="M135.94,608.1a7.52,7.52,0,0,1-1.08,2.79l31.7,12.37a7.57,7.57,0,0,1,1.08-2.8Z"/><path d="M44.69,637.43a7.64,7.64,0,1,0-.24,1.85A7.56,7.56,0,0,0,44.69,637.43Z" style="fill:#b4c85a"/><path d="M86.49,652.73a7.64,7.64,0,0,0-3.74-1,7.57,7.57,0,0,0-6,3,7.73,7.73,0,0,0-1.3,2.71,8,8,0,0,0-.23,1.84,7.56,7.56,0,1,0,13.56-4.59A7.8,7.8,0,0,0,86.49,652.73Z" style="fill:#b4c85a"/><path d="M136.06,606.8a7.79,7.79,0,1,0-.12,1.3A6.91,6.91,0,0,0,136.06,606.8Z" style="fill:#b4c85a"/><path d="M177.55,617.88A7.48,7.48,0,0,0,174,617a7.52,7.52,0,0,0-7.44,6.27,6.88,6.88,0,0,0-.12,1.29,7.56,7.56,0,1,0,13.42-4.77A7.45,7.45,0,0,0,177.55,617.88Z" style="fill:#b4c85a"/><path d="M215.45,576.48a7.48,7.48,0,0,0,3.55.89,7.56,7.56,0,0,0,6.47-11.47,7.66,7.66,0,0,0-2-2.21,7.56,7.56,0,1,0-8,12.79Z" style="fill:#b4c85a"/><path d="M259.56,534.58a7.52,7.52,0,1,0-2-2.2A7.75,7.75,0,0,0,259.56,534.58Z" style="fill:#b4c85a"/><path d="M410.25,479.33l19.42.19v47.85h30.5V479.53H479l-34.34-37.89Zm46.92-2.8v47.84h-24.5V476.55L417,476.4l27.66-30.3,27.58,30.43Z"/><path d="M366.59,495.91l13.74-.19v31.65h21.5V495.7h13.44l-24.62-26.56Zm41.81-3.21h-9.57v31.67h-15.5V492.68l-9.92.14,17.27-19.23Z"/><path d="M321.24,570.82H315.5V589h38.28A64.52,64.52,0,0,0,321.24,570.82Z" style="fill:#b4c85a"/><path d="M360.9,592.7q-1.45-1.89-3-3.67a67.41,67.41,0,0,0-36.29-21.21c-2-.42-4-.74-6.08-1-.47-.05-.93-.13-1.41-.18s-1.06-.07-1.59-.11c-1.67-.13-3.35-.22-5.05-.22A67.56,67.56,0,0,0,274.5,575a69,69,0,0,0-21,18.39,67.32,67.32,0,0,0,0,80.88,69.14,69.14,0,0,0,21,18.38,67,67,0,0,0,23,7.89,68,68,0,0,0,9.95.74c1.7,0,3.38-.08,5.05-.21,1-.07,2-.17,3-.28a67.39,67.39,0,0,0,47.59-105Q362,594.17,360.9,592.7Zm-99.4,86.17a65.07,65.07,0,0,1-8-9.89,64.25,64.25,0,0,1,0-70.4,65.15,65.15,0,0,1,8-9.9Zm51,19.15c-1.67.13-3.35.21-5.05.21a64.12,64.12,0,0,1-9.95-.78V570.1a65.37,65.37,0,0,1,9.95-.78c1.7,0,3.38.1,5.05.23Zm3-109V570.82h5.74A64.52,64.52,0,0,1,353.78,589c1.14,1.19,2.25,2.4,3.3,3.67H315.5Zm0,6.67h43.91c.79,1.07,1.54,2.17,2.26,3.29H315.5Zm56.41,38.08a64.54,64.54,0,0,1-56.41,63.93V624.66h34a21.5,21.5,0,0,0,19-11.51A64,64,0,0,1,371.91,633.78ZM367,609.11a18.5,18.5,0,0,1-17.49,12.55h-34V602h48A67,67,0,0,1,367,609.11Z"/><rect x="422.67" y="700.48" width="3" height="82.11" transform="translate(-409.55 555.22) rotate(-47.63)"/><path d="M473.37,648.49a14.76,14.76,0,1,0-7.53-2.1l-4.58,7.07a11.54,11.54,0,0,0-3.13-.44,11.35,11.35,0,0,0-9.46,5.09l.12-.32-6.71-2.39a10.16,10.16,0,1,0-1.29,2.73l6.68,2.38A11.34,11.34,0,1,0,464,654.69l4.54-7A14.64,14.64,0,0,0,473.37,648.49Zm-41,11.14a7.11,7.11,0,1,1,7.11-7.11A7.12,7.12,0,0,1,432.39,659.63Zm34.09,4.74a8.35,8.35,0,1,1-8.35-8.35A8.36,8.36,0,0,1,466.48,664.37Zm-4.81-30.59a11.71,11.71,0,1,1,11.7,11.71A11.72,11.72,0,0,1,461.67,633.78Z"/><path d="M482.64,633.78a9.27,9.27,0,1,0-9.27,9.27A9.28,9.28,0,0,0,482.64,633.78Zm-15.54,0a6.27,6.27,0,1,1,6.27,6.27A6.27,6.27,0,0,1,467.1,633.78Z"/><circle cx="458.13" cy="664.37" r="5.16"/><path d="M589.72,503.85H578.88a48.12,48.12,0,0,0-4.65-15.42l8.46-8.47a6.51,6.51,0,0,0,0-9.19l-7.5-7.51a6.52,6.52,0,0,0-9.2,0l-7.19,7.19a48.42,48.42,0,0,0-12-6.17V449.76a6.51,6.51,0,0,0-6.5-6.5H535V328.16a146.83,146.83,0,0,0,75-128c0-65.37-43-120.88-102.14-139.81v3.16C565.35,82.36,607,136.5,607,200.2a144.4,144.4,0,0,1-1.17,18.24c-5.81-5.24-21.05-16.05-41.83-8.7-21.16,7.5-22.36,26-21.87,33.79-3.18-2-8.71-4.59-15-3.94A19.09,19.09,0,0,0,516.93,244a22.17,22.17,0,0,1,2.93,1.56,16,16,0,0,1,7.59-3c8.31-.87,15.5,5.21,15.57,5.27l3.35,2.89-.9-4.34c-.22-1-5-25.15,19.53-33.82,21.91-7.76,36.79,5.82,40.32,9.51A144.07,144.07,0,0,1,535,324.7V268.2a21.57,21.57,0,0,0-21.5-21.5H53.5A21.53,21.53,0,0,0,32,268.2V388.37H0v409.5H315.5V709.34a75.67,75.67,0,0,0,37.26-14.62l-1.16,1.16,12.56,12.56-6.7,12.76L440,796l.26.23.33.1a56.35,56.35,0,0,0,14.28,1.84c8.05,0,17.92-1.84,25.22-9.23,14.44-14.63,2.26-37.16,1.73-38.11l-.12-.23-84.47-73.65-10.72,8.39L372,673.92a75.8,75.8,0,0,0,1.22-78.22H513.5a21.52,21.52,0,0,0,21.28-18.58,6.52,6.52,0,0,0,4.51-6.19V557.4a47.47,47.47,0,0,0,10.56-3.11l11.4,11.4a6.48,6.48,0,0,0,9.19,0l7.51-7.5a6.51,6.51,0,0,0,0-9.2l-9.16-9.16a48.07,48.07,0,0,0,7.14-12.36h13.79a6.51,6.51,0,0,0,6.5-6.5V510.35A6.51,6.51,0,0,0,589.72,503.85Zm-277.22,291H3V391.37H312.5V558c-1.67-.11-3.35-.19-5.05-.19A75.51,75.51,0,0,0,277.32,564c-.95.42-1.89.84-2.82,1.29V564h-21v16.3a75.84,75.84,0,0,0,0,106.89v71.65h21V702.24a76.07,76.07,0,0,0,32.95,7.53c1.7,0,3.38-.08,5.05-.19ZM55.25,388.37V272.83h455v295H345.12a79.27,79.27,0,0,0-7.54-3.79,75.41,75.41,0,0,0-22.08-5.81V388.37ZM386.64,689l10.48-8.2,82.18,71.66c1.2,2.32,10.8,22-1.36,34.33s-33.34,7.44-36.2,6.7l-80.54-73,6.64-12.66,0,0Zm-2.5-1.74-18.45,18.44L353.87,693.9a77,77,0,0,0,16.43-17.46Zm-3.7-53.5a73.09,73.09,0,0,1-64.94,72.53c-1,.11-2,.19-3,.26-1.67.12-3.35.2-5.05.2a72.9,72.9,0,0,1-32.95-7.9,73.8,73.8,0,0,1-13-8.46,72.81,72.81,0,0,1,0-113.26A73,73,0,0,1,286,564a72.55,72.55,0,0,1,21.47-3.24c1.7,0,3.38.07,5.05.18q1.51.1,3,.27A72.36,72.36,0,0,1,329,564a73.48,73.48,0,0,1,9.71,3.79c1.93.92,3.81,1.93,5.64,3A73.66,73.66,0,0,1,365.05,589c.93,1.2,1.84,2.42,2.7,3.67.67,1,1.32,2,1.94,3A72.54,72.54,0,0,1,380.44,633.78ZM532,443.26V574.2c0,.08,0,.15,0,.23A18.55,18.55,0,0,1,513.5,592.7H371.33c-.81-1.25-1.64-2.47-2.51-3.67A76.79,76.79,0,0,0,350,570.82H513.25v-301h-461V388.37H35V268.2a18.52,18.52,0,0,1,18.5-18.5h460a18.51,18.51,0,0,1,16.21,9.61A18.31,18.31,0,0,1,532,268.2Zm3,38.39a28.5,28.5,0,0,1,0,56.43ZM593.22,521a3.5,3.5,0,0,1-3.5,3.5H573.83c-.34,1-.71,2-1.13,3a45.26,45.26,0,0,1-6,10.23c-.62.79-1.26,1.56-1.93,2.31l2.12,2.13,9,9a3.51,3.51,0,0,1,0,5l-7.51,7.5a3.49,3.49,0,0,1-5,0l-10.64-10.63-2.23-2.24c-1,.47-1.94.88-2.94,1.28a44.88,44.88,0,0,1-8.27,2.37c-1,.18-2,.34-3,.46v16.12a3.47,3.47,0,0,1-1.29,2.69V541.1a31.49,31.49,0,0,0,0-62.47V446.26h5.31a3.5,3.5,0,0,1,3.5,3.5v16.7c1,.3,2,.63,3,1a45.14,45.14,0,0,1,9.84,5.14c.83.58,1.64,1.18,2.43,1.81l2.14-2.13,6.9-6.9a3.51,3.51,0,0,1,5,0l7.5,7.51a3.51,3.51,0,0,1,0,4.95l-7.83,7.84-2.2,2.19c.51.92,1,1.85,1.44,2.8a44.81,44.81,0,0,1,3.87,13.18q.21,1.48.3,3h13.57a3.5,3.5,0,0,1,3.5,3.5Z"/><path d="M143.77,132.91l-.11.38a77.84,77.84,0,0,0,9.12,1.84c-.22,1.41-.41,2.84-.53,4.31l1,.08c.12-1.45.31-2.86.53-4.24a100.77,100.77,0,0,0,12.4.94v3.57h1v-3.57h.22a86.7,86.7,0,0,0,12.54-.89c.22,1.37.4,2.76.52,4.19l1-.08c-.12-1.45-.3-2.86-.52-4.24a76.73,76.73,0,0,0,8.75-1.91l-.11-.38a27.34,27.34,0,0,1,3.78,8.41h3.11a30.57,30.57,0,0,0-59.57,0H140A27.57,27.57,0,0,1,143.77,132.91Zm45.41-.53a74.57,74.57,0,0,1-8.41,1.83,47.8,47.8,0,0,0-3.43-11.4A27.75,27.75,0,0,1,189.18,132.38Zm-22-11.72a27.39,27.39,0,0,1,8.81,1.6,46.35,46.35,0,0,1,3.8,12.09,86.29,86.29,0,0,1-12.61.87Zm-1,0v14.55a98.79,98.79,0,0,1-12.25-.92,45.9,45.9,0,0,1,3.87-12.17A27.3,27.3,0,0,1,166.17,120.66Zm-9.75,2a47.69,47.69,0,0,0-3.49,11.51,80.15,80.15,0,0,1-8.78-1.76A27.62,27.62,0,0,1,156.42,122.64Z"/><path d="M140.77,157.31l2.31-6.82a41.89,41.89,0,0,0,1.31-4.74h.05c.36,1.69.78,3.11,1.28,4.71l2.19,6.85h2.38L154.91,143h-2.58l-2,7.21a42.63,42.63,0,0,0-1.1,4.65h-.09c-.33-1.45-.74-3-1.28-4.68L145.6,143h-2.19l-2.34,7.33c-.48,1.54-.95,3.08-1.28,4.53h-.09c-.26-1.48-.65-3-1.07-4.56l-1.89-7.3h-2.67l4.33,14.35Z"/><path d="M172.46,150.17a42.45,42.45,0,0,0-1.09,4.65h-.09c-.33-1.45-.74-3-1.28-4.68L167.78,143h-2.2l-2.34,7.33c-.47,1.54-1,3.08-1.27,4.53h-.09c-.27-1.48-.65-3-1.07-4.56l-1.9-7.3h-2.66l4.32,14.35H163l2.31-6.82a41.9,41.9,0,0,0,1.3-4.74h.06a47.2,47.2,0,0,0,1.28,4.71l2.19,6.85h2.37L177.09,143h-2.58Z"/><path d="M180,162.1c-.32,1.66-.69,3.29-1.08,4.91h0c.54-.56,1.1-1.09,1.66-1.63l.9-.85c.66-.62,1.32-1.23,2-1.82h0C182.32,162.48,181.16,162.27,180,162.1Z"/><path d="M197.32,149l-1.41,4.39a95.69,95.69,0,0,1,114,8.82l-28,28a55.38,55.38,0,0,0-61.83-5.86l-25-25a29.36,29.36,0,0,1-1.34,2.9l23.66,23.66a55.76,55.76,0,0,0-24.12,32H152.53c.24-1.37.52-2.72.82-4.07.05-.26.11-.51.17-.76.29-1.26.6-2.51.94-3.75.09-.33.18-.66.28-1,.33-1.2.69-2.38,1.08-3.56.1-.33.22-.65.33-1q.47-1.35,1-2.67c.17-.46.33-.92.51-1.37.38-1,.78-1.93,1.19-2.88.25-.6.51-1.19.78-1.78s.49-1,.74-1.57c.49-1,1-2.05,1.52-3.07l.48-.9q1.13-2.11,2.35-4.16l0,0q2-3.41,4.35-6.62c-.79.06-1.58.09-2.38.09-.45,0-.9,0-1.34-.05a98.3,98.3,0,0,0-17.25,55.74q0,3.81.29,7.54v0h3v0q-.3-3.74-.3-7.54a95.91,95.91,0,0,1,1-13.63H192.6A55.81,55.81,0,0,0,191.25,233a55,55,0,0,0,.75,9h3a52.45,52.45,0,0,1,39.79-60.16c1-.23,2-.43,3-.61a53.51,53.51,0,0,1,8.92-.77A52.47,52.47,0,0,1,298.46,242h3a55.31,55.31,0,0,0-17.24-49.9l27.92-27.93a95.41,95.41,0,0,1,7.13,7.37c.62.71,1.23,1.42,1.83,2.15v-4.64l-1.05-1.15A98.68,98.68,0,0,0,247,135.58c-3.09,0-6.15.15-9.17.43-1,.09-2,.2-3,.32A98.3,98.3,0,0,0,197.32,149Z"/><path d="M167.45,175.77a27.92,27.92,0,0,0,4.12-.42c.94-1.19,1.9-2.36,2.9-3.51h0q1.49-1.72,3.05-3.37c.49-1.82.92-3.69,1.3-5.58A99.5,99.5,0,0,0,167.45,175.77Z"/><path d="M186.71,160c.9-.73,1.8-1.45,2.73-2.15l2.15,2.15c.11-.23.23-.45.33-.68h3.23l-2-2h-.91l-1.36-4.24a98.17,98.17,0,0,0-10.26,8.13c1.25.19,2.52.41,3.8.67C185.19,161.23,186,160.6,186.71,160Z"/><path d="M193.54,154.82a41.79,41.79,0,0,1,1-4.12l-1.8,1.16c.3,1,.55,2,.76,3Z"/><path d="M195.15,159.29h-3.23c-.1.23-.22.45-.33.68l2.23,2.23a29.36,29.36,0,0,0,1.34-2.9h0Z"/><path d="M167.45,175.77h-.28V161.2A86.41,86.41,0,0,1,179,162c0,.31-.13.62-.19.93-.38,1.89-.81,3.76-1.3,5.58L178,168c.33-.34.65-.68,1-1,.39-1.62.76-3.25,1.08-4.91,1.15.17,2.31.38,3.48.61l.16-.14c.26-.24.53-.47.8-.7-1.28-.26-2.55-.48-3.8-.67l-.46-.08c.33-1.81.6-3.65.83-5.51l-1-.11q-.33,2.77-.82,5.48a87.75,87.75,0,0,0-12-.78V155h-1v5.22a100.75,100.75,0,0,0-11.67.84q-.5-2.75-.83-5.55l-1,.11c.23,1.89.51,3.74.84,5.57a77.84,77.84,0,0,0-9.85,2l.13.44a27.59,27.59,0,0,1-2.38-4.29h-3.24a30.62,30.62,0,0,0,27.16,19.46c.44,0,.89.05,1.34.05.8,0,1.59,0,2.38-.09q1.23-1.71,2.52-3.36A27.92,27.92,0,0,1,167.45,175.77Zm-23.34-11.72a80.39,80.39,0,0,1,9.59-1.89A88.06,88.06,0,0,0,156.79,174,27.68,27.68,0,0,1,144.11,164.05Zm22.06,11.73a27.23,27.23,0,0,1-8.17-1.39A86.18,86.18,0,0,1,154.69,162a97.75,97.75,0,0,1,11.48-.82Z"/><path d="M196.68,143l-2,7.21-.15.53a41.79,41.79,0,0,0-1,4.12h-.09c-.21-.94-.46-1.92-.76-3-.16-.55-.33-1.12-.51-1.72L190,143h-2.19l-2.34,7.33c-.47,1.54-.95,3.08-1.28,4.53h-.08c-.27-1.48-.66-3-1.07-4.56l-1.9-7.3h-2.67l4.33,14.35h2.37l2.32-6.82a44.11,44.11,0,0,0,1.3-4.74h.06a47.17,47.17,0,0,0,1.27,4.71l.84,2.61,1.36,4.24h.91L191.89,156c1.32-.92,2.66-1.8,4-2.66l1.41-4.39,1.94-6Z"/></g></g></svg>