<svg xmlns="http://www.w3.org/2000/svg" viewBox="0 0 899.93 181.56"><title>woocommerce</title><g id="Шар_2" data-name="Шар 2"><g id="Шар_1-2" data-name="Шар 1"><path d="M176.31,51.5c-4.67,1.55-7.62,5.83-10.13,9.81-6.29,10.13-8.11,23.49-3.05,34.51,1.33,2.9,3.47,6,6.84,6.56,3.58.59,6.91-1.46,9.52-3.69,5.75-4.93,8.61-12.34,10-19.61,1.56-8.28.76-17.45-4.1-24.54A8,8,0,0,0,176.31,51.5Z" style="fill:#b4c85a"/><path d="M304.91,29a28.44,28.44,0,0,0-29-29q-124,0-248,0A28.38,28.38,0,0,0,2.26,17.28,31.85,31.85,0,0,0,0,31C.08,62,0,93.07.08,124.09c.08,14.29,12.54,27.06,26.83,27.46,39.67.23,79.36-.15,119,.2,18.06,9.68,35.84,19.92,53.8,29.81-4-10-8.15-20-12.2-29.94,30.15-.05,60.31.07,90.45-.06,14.32-.39,26.83-13.17,26.89-27.49C305,92.38,304.88,60.7,304.91,29ZM124.84,126c.26,4.63-2,10.25-7,11.33-4.7,1.05-9-2-11.93-5.35-13.5-14.52-21.14-33.33-26.65-52.1-5.57,11-11.16,22-16.56,33.06C59,120.45,55,128.09,48.94,134c-2.55,2.53-6.86,4.82-10.15,2.22-4.95-4.33-6.17-11.23-8.27-17.16-8-27.49-12.49-55.82-17.12-84-1.06-4.7.91-10.33,5.6-12.21,3.79-1.42,8.64-1.62,11.87,1.17,2.25,2,2.87,5.12,3.29,8,3.25,21.83,7.12,43.59,12.39,65q13.55-25.68,27-51.41c1.34-2.51,2.94-5,5.4-6.59,3.29-2.11,8.17-2,10.92,1,2.31,2.42,3.08,5.79,3.72,9a230.86,230.86,0,0,0,11.62,41.63c2.28-20.24,5.07-40.73,12.46-59.84,1.67-3.85,3.14-7.92,5.84-11.19,4.58-4.87,13.27-3.29,16.65,2.22a10.39,10.39,0,0,1,.52,9.83c-6.37,12.53-9,26.49-11.48,40.21C126.31,89.74,123.9,107.86,124.84,126Zm78.3-24c-3.73,6.94-8.61,13.59-15.49,17.67-10.08,6.12-23.6,5.37-33.34-1.09-7.78-5.33-12.15-14.41-13.93-23.46-3.58-20.48,2.54-43.31,18.05-57.61a30,30,0,0,1,15.85-7.15c9.72-1.19,20.21,2,26.83,9.43,5.4,6.11,8.43,14,9.45,22.06A67.77,67.77,0,0,1,203.14,102.07Zm78.34-.38c-3.78,7.13-8.77,14-15.85,18.14-9.68,5.8-22.46,5.27-32-.45-6.48-3.9-10.79-10.56-13.27-17.56-6.8-21.41-1.06-46.6,14.61-62.76a30.63,30.63,0,0,1,17.35-8.61c9.5-1.18,19.81,1.75,26.46,8.84,5.95,6.42,9.17,15,10.08,23.64A67.72,67.72,0,0,1,281.48,101.69Z" style="fill:#b4c85a"/><path d="M254.33,51.53c-5.1,1.82-8.16,6.69-10.81,11.11-5.74,10.12-7.15,23.15-2,33.78,1.4,2.94,3.88,5.9,7.39,6.06,3.82.14,7.11-2.28,9.76-4.78C264.48,92,267.12,83.88,268,76c.95-7.39-.28-15.33-4.58-21.53A8,8,0,0,0,254.33,51.53Z" style="fill:#b4c85a"/><path d="M522.32,34.28c-3.73,15.62-7.43,31.26-10.2,47.09-2.9-15.76-6.22-31.45-9.71-47.09q-14.48,0-28.94,0-5.42,42.47-10.84,84.92c7.23,0,14.47,0,21.71,0q2.94-29.14,5.84-58.29c5,19.41,9.87,38.86,14.81,58.28,5.16,0,10.34,0,15.49,0C525.16,99.8,530,80.44,534.59,61c2.22,19.38,4.08,38.79,6.18,58.18h22.7Q557.75,76.74,552,34.27,537.15,34.27,522.32,34.28Z" style="fill:#b4c85a"/><path d="M446.72,39.23c-8.25-6.54-19.34-8.11-29.54-7a32.3,32.3,0,0,0-21,10.93c-6.68,7.66-9.19,18-9.67,28-.45,11.52.61,23.64,6.42,33.85A31,31,0,0,0,413,120.08c9.13,2.06,19.13,1.79,27.71-2.25s14.3-12,17.09-20.77c3.29-10.28,3.6-21.35,2.2-32C458.64,55.35,454.67,45.4,446.72,39.23ZM435.64,86.8c-.59,3.88-1.25,8-3.81,11.16-3.87,4.9-12.33,5.55-16.54.76-3.17-3.47-3.65-8.39-4.18-12.84-.55-8.24-.92-16.71,1.25-24.76,1.1-4.07,3.58-8.39,8-9.5h0a10.8,10.8,0,0,1,10.35,2.63c3.05,3.1,4.2,7.48,4.94,11.63A78,78,0,0,1,435.64,86.8Z" style="fill:#b4c85a"/><path d="M626.13,34.27c-3.74,15.6-7.41,31.23-10.21,47-2.92-15.74-6.2-31.4-9.69-47-9.66,0-19.3,0-29,0h0q-5.41,42.46-10.84,84.93h21.71Q591.1,90,594,60.87q7.41,29.17,14.81,58.34h15.46C629,99.82,633.62,80.41,638.34,61c2.07,19.4,4,38.8,6.13,58.2,7.56,0,15.12,0,22.68,0q-5.71-42.46-11.46-84.93Z" style="fill:#b4c85a"/><path d="M360.63,53.86c6.57-3.17,14.14-1.64,20.91,0,0-6.75,0-13.5,0-20.25a57.43,57.43,0,0,0-25.26-.34,41.69,41.69,0,0,0-30.91,30.31,55.19,55.19,0,0,0,.86,28.21,41.26,41.26,0,0,0,24.62,26.51,49.33,49.33,0,0,0,30.69,1.09c0-6.75,0-13.5,0-20.25-7.56,2.17-16.36,3.14-23.25-1.42C350.79,93,348,83.52,348.41,75.05,348.49,66.55,352.78,57.7,360.63,53.86Z" style="fill:#b4c85a"/><path d="M787.46,66.42c2.39-8,.26-17.32-5.9-23.05-6.82-6.47-16.5-8.75-25.65-9-9.7-.14-19.39,0-29.1-.06q0,42.46,0,84.93h23c.05-13-.09-26,.07-39.06,6.41,13,12.54,26.07,18.87,39.07h24.2q-9.1-19.11-18.27-38.2A23.68,23.68,0,0,0,787.46,66.42Zm-25.61,1.49c-3.53,2.51-8,2.67-12.19,3q0-10.14,0-20.27c4.57.37,10.09.45,13.25,4.33C765.47,58.71,765.91,65,761.85,67.91Z" style="fill:#b4c85a"/><path d="M876.28,101.1c0-5.19,0-10.37,0-15.55h20.29c0-5.87,0-11.75,0-17.62-6.77,0-13.54,0-20.31,0q0-7.77,0-15.52h23.55q0-9.06,0-18.12c-15.47,0-30.94,0-46.41,0q0,42.45,0,84.91h46.48q0-9.06,0-18.1C892,101.1,884.16,101.12,876.28,101.1Z" style="fill:#b4c85a"/><path d="M696.68,85.68c6.77,0,13.54,0,20.31,0q0-8.79,0-17.59c-6.77,0-13.53,0-20.31,0q0-7.77,0-15.54c7.82,0,15.64,0,23.46-.05,0-6,0-12,0-18.08-15.5.1-31-.2-46.49.15h0c.31,28.25,0,56.52.14,84.78q23.24,0,46.49,0,0-9,0-18.09c-7.85,0-15.71,0-23.56,0Q696.67,93.46,696.68,85.68Z" style="fill:#b4c85a"/><path d="M847,99.13c-7.66,2.22-16.63,3.15-23.55-1.61C815.54,92.28,813.08,82,814,73c.58-8,5.11-16,12.56-19.39,6.49-2.86,13.81-1.37,20.44.22,0-6.77.11-13.55-.09-20.32-8.71-1.86-17.89-2.19-26.54.08h0a41.69,41.69,0,0,0-29.44,29.5,55.16,55.16,0,0,0,.47,27.75,41.35,41.35,0,0,0,23,26.66c10.16,4.41,21.77,4.78,32.43,2C847.19,112.74,846.9,105.93,847,99.13Z" style="fill:#b4c85a"/></g></g></svg>